<svg width="600" height="597" viewBox="0 0 600 597" fill="none" xmlns="http://www.w3.org/2000/svg">
<circle cx="317.944" cy="281.323" r="276.5" fill="#E37068"/>
<path d="M84.4734 415.959L191.783 511.189L45.471 554.028L84.4734 415.959Z" fill="#E37068"/>
<path d="M44.2571 563.821C42.9 563.822 41.561 563.51 40.3446 562.908C39.1281 562.307 38.0669 561.433 37.2439 560.354C36.4208 559.275 35.858 558.02 35.5994 556.688C35.3408 555.356 35.3934 553.982 35.753 552.673L71.8402 420.486C38.3987 361.166 27.5521 291.748 41.3035 225.054C55.0549 158.36 92.4754 98.894 146.654 57.6397C200.832 16.3853 268.109 -3.87088 336.058 0.612075C404.008 5.09503 468.04 34.0143 516.329 82.0289C564.618 130.044 593.902 193.91 598.772 261.833C603.642 329.756 583.769 397.146 542.824 451.559C501.879 505.972 442.628 543.73 376.013 557.862C309.398 571.993 239.92 561.542 180.41 528.439L46.5042 563.689C45.7654 563.84 45.0086 563.885 44.2571 563.821ZM181.644 510.021C183.188 510.01 184.707 510.405 186.05 511.167C241.668 543.119 307.005 553.762 369.888 541.112C432.771 528.461 488.91 493.381 527.846 442.407C566.781 391.433 585.856 328.042 581.517 264.046C577.179 200.051 549.722 139.815 504.263 94.5623C458.804 49.31 398.444 22.1279 334.429 18.0808C270.414 14.0337 207.111 33.3977 156.315 72.5647C105.519 111.732 70.6943 168.03 58.3306 230.97C45.9669 293.91 56.9071 359.198 89.1127 414.67C89.6987 415.679 90.0783 416.795 90.2296 417.952C90.3809 419.109 90.3008 420.285 89.9939 421.411L56.9911 542.583L179.617 510.285C180.282 510.127 180.961 510.038 181.644 510.021Z" fill="#505050"/>
<circle cx="317.444" cy="144.823" r="51" fill="white"/>
<path d="M317.444 202.51C306.115 202.51 295.041 199.151 285.621 192.857C276.201 186.563 268.859 177.616 264.524 167.15C260.188 156.683 259.054 145.165 261.264 134.054C263.474 122.943 268.93 112.736 276.941 104.725C284.951 96.7141 295.158 91.2586 306.269 89.0484C317.381 86.8382 328.898 87.9726 339.365 92.3081C349.832 96.6435 358.778 103.985 365.072 113.405C371.366 122.825 374.726 133.9 374.726 145.229C374.726 160.421 368.691 174.991 357.948 185.733C347.206 196.475 332.636 202.51 317.444 202.51ZM317.444 105.573C309.601 105.573 301.934 107.899 295.413 112.256C288.891 116.614 283.808 122.807 280.807 130.053C277.805 137.299 277.02 145.273 278.55 152.966C280.08 160.658 283.857 167.724 289.403 173.27C294.949 178.816 302.015 182.593 309.708 184.123C317.4 185.653 325.374 184.868 332.62 181.867C339.867 178.865 346.06 173.782 350.417 167.261C354.775 160.739 357.101 153.072 357.101 145.229C357.101 134.712 352.923 124.625 345.486 117.188C338.049 109.751 327.962 105.573 317.444 105.573Z" fill="#505050"/>
<ellipse cx="317.944" cy="358.823" rx="56.5" ry="112" fill="white"/>
<path d="M317.444 475.698C302.253 475.698 287.683 469.663 276.941 458.92C266.198 448.178 260.163 433.608 260.163 418.417V299.448C260.163 284.256 266.198 269.686 276.941 258.944C287.683 248.201 302.253 242.167 317.444 242.167C332.636 242.167 347.206 248.201 357.948 258.944C368.691 269.686 374.726 284.256 374.726 299.448V418.417C374.726 433.608 368.691 448.178 357.948 458.92C347.206 469.663 332.636 475.698 317.444 475.698ZM317.444 259.792C306.927 259.792 296.84 263.97 289.403 271.407C281.966 278.844 277.788 288.93 277.788 299.448V418.417C277.788 428.934 281.966 439.021 289.403 446.458C296.84 453.895 306.927 458.073 317.444 458.073C327.962 458.073 338.049 453.895 345.486 446.458C352.923 439.021 357.101 428.934 357.101 418.417V299.448C357.101 288.93 352.923 278.844 345.486 271.407C338.049 263.97 327.962 259.792 317.444 259.792Z" fill="#505050"/>
</svg>

