<svg width="1920" height="1327" viewBox="0 0 1920 1327" fill="none" xmlns="http://www.w3.org/2000/svg">
<g filter="url(#filter0_d)">
<path d="M829 656L0 61V1075L829 656Z" fill="#68A8E3"/>
</g>
<g filter="url(#filter1_d)">
<path d="M1920 1075V61L0 1036.5V1215C0 1215 44 1292 185 1301.5C326 1311 400 1138.5 491.5 1138.5C583 1138.5 592.5 1257 715 1283C837.5 1309 854 1126 988.5 1105.5C1123 1085 1386.5 1242.5 1607 1257C1827.5 1271.5 1920 1075 1920 1075Z" fill="#E37068"/>
</g>
<g opacity="0.5">
<path d="M953.661 785.139C951.251 785.139 949.289 787.1 949.289 789.51V1231.03C949.289 1233.44 951.251 1235.4 953.661 1235.4H1263.05C1265.46 1235.4 1267.42 1233.44 1267.42 1231.03V789.51C1267.42 787.1 1265.46 785.139 1263.05 785.139H953.661ZM1263.05 1241.86H953.661C947.685 1241.86 942.827 1237 942.827 1231.03V789.51C942.827 783.535 947.685 778.669 953.661 778.669H1263.05C1269.02 778.669 1273.89 783.535 1273.89 789.51V1231.03C1273.89 1237 1269.02 1241.86 1263.05 1241.86Z" fill="black"/>
<path d="M964.601 1188.78H1251.19V809.87H964.601V1188.78ZM1257.65 1195.25H958.131V803.4H1257.65V1195.25Z" fill="black"/>
<path d="M1255.34 910.747H961.37V904.278H1255.34V910.747Z" fill="black"/>
<path d="M1228.63 846.042H1120.03V836.858H1126.5V839.58H1222.16V836.858H1228.63V846.042Z" fill="black"/>
<path d="M1205.43 868.135H1120.03V858.944H1126.5V861.665H1198.96V858.944H1205.43V868.135Z" fill="black"/>
<path d="M1038.68 853.675L1015.3 877.091L991.917 853.675L1015.3 830.252L1038.68 853.675Z" fill="white"/>
<path d="M996.486 853.675L1015.3 872.514L1034.11 853.675L1015.3 834.829L996.486 853.675ZM1015.3 881.66L987.355 853.675L1015.3 825.675L1043.26 853.675L1015.3 881.66Z" fill="black"/>
<path d="M1684.1 933.562C1681.69 933.562 1679.72 935.524 1679.72 937.934V1232.16C1679.72 1234.57 1681.69 1236.53 1684.1 1236.53H1839.96C1842.37 1236.53 1844.33 1234.57 1844.33 1232.16V937.934C1844.33 935.524 1842.37 933.562 1839.96 933.562H1684.1ZM1839.96 1243H1684.1C1678.12 1243 1673.26 1238.13 1673.26 1232.16V937.934C1673.26 931.966 1678.12 927.1 1684.1 927.1H1839.96C1845.94 927.1 1850.8 931.966 1850.8 937.934V1232.16C1850.8 1238.13 1845.94 1243 1839.96 1243Z" fill="black"/>
<path d="M1694.25 950.318V1204.95L1829.81 1204.71V950.075L1694.25 950.318ZM1687.79 1211.42V943.864L1836.27 943.598V1211.16L1687.79 1211.42Z" fill="black"/>
<path d="M1835.67 1014.24H1688.39V1007.78H1835.67V1014.24Z" fill="black"/>
<path d="M1740.29 1061.51C1740.29 1071.63 1732.07 1079.85 1721.94 1079.85C1711.81 1079.85 1703.6 1071.63 1703.6 1061.51C1703.6 1051.37 1711.81 1043.16 1721.94 1043.16C1732.07 1043.16 1740.29 1051.37 1740.29 1061.51Z" fill="white"/>
<path d="M1721.94 1046.39C1713.61 1046.39 1706.82 1053.17 1706.82 1061.51C1706.82 1069.84 1713.61 1076.61 1721.94 1076.61C1730.27 1076.61 1737.05 1069.84 1737.05 1061.51C1737.05 1053.17 1730.27 1046.39 1721.94 1046.39ZM1721.94 1083.08C1710.03 1083.08 1700.36 1073.4 1700.36 1061.51C1700.36 1049.61 1710.03 1039.92 1721.94 1039.92C1733.84 1039.92 1743.51 1049.61 1743.51 1061.51C1743.51 1073.4 1733.84 1083.08 1721.94 1083.08Z" fill="black"/>
<path d="M1809.73 1053.1H1754.75V1043.88H1761.21V1046.63H1803.28V1043.88H1809.73V1053.1Z" fill="black"/>
<path d="M1820.78 1081.21H1757.98V1074.75H1820.78V1081.21Z" fill="black"/>
<path d="M1740.29 1138.31C1740.29 1148.44 1732.07 1156.65 1721.94 1156.65C1711.81 1156.65 1703.6 1148.44 1703.6 1138.31C1703.6 1128.17 1711.81 1119.96 1721.94 1119.96C1732.07 1119.96 1740.29 1128.17 1740.29 1138.31Z" fill="white"/>
<path d="M1721.94 1123.19C1713.61 1123.19 1706.82 1129.97 1706.82 1138.31C1706.82 1146.64 1713.61 1153.42 1721.94 1153.42C1730.27 1153.42 1737.05 1146.64 1737.05 1138.31C1737.05 1129.97 1730.27 1123.19 1721.94 1123.19ZM1721.94 1159.88C1710.03 1159.88 1700.36 1150.2 1700.36 1138.31C1700.36 1126.41 1710.03 1116.73 1721.94 1116.73C1733.84 1116.73 1743.51 1126.41 1743.51 1138.31C1743.51 1150.2 1733.84 1159.88 1721.94 1159.88Z" fill="black"/>
<path d="M1809.73 1129.9H1754.75V1120.68H1761.21V1123.44H1803.28V1120.68H1809.73V1129.9Z" fill="black"/>
<path d="M1820.78 1158.02H1757.98V1151.55H1820.78V1158.02Z" fill="black"/>
<path d="M1771.51 978.159L1758.31 991.38L1745.11 978.159L1758.31 964.938L1771.51 978.159Z" fill="white"/>
<path d="M1749.68 978.159L1758.32 986.803L1766.94 978.159L1758.32 969.515L1749.68 978.159ZM1758.32 995.964L1740.55 978.159L1758.32 960.361L1776.08 978.159L1758.32 995.964Z" fill="black"/>
<path d="M1598.56 1101.42V1210.09H1363.61V1101.42H1598.56Z" fill="white"/>
<path d="M1601.79 1213.32H1360.38V1101.42H1366.85V1206.86H1595.33V1101.42H1601.79V1213.32Z" fill="black"/>
<path d="M1598.56 1182.65H1363.61V1176.18H1598.56V1182.65Z" fill="black"/>
<path d="M1270.66 1104.69L1270.65 1098.23L1678.48 1097.18L1678.5 1103.65L1270.66 1104.69Z" fill="black"/>
<path d="M1832.41 930.331L1832.37 614.477L1149.38 616.218V781.908H1142.91V609.764L1838.84 608L1838.87 930.331H1832.41Z" fill="black"/>
<path d="M1491.74 1064.74C1487.14 1064.74 1483.4 1068.48 1483.4 1073.09C1483.4 1077.7 1487.14 1081.44 1491.74 1081.44C1496.36 1081.44 1500.11 1077.7 1500.11 1073.09C1500.11 1068.48 1496.36 1064.74 1491.74 1064.74ZM1491.74 1087.91C1483.58 1087.91 1476.93 1081.26 1476.93 1073.09C1476.93 1064.92 1483.58 1058.27 1491.74 1058.27C1499.92 1058.27 1506.56 1064.92 1506.56 1073.09C1506.56 1081.26 1499.92 1087.91 1491.74 1087.91Z" fill="black"/>
<path d="M1346.89 812.941C1346.89 829.302 1333.63 842.568 1317.27 842.568C1300.91 842.568 1287.64 829.302 1287.64 812.941C1287.64 796.58 1300.91 783.314 1317.27 783.314C1333.63 783.314 1346.89 796.58 1346.89 812.941Z" fill="white"/>
<path d="M1317.27 786.553C1302.72 786.553 1290.87 798.39 1290.87 812.941C1290.87 827.5 1302.72 839.337 1317.27 839.337C1331.83 839.337 1343.66 827.5 1343.66 812.941C1343.66 798.39 1331.83 786.553 1317.27 786.553ZM1317.27 845.807C1299.15 845.807 1284.41 831.065 1284.41 812.941C1284.41 794.824 1299.15 780.083 1317.27 780.083C1335.38 780.083 1350.12 794.824 1350.12 812.941C1350.12 831.065 1335.38 845.807 1317.27 845.807Z" fill="black"/>
<path d="M1520.51 812.941C1520.51 829.302 1507.25 842.568 1490.88 842.568C1474.52 842.568 1461.26 829.302 1461.26 812.941C1461.26 796.58 1474.52 783.314 1490.88 783.314C1507.25 783.314 1520.51 796.58 1520.51 812.941Z" fill="white"/>
<path d="M1490.88 786.553C1476.33 786.553 1464.49 798.39 1464.49 812.941C1464.49 827.5 1476.33 839.337 1490.88 839.337C1505.44 839.337 1517.29 827.5 1517.29 812.941C1517.29 798.39 1505.44 786.553 1490.88 786.553ZM1490.88 845.807C1472.77 845.807 1458.03 831.065 1458.03 812.941C1458.03 794.824 1472.77 780.083 1490.88 780.083C1509.01 780.083 1523.74 794.824 1523.74 812.941C1523.74 831.065 1509.01 845.807 1490.88 845.807Z" fill="black"/>
<path d="M1694.14 812.941C1694.14 829.302 1680.87 842.568 1664.51 842.568C1648.14 842.568 1634.88 829.302 1634.88 812.941C1634.88 796.58 1648.14 783.314 1664.51 783.314C1680.87 783.314 1694.14 796.58 1694.14 812.941Z" fill="white"/>
<path d="M1664.51 786.553C1649.95 786.553 1638.11 798.39 1638.11 812.941C1638.11 827.5 1649.95 839.337 1664.51 839.337C1679.06 839.337 1690.91 827.5 1690.91 812.941C1690.91 798.39 1679.06 786.553 1664.51 786.553ZM1664.51 845.807C1646.39 845.807 1631.65 831.065 1631.65 812.941C1631.65 794.824 1646.39 780.083 1664.51 780.083C1682.63 780.083 1697.36 794.824 1697.36 812.941C1697.36 831.065 1682.63 845.807 1664.51 845.807Z" fill="black"/>
<path d="M1335.25 716.176L1307.49 743.948L1279.72 716.176L1307.49 688.412L1335.25 716.176Z" fill="white"/>
<path d="M1284.29 716.176L1307.49 739.371L1330.68 716.176L1307.49 692.981L1284.29 716.176ZM1307.49 748.517L1275.15 716.176L1307.49 683.843L1339.82 716.176L1307.49 748.517Z" fill="black"/>
<path d="M1463.67 990.406H1287.64V913.735H1463.67V990.406Z" fill="white"/>
<path d="M1290.87 987.168H1460.44V916.966H1290.87V987.168ZM1466.9 993.638H1284.41V910.504H1466.9V993.638Z" fill="black"/>
<path d="M1676.49 1025.5H1270.66V1019.04H1676.49V1025.5Z" fill="black"/>
<path d="M1815.47 930.331H1809.01V644.013H1175.85V781.908H1169.38V637.543H1815.47V930.331Z" fill="black"/>
<path d="M1812.24 763.844H1172.62V757.382H1812.24V763.844Z" fill="black"/>
<path d="M1812.24 674.978H1172.62V668.516H1812.24V674.978Z" fill="black"/>
<path d="M1652.09 868.242H1331.4V857.446H1337.87V861.772H1645.63V857.446H1652.09V868.242Z" fill="black"/>
<path d="M1617.92 890.388H1365.57V879.554H1372.04V883.926H1611.46V879.554H1617.92V890.388Z" fill="black"/>
<path d="M1700.45 719.415H1544.25V708.27H1550.7V712.945H1693.99V708.27H1700.45V719.415Z" fill="black"/>
<path d="M1675.85 952.143H1490.43V945.673H1675.85V952.143Z" fill="black"/>
<path d="M1675.85 978.265H1490.43V971.803H1675.85V978.265Z" fill="black"/>
<path d="M1676.49 1048.18H1270.66V1041.71H1676.49V1048.18Z" fill="black"/>
<path d="M1134.27 1219.55H1077.36V1213.09H1134.27V1219.55Z" fill="black"/>
</g>
<defs>
<filter id="filter0_d" x="-45" y="0" width="919" height="1104" filterUnits="userSpaceOnUse" color-interpolation-filters="sRGB">
<feFlood flood-opacity="0" result="BackgroundImageFix"/>
<feColorMatrix in="SourceAlpha" type="matrix" values="0 0 0 0 0 0 0 0 0 0 0 0 0 0 0 0 0 0 127 0"/>
<feOffset dy="-16"/>
<feGaussianBlur stdDeviation="22.5"/>
<feColorMatrix type="matrix" values="0 0 0 0 0 0 0 0 0 0 0 0 0 0 0 0 0 0 0.25 0"/>
<feBlend mode="normal" in2="BackgroundImageFix" result="effect1_dropShadow"/>
<feBlend mode="normal" in="SourceGraphic" in2="effect1_dropShadow" result="shape"/>
</filter>
<filter id="filter1_d" x="-38" y="10" width="1996" height="1316.88" filterUnits="userSpaceOnUse" color-interpolation-filters="sRGB">
<feFlood flood-opacity="0" result="BackgroundImageFix"/>
<feColorMatrix in="SourceAlpha" type="matrix" values="0 0 0 0 0 0 0 0 0 0 0 0 0 0 0 0 0 0 127 0"/>
<feOffset dy="-13"/>
<feGaussianBlur stdDeviation="19"/>
<feColorMatrix type="matrix" values="0 0 0 0 0 0 0 0 0 0 0 0 0 0 0 0 0 0 0.25 0"/>
<feBlend mode="normal" in2="BackgroundImageFix" result="effect1_dropShadow"/>
<feBlend mode="normal" in="SourceGraphic" in2="effect1_dropShadow" result="shape"/>
</filter>
</defs>
</svg>
