<svg width="44" height="44" viewBox="0 0 44 44" fill="none" xmlns="http://www.w3.org/2000/svg">
<path fill-rule="evenodd" clip-rule="evenodd" d="M21.9999 1.44824C26.4417 1.44824 30.7446 1.86403 34.77 2.55704C38.2401 3.18072 40.8774 5.81413 41.502 9.27912C42.196 13.2985 42.543 17.5258 42.543 22.0303C42.543 26.4655 42.196 30.7621 41.502 34.7814C40.8774 38.2464 38.2401 40.8105 34.77 41.4342C30.7446 42.1272 26.4417 42.543 21.9999 42.543C17.5582 42.543 13.2552 42.1272 9.22986 41.4342C5.75974 40.8105 3.19186 38.2464 2.56723 34.7814C1.80381 30.7621 1.45679 26.4655 1.45679 22.0303C1.45679 17.5258 1.8038 13.2985 2.56723 9.27912C3.19186 5.81413 5.75974 3.18072 9.22986 2.55704C13.2552 1.86403 17.5582 1.44824 21.9999 1.44824Z" fill="#45BBFF"/>
<path d="M21.9994 44C17.7112 44 13.3321 43.618 8.98171 42.8684C4.8752 42.1306 1.87094 39.132 1.13213 35.0399C0.381366 31.0839 0 26.703 0 22.0307C0 17.2917 0.370603 13.0325 1.13452 9.00723C1.86736 4.94619 4.94454 1.84728 8.97215 1.12389C17.704 -0.375429 26.3068 -0.373035 35.0171 1.1215C39.0997 1.85445 42.2044 4.95574 42.936 9.02155C43.0843 10.0458 43.2241 11.0222 43.3628 12.0655C43.4692 12.8629 42.9097 13.5959 42.1111 13.7009C41.3185 13.8227 40.5797 13.2497 40.4745 12.4523C40.3358 11.4186 40.1983 10.4516 40.0585 9.48711C39.5528 6.67948 37.3722 4.50213 34.5114 3.98883C26.1502 2.55158 17.8606 2.5492 9.47786 3.99121C6.62781 4.50212 4.52614 6.62934 4.00132 9.53724C3.26968 13.393 2.91461 17.4755 2.91461 22.0307C2.91461 26.5215 3.27924 30.721 3.99892 34.5123C4.51776 37.3868 6.62063 39.4853 9.48861 40.001C17.8415 41.443 26.1513 41.4454 34.521 39.9986C37.4236 39.4782 39.5528 37.3796 40.0668 34.5242C40.7423 30.616 41.0854 26.4093 41.0854 22.0307V20.9206C41.0854 20.116 41.7381 19.4642 42.5427 19.4642C43.3473 19.4642 44 20.116 44 20.9206V22.0307C44 26.574 43.6425 30.9478 42.9372 35.0304C42.2115 39.0604 39.1069 42.133 35.0278 42.866C30.6679 43.618 26.2876 44 21.9994 44Z" fill="#444B54"/>
<path d="M42.4016 18.2895C41.6891 18.2895 41.0651 17.7643 40.9611 17.0385L40.8917 16.5538C40.7782 15.7588 41.3317 15.0211 42.1291 14.9089C42.9181 14.78 43.6641 15.3482 43.7776 16.1432L43.847 16.6279C43.9605 17.4229 43.407 18.1606 42.6096 18.2728C42.5403 18.2847 42.471 18.2895 42.4016 18.2895Z" fill="#444B54"/>
<path d="M17.0035 31.941H9.29971C8.49515 31.941 7.84241 31.2892 7.84241 30.4846V21.1282C7.84241 20.3236 8.49515 19.6719 9.29971 19.6719H17.0035C19.9121 19.6719 22.2779 22.0354 22.2779 24.941V26.6742C22.2779 29.5774 19.9121 31.941 17.0035 31.941ZM10.757 29.0283H17.0035C18.3041 29.0283 19.3633 27.973 19.3633 26.6743V24.941C19.3633 23.6637 18.2826 22.5846 17.0035 22.5846H10.757V29.0283V29.0283Z" fill="white"/>
<path d="M15.1983 22.5846C14.3937 22.5846 13.741 21.9328 13.741 21.1283C13.741 20.3237 14.3937 19.6719 15.1983 19.6719C16.1331 19.6719 16.8648 18.9438 16.8648 18.0103V16.6255C16.8648 15.6921 16.1331 14.9615 15.1983 14.9615H10.757V16.764C10.757 17.5686 10.1043 18.2204 9.29972 18.2204C8.49516 18.2204 7.84242 17.5686 7.84242 16.764V13.5052C7.84242 12.7006 8.49516 12.0488 9.29972 12.0488H15.1983C17.7243 12.0488 19.7794 14.102 19.7794 16.6256V18.0103C19.7794 20.5314 17.7243 22.5846 15.1983 22.5846Z" fill="white"/>
<path d="M30.051 31.9411C26.6833 31.9411 23.9433 29.205 23.9433 25.8411C23.9433 22.4772 26.6833 19.7412 30.051 19.7412C33.457 19.7412 36.2269 22.4772 36.2269 25.8411C36.2269 26.6457 35.5742 27.2975 34.7696 27.2975C33.9651 27.2975 33.3123 26.6457 33.3123 25.8411C33.3123 24.0529 31.8801 22.6539 30.051 22.6539C28.2901 22.6539 26.8579 24.084 26.8579 25.8411C26.8579 27.5983 28.2901 29.0284 30.051 29.0284C30.6416 29.0284 31.2118 28.8827 31.6602 28.613C32.3488 28.1999 33.2466 28.4244 33.659 29.1119C34.0739 29.8019 33.8503 30.6948 33.1593 31.1102C32.2531 31.6522 31.1772 31.9411 30.051 31.9411Z" fill="white"/>
<path d="M34.7696 27.2974H30.051C29.2465 27.2974 28.5937 26.6457 28.5937 25.8411C28.5937 25.0365 29.2465 24.3848 30.051 24.3848H34.7696C35.5742 24.3848 36.2269 25.0365 36.2269 25.8411C36.2269 26.6457 35.5742 27.2974 34.7696 27.2974Z" fill="white"/>
<path d="M32.6189 18.2203H27.5524C26.7479 18.2203 26.0951 17.5685 26.0951 16.764C26.0951 15.9594 26.7479 15.3076 27.5524 15.3076H32.6189C33.4235 15.3076 34.0762 15.9594 34.0762 16.764C34.0762 17.5685 33.4235 18.2203 32.6189 18.2203Z" fill="white"/>
</svg>
