<svg width="45" height="45" viewBox="0 0 45 45" fill="none" xmlns="http://www.w3.org/2000/svg">
<path d="M6.48181 21.6851C7.15679 20.9121 7.83176 20.2796 8.50674 19.858L8.97922 19.3661C13.2991 15.2901 20.0488 15.6415 24.0312 20.1391C25.6511 21.9662 26.5286 24.215 26.7311 26.4638C28.621 26.5341 30.4435 25.9719 32.0634 24.7772C31.5909 21.6851 30.3085 18.7336 28.1485 16.2739C22.1413 9.38698 11.9491 8.82478 5.33435 15.0793C-1.28041 21.3338 -1.82039 31.9453 4.1869 38.8323L4.99687 39.6756C1.82448 34.1238 2.22947 26.8152 6.48181 21.6851V21.6851Z" fill="#FFA131"/>
<path d="M27.4735 40.3076C28.8235 39.0427 29.9035 37.5669 30.7809 36.0208C28.486 36.4425 26.1911 36.4425 23.9637 35.9505L23.8287 36.0911C19.4413 40.1671 12.7591 39.8157 8.77672 35.3181C4.99686 30.961 5.19935 24.2146 9.04671 20.0684C8.37174 20.49 7.62926 21.1225 7.02179 21.9658C2.70194 27.0256 2.29696 34.2639 5.46934 39.886C11.5441 45.9296 21.1288 46.281 27.4735 40.3076Z" fill="#FFA131"/>
<path d="M37.5307 23.3713C36.8557 24.1443 36.1807 24.7768 35.5057 25.1985L35.0333 25.6904C30.7134 29.7663 23.9637 29.415 19.9813 24.9174C18.3614 23.0902 17.4839 20.8414 17.2814 18.5926C15.3915 18.5223 13.569 19.0845 11.9491 20.2792C12.4216 23.3713 13.704 26.3229 15.864 28.7825C21.8712 35.6695 32.0634 36.2317 38.6781 29.9772C45.2929 23.7227 45.8329 13.1111 39.8256 6.22416L39.0156 5.38086C42.2555 10.9326 41.783 18.1709 37.5307 23.3713V23.3713Z" fill="#FFA131"/>
<path d="M16.5389 4.88907C15.189 6.15402 14.109 7.6298 13.2316 9.17585C15.5265 8.7542 17.8214 8.7542 20.0488 9.24613L20.1838 9.10558C24.5712 5.02962 31.2534 5.38099 35.2358 9.8786C39.0156 14.2357 38.8131 20.9821 34.9658 25.1283C35.6408 24.7067 36.3832 24.0742 36.9907 23.2309C41.2431 18.0305 41.648 10.8625 38.5432 5.24044C32.4684 -0.732946 22.8837 -1.01405 16.5389 4.88907V4.88907Z" fill="#FFA131"/>
</svg>

