<svg width="33" height="34" viewBox="0 0 33 34" fill="none" xmlns="http://www.w3.org/2000/svg">
<path d="M13.0349 0.104713C12.4017 0.261989 11.8271 0.590415 11.3774 1.05209C10.9276 1.51377 10.6211 2.08988 10.4931 2.71395L9.01961 9.91593L2.09421 12.8177C1.50068 13.0667 0.99048 13.4724 0.62125 13.989C0.25202 14.5055 0.0384714 15.1124 0.00472775 15.7409C-0.0290159 16.3694 0.11839 16.9946 0.430294 17.5459C0.742197 18.0971 1.20617 18.5524 1.7698 18.8604L8.3457 22.4501L9.03736 29.7615C9.09656 30.3885 9.33472 30.987 9.72492 31.4891C10.1151 31.9912 10.6418 32.377 11.2454 32.6028C11.849 32.8287 12.5054 32.8855 13.1404 32.767C13.7755 32.6485 14.3638 32.3593 14.8389 31.9321L20.3789 26.9493L27.7324 28.5676C28.3631 28.7062 29.0211 28.6702 29.6319 28.4636C30.2427 28.257 30.782 27.8881 31.1888 27.3986C31.5956 26.9091 31.8536 26.3186 31.9337 25.6937C32.0139 25.0689 31.9129 24.4346 31.6422 23.8628L28.4874 17.1941L32.3419 10.8826C32.6717 10.3414 32.8396 9.72125 32.8266 9.09208C32.8136 8.46291 32.6202 7.84982 32.2682 7.32204C31.9163 6.79426 31.4199 6.37283 30.835 6.10532C30.2501 5.83782 29.6001 5.73491 28.9583 5.80821L21.4677 6.6683L16.4966 1.14782C16.0745 0.679808 15.5276 0.334693 14.9166 0.150691C14.3055 -0.033312 13.6546 -0.0496086 13.0349 0.104713Z" fill="#575757"/>
<path d="M13.7208 0.00417459C13.4889 0.0152455 13.2587 0.0489853 13.0338 0.104886C12.4011 0.262467 11.8271 0.590918 11.3778 1.05239C10.9285 1.51386 10.6222 2.08957 10.4943 2.71318L9.01985 9.91715L2.09516 12.8189C1.50159 13.0679 0.991332 13.4735 0.622035 13.99C0.252738 14.5066 0.0391146 15.1134 0.00529755 15.7419C-0.0285195 16.3704 0.118817 16.9957 0.430664 17.5469C0.74251 18.0982 1.20644 18.5536 1.77004 18.8616L8.34653 22.4492L9.03814 29.7616C9.09764 30.3884 9.33592 30.9864 9.72606 31.4882C10.1162 31.99 10.6427 32.3755 11.246 32.6013C11.8493 32.827 12.5053 32.8839 13.1401 32.7656C13.7749 32.6473 14.363 32.3585 14.8381 31.9318L20.3802 26.949L27.7325 28.5681C28.3632 28.7065 29.021 28.6703 29.6317 28.4636C30.2424 28.257 30.7815 27.888 31.1882 27.3986C31.5948 26.9091 31.8528 26.3186 31.9329 25.6939C32.0129 25.0691 31.912 24.435 31.6413 23.8632L28.4887 17.1944L32.3425 10.8832C32.673 10.3419 32.8414 9.7214 32.8286 9.09177C32.8159 8.46213 32.6225 7.84853 32.2703 7.32036C31.9182 6.79219 31.4213 6.37051 30.8358 6.10302C30.2504 5.83554 29.5998 5.73291 28.9577 5.80674L21.4682 6.66777L16.4959 1.14682C16.1515 0.765206 15.7231 0.46425 15.2426 0.2664C14.762 0.0685495 14.2419 -0.0210875 13.7208 0.00417459ZM13.8861 3.50316L13.8908 3.50773C13.8908 3.50797 13.885 3.51465 13.8861 3.51453C13.8967 3.51536 13.9061 3.52509 13.8861 3.50316ZM13.9154 3.53517L18.8549 9.02177C19.2302 9.43847 19.6997 9.7594 20.2243 9.95778C20.7488 10.1562 21.3132 10.2262 21.8703 10.1622L29.1734 9.32179L25.4861 15.3607C25.1819 15.8587 25.0063 16.4245 24.9752 17.0072C24.9441 17.5898 25.0584 18.1711 25.3079 18.6986L28.3374 25.0989L21.1352 23.5149C20.5891 23.3946 20.0222 23.4061 19.4815 23.5486C18.9407 23.6912 18.4418 23.9606 18.026 24.3345L12.5261 29.2833L11.8473 22.1198C11.7933 21.5469 11.5996 20.9961 11.2831 20.5155C10.9667 20.035 10.5372 19.6394 10.0324 19.3634L3.75308 15.9352L10.3782 13.1601C10.9065 12.9391 11.3728 12.5925 11.7367 12.1503C12.1006 11.7082 12.3511 11.1839 12.4663 10.623L13.9154 3.53517Z" fill="#E4E4E4"/>
<path opacity="0.2" d="M13.7208 0.00417459C13.4889 0.0152455 13.2587 0.0489853 13.0337 0.104886C12.4011 0.262467 11.8271 0.590918 11.3778 1.05239C10.9285 1.51386 10.6222 2.08957 10.4943 2.71318L9.01981 9.91715L2.09511 12.8189C1.38039 13.1195 0.790408 13.6457 0.420276 14.3127C0.0501435 14.9797 -0.0785797 15.7487 0.0548552 16.4956C0.155897 15.9465 0.395146 15.4303 0.751196 14.9933C1.10725 14.5563 1.56899 14.212 2.09511 13.9913L9.01981 11.0896L10.4943 3.88561C10.6222 3.262 10.9285 2.68629 11.3778 2.22482C11.8271 1.76334 12.4011 1.43489 13.0337 1.27731C13.6533 1.12292 14.3047 1.13854 14.9158 1.32244C15.5269 1.50634 16.0737 1.85134 16.4959 2.31925L21.4682 7.8402L28.9576 6.97917C29.8349 6.87901 30.7184 7.10889 31.4274 7.62183C32.1365 8.13477 32.6177 8.89206 32.7727 9.73894C32.8654 9.22141 32.8328 8.68994 32.6774 8.18684C32.522 7.68375 32.2482 7.22293 31.8777 6.84107C31.5072 6.45922 31.0503 6.16687 30.5434 5.9873C30.0364 5.80773 29.4934 5.74591 28.9576 5.80674L21.4682 6.66777L16.4959 1.14682C16.1515 0.765206 15.723 0.46425 15.2425 0.2664C14.762 0.0685495 14.2418 -0.0210875 13.7208 0.00417459ZM28.7993 17.8555L28.4886 18.3667L31.6413 25.0355C31.7655 25.2996 31.8542 25.5782 31.9051 25.8644C32.0288 25.1867 31.9367 24.4883 31.6413 23.863L28.7993 17.8555Z" fill="white"/>
<path opacity="0.2" d="M32.7727 9.74002C32.7018 10.1437 32.556 10.5315 32.3425 10.8843L28.4886 17.1952L28.8 17.857L32.3425 12.0567C32.7671 11.3596 32.9199 10.537 32.773 9.73926L32.7727 9.74002ZM0.0550234 16.4975C-0.0718768 17.1877 0.0250933 17.8992 0.332462 18.5332C0.63983 19.1673 1.14233 19.6923 1.77017 20.0354L8.34677 23.6237L9.03831 30.9353C9.09764 31.5621 9.33582 32.1603 9.72593 32.6623C10.116 33.1642 10.6425 33.5499 11.2459 33.7757C11.8493 34.0016 12.5055 34.0585 13.1404 33.9402C13.7753 33.8219 14.3635 33.533 14.8387 33.1061L20.3802 28.1233L27.7331 29.7423C28.2897 29.864 28.8686 29.85 29.4183 29.7015C29.9681 29.5531 30.4716 29.2747 30.8844 28.8912C31.2971 28.5077 31.6063 28.0308 31.7844 27.503C31.9625 26.9752 32.004 26.4128 31.9053 25.8656C31.8236 26.3148 31.6493 26.7432 31.3928 27.125C31.1363 27.5067 30.803 27.8339 30.4131 28.0867C30.0231 28.3394 29.5845 28.5126 29.1239 28.5956C28.6633 28.6787 28.1902 28.6699 27.7331 28.5699L20.3802 26.9509L14.8387 31.9337C14.3634 32.3605 13.7751 32.6493 13.1401 32.7675C12.5051 32.8857 11.8489 32.8286 11.2455 32.6026C10.6421 32.3766 10.1157 31.9907 9.72573 31.4886C9.33575 30.9865 9.09776 30.3881 9.03867 29.7612L8.34705 22.4488L1.77056 18.8611C1.32229 18.6155 0.935805 18.2757 0.639142 17.8665C0.342479 17.4572 0.143083 16.9888 0.055422 16.4952L0.0550234 16.4975Z" fill="black"/>
</svg>

