<svg width="22" height="34" viewBox="0 0 22 34" fill="none" xmlns="http://www.w3.org/2000/svg">
<path d="M20.431 30.231C19.9561 32.7168 17.6275 32.784 15.5597 32.8035C12.2414 32.8341 8.91689 33.1517 5.59888 32.9572C4.26193 32.8789 2.68364 32.5362 2.05382 31.1762C1.67313 30.3544 1.72705 29.2175 1.67703 28.3321C1.52632 25.6884 1.57926 23.0346 1.58803 20.3883C1.65754 17.4367 1.63578 14.4874 1.51494 11.5377C1.44998 9.9604 1.48019 8.39542 1.63253 6.82331C1.80793 5.01277 1.82482 2.25767 3.84649 1.46252C5.17662 0.93956 7.06608 1.12244 8.49138 1.07241C9.95695 1.02142 11.4232 1.00419 12.8891 1.05162C14.2696 1.09579 15.7709 1.08735 17.1088 1.45374C19.2389 2.03679 19.7398 3.5303 19.8652 5.57308C20.2715 12.1994 20.534 18.8565 20.5363 25.4958C20.5369 27.0169 20.7172 28.7336 20.431 30.231ZM21.5101 25.1742C21.5058 22.9239 21.4643 20.6735 21.3977 18.4242C21.2717 14.1405 21.0963 9.85126 20.8396 5.57308C20.6613 2.60457 19.5206 0.808652 16.4348 0.336043C12.9817 -0.192436 9.33851 0.00961031 5.86685 0.219767C4.30805 0.314289 2.71904 0.466298 1.7748 1.87243C0.850368 3.24901 0.812038 5.2252 0.658075 6.82331C0.226717 11.3087 0.719792 15.8825 0.613577 20.3883C0.603832 23.351 0.50606 26.3416 0.770137 29.2965C0.935145 31.1427 1.32136 32.5589 3.09616 33.498C4.32592 34.1492 6.20629 33.9764 7.52667 33.9862C9.8842 34.0037 12.2381 33.8455 14.5944 33.7932C17.2796 33.7341 20.8695 33.8598 21.3987 30.4301C21.6605 28.7332 21.5133 26.886 21.5101 25.1742Z" fill="#575757"/>
<path d="M9.06275 3.49943C10.3562 3.43707 11.6496 3.4075 12.9446 3.40913C13.4147 3.40978 13.4156 2.67894 12.9446 2.67829C11.6496 2.67666 10.3562 2.70623 9.06275 2.76859C8.59436 2.79068 8.59176 3.52184 9.06275 3.49943Z" fill="#575757"/>
<path d="M14.5626 3.33409C14.5697 3.32694 14.5772 3.31948 14.5846 3.312C14.9176 2.97907 14.4008 2.46196 14.0679 2.79522C14.0604 2.80269 14.0529 2.81016 14.0454 2.8173C13.7125 3.15057 14.2293 3.66735 14.5626 3.33409Z" fill="#575757"/>
<path d="M16.0405 3.35614C16.048 3.34899 16.0554 3.34152 16.0626 3.33405C16.3958 3.00144 15.8791 2.48433 15.5458 2.81726C15.5383 2.82506 15.5312 2.83221 15.5237 2.83968C15.1908 3.17262 15.7072 3.68972 16.0405 3.35614Z" fill="#575757"/>
<path d="M12.994 31.3658C12.6711 31.7387 11.3488 31.6569 10.8713 31.663C10.5338 31.6673 9.12899 31.7303 9.0205 31.487C8.60181 30.5509 10.9379 30.7328 11.2884 30.7364C11.6112 30.7321 13.6634 30.5938 12.994 31.3658ZM11.2884 30.0055C10.2691 29.9945 8.29064 29.7658 8.16266 31.2203C8.04442 32.5625 10.2035 32.4147 11.0363 32.3884C11.8347 32.3634 13.8064 32.4618 13.8613 31.282C13.9317 29.7622 12.3031 29.9915 11.2884 30.0055Z" fill="#575757"/>
<path d="M11.0633 28.6877C8.33188 28.8329 5.60698 28.7443 2.87527 28.8001C2.77522 24.8435 2.99448 20.895 3.07698 16.9404C3.15429 13.2258 2.79958 9.51019 2.99415 5.80045C8.22144 5.86671 13.4484 5.65265 18.6715 5.60068C19.022 13.2758 18.9788 20.9749 19.3309 28.6514C16.5719 28.7059 13.8232 28.5409 11.0633 28.6877ZM19.3529 5.09429V5.09396C19.3464 5.07935 19.3383 5.06733 19.3305 5.05466C19.2782 4.94715 19.1785 4.86432 19.022 4.86562C13.5657 4.91141 8.10548 5.14951 2.64497 5.06668C2.47964 5.06409 2.3757 5.1547 2.32665 5.27131C2.32405 5.27586 2.32145 5.27976 2.31918 5.28431C2.31463 5.29535 2.31301 5.30672 2.31008 5.31809C2.29644 5.35382 2.28215 5.38858 2.27955 5.4321C2.03951 9.26398 2.42604 13.103 2.34614 16.9404C2.26104 21.0191 2.02749 25.0907 2.1519 29.172C2.15385 29.2438 2.17626 29.3004 2.20647 29.3504C2.25811 29.4589 2.35848 29.5417 2.51732 29.5375C5.36889 29.4654 8.21267 29.5758 11.0633 29.4186C13.9499 29.2591 16.8242 29.4553 19.7112 29.376C19.7746 29.3741 19.8278 29.3575 19.874 29.3335C19.9935 29.2864 20.0848 29.1802 20.0766 29.0106C19.6998 21.0919 19.7622 13.1485 19.3874 5.23104C19.3848 5.17906 19.3708 5.13489 19.3529 5.09429Z" fill="#575757"/>
<path d="M6.45672 7.70162C5.75252 8.28077 5.16849 8.98075 4.71765 9.7733C4.48475 10.1826 5.11587 10.5516 5.34844 10.1423C5.77103 9.39944 6.31413 8.76085 6.97351 8.21841C7.33698 7.91925 6.8176 7.40506 6.45672 7.70162Z" fill="#575757"/>
<path d="M8.04476 7.95796C7.60268 8.47767 7.16061 8.99705 6.71853 9.51611C6.41515 9.87244 6.92966 10.3918 7.23532 10.0332C7.67739 9.5135 8.11947 8.99444 8.56155 8.47474C8.86493 8.11841 8.35041 7.59936 8.04476 7.95796Z" fill="#575757"/>
</svg>

