<svg width="33" height="26" viewBox="0 0 33 26" fill="none" xmlns="http://www.w3.org/2000/svg">
<path d="M31.6243 19.462C31.582 20.8196 31.6154 22.1964 31.505 23.5511C31.4253 24.534 31.0223 24.4903 30.1181 24.6382C29.1858 24.791 28.2449 24.9081 27.2997 24.9292C23.8253 25.0073 20.3113 24.8469 16.8297 24.8538C12.713 24.8621 8.5976 24.7424 4.4832 24.6173C3.19483 24.5783 1.19962 24.7546 1.11929 23.0944C1.07366 22.1597 1.08821 21.2155 1.05945 20.2796C0.998284 18.2678 0.939764 16.2599 1.06473 14.2491C1.24723 11.2898 1.15202 8.30828 1.31468 5.34565C11.3932 5.04568 21.4774 5.07842 31.5533 5.4442C31.5645 6.84516 31.5 8.2481 31.4928 9.64839C31.4752 12.9262 31.7265 16.1819 31.6243 19.462ZM2.91382 1.28202C3.33204 1.24233 3.75223 1.23208 4.17144 1.2043C5.89787 1.08921 7.61901 1.00785 9.35006 0.994953C13.0631 0.967833 16.7778 1.01116 20.4908 1.02737C22.0873 1.03431 23.6842 1.04159 25.2803 1.04787C26.9644 1.05482 28.793 0.846789 30.459 1.06573C31.2405 1.16859 31.2759 1.23275 31.4161 2.03013C31.545 2.76334 31.4994 3.62686 31.5315 4.37265C31.5361 4.48146 31.5348 4.5906 31.5381 4.69974C21.4823 4.33495 11.419 4.30188 1.36129 4.60052C1.40162 4.03234 1.44989 3.46514 1.51667 2.89927C1.6433 1.83003 1.84332 1.38388 2.91382 1.28202ZM32.512 12.1146C32.4598 10.4186 32.4909 8.72169 32.5256 7.02573C32.5477 5.94261 32.5507 4.86973 32.4932 3.7876C32.4472 2.92441 32.5993 1.82408 32.3656 0.992308C32.1302 0.154911 31.4845 0.114563 30.7119 0.0778526C28.7071 -0.0180577 26.6818 0.0616454 24.6743 0.0533773C20.1936 0.0345259 15.7129 0.0070772 11.2325 0.000131963C8.873 -0.00317529 6.52569 0.0553602 4.17144 0.212124C3.32344 0.268347 1.90646 0.104641 1.21483 0.697963C0.754297 1.09285 0.698093 1.71924 0.600564 2.27056C0.382364 3.50483 0.352273 4.79499 0.302021 6.04513C0.191929 8.77957 0.241523 11.5167 0.0729133 14.2491C-0.0642884 16.461 0.0226662 18.6676 0.0864733 20.8802C0.122179 22.1194 -0.273894 24.1209 0.776774 25.0526C1.86017 26.0127 4.15326 25.5999 5.43799 25.6383C7.80348 25.7097 10.1693 25.7769 12.5355 25.8139C16.9709 25.8837 21.4 25.724 25.8315 25.8966C27.5268 25.9624 29.3904 25.8953 31.0643 25.6079C32.0598 25.4369 32.3692 24.8416 32.4691 23.8984C32.8823 20.0054 32.631 16.0139 32.512 12.1146Z" fill="#575757"/>
<path d="M3.34097 2.99447C3.39122 2.81191 3.53438 2.53145 3.75324 2.53608C3.95491 2.54468 4.08748 2.63662 4.14699 2.82183C4.24584 3.12775 4.0693 3.19853 3.78994 3.25012C3.65902 3.27426 3.54859 3.27294 3.42428 3.21771C3.29468 3.16016 3.30229 3.13536 3.34097 2.99447ZM3.78333 3.99987C4.38999 3.92778 5.02574 3.57754 4.92061 2.87243C4.82738 2.24405 4.40024 1.8194 3.75324 1.79195C3.135 1.77905 2.68305 2.38693 2.58784 2.95081C2.46915 3.65162 3.14591 4.07561 3.78333 3.99987Z" fill="#575757"/>
<path d="M6.50453 2.72526C6.55544 2.50036 6.8391 2.41272 7.03978 2.42331C7.28344 2.42827 7.45139 2.55394 7.41668 2.80298C7.37799 3.07913 7.20343 3.26864 6.90919 3.2187C6.68703 3.18133 6.448 2.97595 6.50453 2.72526ZM6.90192 3.96415C7.59156 4.02137 8.07954 3.51536 8.1536 2.85722C8.2303 2.17493 7.70661 1.6934 7.03978 1.67918C6.44006 1.64809 5.79306 2.08365 5.76 2.71699C5.72529 3.38042 6.25757 3.91057 6.90192 3.96415Z" fill="#575757"/>
<path d="M10.1819 2.32317C10.7191 2.30167 10.8011 3.06531 10.2642 3.16321C10.052 3.2019 9.72797 3.11294 9.71144 2.87647C9.69392 2.62015 9.92765 2.33342 10.1819 2.32317ZM10.2526 3.91065C10.8639 3.87261 11.3929 3.35139 11.3936 2.72764C11.3942 2.10522 10.7955 1.55456 10.1819 1.57903C9.51406 1.60582 9.01617 2.16706 8.9722 2.82422C8.92492 3.52965 9.59903 3.951 10.2526 3.91065Z" fill="#575757"/>
<path d="M6.77892 15.6917C7.32971 16.3789 8.53543 16.8651 9.22871 17.4336C9.7719 17.8794 10.2744 18.3653 10.7793 18.8531C10.9829 19.0499 11.6071 19.4477 11.6924 19.7318C12.1099 21.1245 10.9892 21.0253 10.3022 20.7988C10.3673 20.7505 10.4325 20.7022 10.4976 20.6539C10.6589 20.5345 10.7402 20.3314 10.6311 20.1449C10.5379 19.9858 10.2847 19.8913 10.1223 20.0113C9.97655 20.1191 9.83109 20.2269 9.68562 20.3344C9.63272 20.3734 9.59338 20.4234 9.56164 20.4766C9.40626 20.3983 9.25186 20.3142 9.09846 20.2243C9.15301 20.1853 9.20723 20.1462 9.26608 20.1109C9.67603 19.8648 9.30278 19.2212 8.89051 19.4686C8.72917 19.5652 8.57973 19.6799 8.43757 19.8033C8.25309 19.6776 8.0706 19.549 7.89042 19.4167C7.99423 19.3618 8.09771 19.3069 8.20119 19.252C8.62436 19.0277 8.2488 18.3851 7.82562 18.6094C7.62891 18.7139 7.43187 18.8184 7.23516 18.9229C7.11647 18.8313 6.99877 18.74 6.88339 18.6507C6.94323 18.6097 7.00407 18.5697 7.06886 18.5333C7.48642 18.2991 7.11184 17.6562 6.69329 17.891C6.54386 17.9747 6.40534 18.0756 6.27243 18.1827C6.10349 18.0554 5.92 17.9168 5.73024 17.768C5.82479 17.6926 5.92364 17.6258 6.03803 17.5719C6.21953 17.4859 6.26648 17.2253 6.17127 17.0626C6.06283 16.8767 5.84496 16.843 5.66247 16.9293C5.47303 17.0189 5.30343 17.1442 5.1497 17.2868C5.01216 17.1651 4.87728 17.0387 4.74933 16.9088C4.86835 16.83 4.9877 16.751 5.10672 16.6723C5.50411 16.4087 5.13184 15.7641 4.73114 16.0297C4.57543 16.1329 4.41971 16.2361 4.26366 16.3393C4.09076 16.0982 3.95686 15.8478 3.88082 15.5921C3.99852 15.5921 4.11622 15.5921 4.23424 15.5921C4.71263 15.5921 4.71362 14.848 4.23424 14.848C4.10332 14.848 3.97273 14.848 3.84181 14.848C3.88942 14.6188 3.9962 14.3876 4.17539 14.1565C4.31292 14.3026 4.4531 14.4462 4.61708 14.5636C4.7804 14.6807 5.031 14.592 5.12589 14.4303C5.23532 14.2431 5.1563 14.0384 4.99232 13.921C5.05216 13.964 4.93215 13.8658 4.92091 13.8548C4.87363 13.8102 4.82835 13.7632 4.78338 13.7163C4.75727 13.6891 4.73148 13.6617 4.70602 13.6342C4.83099 13.5314 4.95497 13.4279 5.07696 13.3227C5.22177 13.4613 5.35831 13.6068 5.48328 13.7639C5.60858 13.9213 5.87868 13.8949 6.00927 13.7639C6.16465 13.6084 6.1349 13.3955 6.00927 13.2377C5.89388 13.0925 5.76793 12.9579 5.63569 12.8286C5.81289 12.6692 5.98943 12.5091 6.16532 12.3487C6.30582 12.4751 6.44997 12.5974 6.58386 12.73C6.92439 13.0674 7.45071 12.5415 7.10986 12.2039C6.98522 12.0802 6.85165 11.9657 6.7204 11.8487C6.92339 11.6684 7.12937 11.4908 7.33831 11.3165C7.47088 11.4713 7.61371 11.6142 7.75025 11.767C8.0706 12.1245 8.59527 11.5966 8.27657 11.2408C8.16019 11.1111 8.022 10.996 7.91224 10.8608C8.0058 10.7897 8.09804 10.7176 8.19391 10.6488C8.33112 10.5502 8.46402 10.4464 8.59593 10.3419C8.66437 10.4355 8.7328 10.5291 8.80124 10.623C8.9196 10.785 9.12424 10.8651 9.31004 10.7563C9.47006 10.663 9.56262 10.4103 9.44361 10.2473C9.356 10.1272 9.26839 10.0075 9.18078 9.88745C9.34774 9.76211 9.52163 9.64669 9.70215 9.54085C9.71239 9.55408 9.72198 9.56731 9.73487 9.57988C9.84497 9.68737 9.95506 9.79485 10.0648 9.90234C10.4077 10.2374 10.934 9.71184 10.5911 9.37615C10.528 9.31464 10.4649 9.25279 10.4017 9.19128C10.8639 9.01401 11.2606 9.01467 11.5658 9.58451C11.9516 10.3062 11.5469 10.4745 11.055 10.9755C9.8258 12.228 8.2531 13.0925 7.01101 14.3069C6.54486 14.7633 6.35376 15.1612 6.77892 15.6917ZM12.2111 8.70511C11.1773 7.86408 9.73057 8.57513 8.8095 9.21443C7.07481 10.4189 5.65089 11.9297 4.01141 13.2483C1.52062 15.4284 4.53576 17.8067 6.26351 19.1011C7.43286 19.9769 8.83629 21.1807 10.2652 21.6044C11.2104 21.8842 12.667 21.5151 12.7351 20.3271C12.8026 19.1514 10.9889 17.977 10.2 17.2855C9.71736 16.8618 9.2112 16.4629 8.6852 16.0948C8.45543 15.9341 8.21805 15.784 7.98596 15.6269C7.47716 15.2826 7.27516 15.3563 7.58725 14.8619C8.3741 13.6147 14.5895 10.6392 12.2111 8.70511Z" fill="#575757"/>
<path d="M28.1077 16.2546C26.8491 17.2669 25.765 18.4377 24.4515 19.3803C23.8769 19.7927 23.3708 20.2911 22.7347 20.6112C22.0602 20.9509 21.4876 21.2072 21.0797 20.4442C20.9124 20.1317 20.8991 19.925 20.9715 19.7477C21.1514 19.8912 21.3293 20.0377 21.5161 20.1727C21.679 20.2901 21.9306 20.2005 22.0249 20.0391C22.1346 19.8512 22.0549 19.6482 21.8916 19.5301C21.7412 19.4213 21.5961 19.3049 21.4516 19.1881C21.4965 19.1451 21.5425 19.1018 21.5904 19.0532C21.6995 18.9421 21.8139 18.8372 21.9277 18.732C22.0791 18.8928 22.2285 19.0552 22.3961 19.199C22.5485 19.33 22.7727 19.3488 22.9221 19.199C23.056 19.0651 23.0752 18.8041 22.9221 18.6728C22.7671 18.5399 22.6276 18.3907 22.4877 18.2419C22.6666 18.0944 22.8481 17.9502 23.0319 17.809C23.185 18.0054 23.3367 18.2036 23.5103 18.3825C23.8448 18.7264 24.3705 18.1999 24.0363 17.8563C23.8865 17.7018 23.7533 17.5328 23.621 17.3632C23.7728 17.2501 23.9242 17.1366 24.0753 17.0229C24.2171 17.1552 24.3351 17.3033 24.4621 17.4515C24.593 17.6043 24.8539 17.5858 24.9881 17.4515C25.1395 17.3 25.119 17.0784 24.9881 16.9253C24.8823 16.8016 24.7801 16.6796 24.6684 16.5641C24.8644 16.4084 25.0549 16.247 25.242 16.0816C25.3366 16.1514 25.4245 16.2268 25.5065 16.3135C25.8368 16.6614 26.3621 16.1349 26.0325 15.7873C25.9558 15.7066 25.8735 15.6318 25.7872 15.5621C25.9234 15.4089 26.0189 15.2598 26.0669 15.1073C26.2206 15.1166 26.3747 15.1262 26.5287 15.1357C26.7294 15.1483 26.9007 14.9558 26.9007 14.7637C26.9007 14.552 26.7301 14.4042 26.5287 14.3916C26.3112 14.3784 26.0936 14.3648 25.8758 14.3513C25.8721 14.3463 25.8702 14.342 25.8662 14.337C25.7723 14.22 25.6546 14.1102 25.5283 14.0033C25.6473 13.9471 25.7663 13.8909 25.8857 13.8347C26.0675 13.7493 26.1138 13.4884 26.0189 13.3257C25.9102 13.1395 25.6926 13.1064 25.5101 13.1924C25.285 13.2982 25.0605 13.4044 24.8353 13.5102C24.7173 13.4365 24.5986 13.3637 24.4786 13.292C24.5798 13.243 24.6803 13.1941 24.7811 13.1451C24.962 13.0571 25.0102 12.7998 24.9144 12.6358C24.8066 12.4512 24.5871 12.4145 24.4056 12.5025C24.2019 12.6014 23.9983 12.7003 23.7943 12.7995C23.7758 12.8084 23.7645 12.8256 23.7486 12.8379C23.63 12.7582 23.5172 12.6778 23.4164 12.5951C23.3711 12.5581 23.3294 12.5174 23.2848 12.4794C23.4247 12.4016 23.5671 12.3289 23.7126 12.2611C23.8944 12.1761 23.9407 11.9142 23.8462 11.7521C23.7371 11.5652 23.5199 11.5332 23.3374 11.6185C23.1172 11.7213 22.9056 11.8387 22.698 11.9641C22.5551 11.8321 22.4137 11.6982 22.2728 11.5639C22.3548 11.5136 22.4398 11.4673 22.5254 11.4316C22.7105 11.3546 22.8431 11.1852 22.7849 10.9739C22.7367 10.7989 22.5142 10.6366 22.3274 10.714C22.1062 10.8062 21.9124 10.92 21.722 11.0536C21.6182 10.9703 21.4903 10.873 21.366 10.7698C21.4575 10.6895 21.5541 10.619 21.6648 10.5598C22.087 10.334 21.7121 9.69168 21.2893 9.91723C21.1583 9.98735 21.037 10.0757 20.922 10.1712C20.593 8.83808 21.8169 9.02858 22.4619 9.27232C23.7943 9.77469 25.081 10.8641 26.2008 11.7157C27.4911 12.6976 30.1056 14.5057 28.1077 16.2546ZM26.3816 10.9276C25.2126 10.0518 23.8088 8.84833 22.3799 8.42467C21.4351 8.14455 19.9784 8.51397 19.9103 9.70193C19.8425 10.8777 21.6562 12.0517 22.4451 12.7436C22.9277 13.1669 23.4342 13.5661 23.9602 13.9342C24.1897 14.095 24.4274 14.2451 24.6595 14.4022C25.1679 14.7462 25.3699 14.6727 25.0578 15.1672C24.271 16.414 18.0556 19.3895 20.434 21.3239C21.4678 22.165 22.9145 21.4539 23.8356 20.8143C25.5706 19.6101 26.9942 18.099 28.6337 16.7808C31.1245 14.6003 28.1097 12.2221 26.3816 10.9276Z" fill="#575757"/>
<path d="M17.2615 15.2095C17.077 16.0211 16.8783 16.8294 16.6664 17.6344C16.3976 18.6563 16.184 20.7068 14.9089 20.6698C14.209 20.6493 14.1729 20.5845 14.1994 20.1334C14.289 20.1486 14.3782 20.176 14.4632 20.2051C14.6533 20.2703 14.8699 20.1304 14.9208 19.9455C14.977 19.7411 14.8517 19.5529 14.6612 19.4875C14.525 19.4408 14.3878 19.4154 14.2473 19.3948C14.2609 19.2612 14.2777 19.1273 14.2972 18.9933C14.4619 19.0244 14.6279 19.0466 14.7955 19.0502C15.2745 19.0611 15.2742 18.317 14.7955 18.3061C14.6646 18.3035 14.5406 18.2866 14.4149 18.2605C14.4275 18.1854 14.4404 18.1096 14.4516 18.0352C14.4579 17.9959 14.4655 17.9569 14.4718 17.9178C14.6341 17.9373 14.7945 17.9641 14.9545 18.0042C15.419 18.1202 15.617 17.4029 15.1522 17.2868C14.969 17.2408 14.7829 17.2104 14.5958 17.1866C14.6331 16.969 14.6662 16.751 14.7065 16.5341C14.9194 16.5605 15.1277 16.6131 15.3291 16.6879C15.5175 16.758 15.7367 16.6101 15.7866 16.4282C15.8438 16.2199 15.7159 16.0406 15.5268 15.9705C15.3076 15.8888 15.0821 15.8425 14.853 15.8098C14.8854 15.6487 14.9168 15.4873 14.9509 15.3269C15.1201 15.3656 15.2891 15.4043 15.4587 15.443C15.9245 15.5498 16.1235 14.8325 15.6564 14.7253C15.4699 14.6827 15.2838 14.64 15.0973 14.5977C15.1281 14.4406 15.1631 14.26 15.2024 14.0602C15.3195 14.091 15.4365 14.1218 15.5536 14.1525C16.0171 14.2746 16.2144 13.5569 15.7513 13.4348C15.6183 13.3998 15.4851 13.3651 15.3522 13.33C15.3717 13.2374 15.3922 13.1435 15.413 13.0482C15.623 13.0929 15.8326 13.1379 16.0422 13.1825C16.2386 13.2245 16.4445 13.1243 16.5001 12.9229C16.5507 12.7373 16.4376 12.5072 16.2402 12.4648C16.0204 12.4182 15.8012 12.3712 15.5817 12.3243C15.6177 12.1771 15.655 12.0293 15.6941 11.8821C15.8379 11.9135 15.9833 11.9347 16.1258 11.973C16.589 12.0964 16.7864 11.3791 16.3235 11.2554C16.1837 11.218 16.0402 11.1965 15.899 11.1661C15.9281 11.0721 15.9579 10.9792 15.9883 10.8883C16.1252 10.9084 16.2551 10.9405 16.3854 10.9895C16.5735 11.0602 16.793 10.9111 16.8426 10.7295C16.9001 10.5208 16.7718 10.3429 16.5831 10.2718C16.4746 10.2314 16.3658 10.204 16.2538 10.1838C16.301 10.074 16.3497 9.97083 16.3989 9.87293C16.514 9.92552 16.635 9.96421 16.7596 9.98273C16.9583 10.0122 17.1593 9.93346 17.2172 9.72312C17.2654 9.54783 17.1573 9.29483 16.9576 9.26539C16.913 9.25878 16.876 9.24488 16.836 9.23364C16.9765 9.0997 17.1239 9.02595 17.278 9.03025C19.0491 9.07721 17.4552 14.3569 17.2615 15.2095ZM17.278 8.28611C16.188 8.25536 15.8683 9.22405 15.5671 10.1339C14.897 12.1582 14.3806 14.2392 13.9908 16.3346C13.7871 17.431 12.4168 22.1342 14.9155 21.8402C15.8987 21.7245 16.5146 20.6896 16.8214 19.8632C17.4697 18.1166 17.8228 16.1785 18.2093 14.3576C18.3978 13.4686 18.5644 12.5753 18.7353 11.6827C18.851 11.0774 19.1697 10.2913 19.0901 9.66458C18.9631 8.66413 18.204 8.31059 17.278 8.28611Z" fill="#575757"/>
</svg>

