<svg width="27" height="33" viewBox="0 0 27 33" fill="none" xmlns="http://www.w3.org/2000/svg">
<path d="M21.7692 26.3005C21.4967 26.0717 21.0911 26.1081 20.8635 26.3822C19.185 28.4009 17.1731 30.0748 14.8837 31.3568C14.0514 31.8229 13.0577 31.8229 12.2255 31.3568C5.47781 27.578 1.28619 20.4086 1.28619 12.6462C1.28619 12.2894 0.998187 12 0.643097 12C0.288008 12 0 12.2894 0 12.6462C0 20.877 4.44457 28.479 11.5993 32.4858C12.2115 32.8286 12.8829 33.0001 13.5545 33C14.226 32.9999 14.8977 32.8285 15.5098 32.4858C17.9373 31.1262 20.0706 29.3515 21.8505 27.2107C22.0781 26.9368 22.0417 26.5293 21.7692 26.3005Z" fill="#575757"/>
<path d="M1.70697 10.293C1.52085 10.107 1.26303 10 1 10C0.736974 10 0.479048 10.1069 0.293129 10.293C0.107111 10.479 0 10.737 0 11C0 11.263 0.107011 11.521 0.293129 11.7069C0.479048 11.893 0.736974 12 1 12C1.26303 12 1.52095 11.893 1.70697 11.7069C1.89299 11.521 2 11.263 2 11C2 10.7371 1.89309 10.479 1.70697 10.293Z" fill="#575757"/>
<path d="M23.0879 1.97244C20.0398 0.663625 16.8139 0 13.4999 0C10.1859 0 6.96011 0.663689 3.91193 1.9725C1.53546 2.99289 0 5.33233 0 7.93255C0 8.28847 0.286786 8.57716 0.640511 8.57716C0.994237 8.57716 1.28102 8.28847 1.28102 7.93255C1.28102 5.84968 2.51106 3.97569 4.41459 3.15831C10.1885 0.679097 16.8115 0.679032 22.5853 3.15837C24.4889 3.97575 25.7189 5.84968 25.7189 7.93255V12.7049C25.7189 15.9334 24.9757 19.1727 23.5697 22.0726C23.4145 22.3925 23.5465 22.7785 23.8644 22.9346C23.9549 22.9789 24.0506 23 24.1449 23C24.3821 23 24.61 22.8669 24.721 22.638C26.2119 19.563 27 16.1282 27 12.7049V7.93255C26.9999 5.33233 25.4644 2.99289 23.0879 1.97244Z" fill="#575757"/>
<path d="M23.5373 24.0747C23.0754 23.9312 22.467 24.0006 22.1779 24.2295L22.1507 24.251C21.8614 24.48 22.0011 24.7819 22.4627 24.9253C22.6256 24.9759 22.8067 25 22.9855 25C23.3139 25 23.635 24.9187 23.8222 24.7706L23.8493 24.7491C24.1386 24.5201 23.9989 24.2182 23.5373 24.0747Z" fill="#575757"/>
<path d="M22.8356 17.1886C22.6571 16.9741 22.3742 16.9015 22.1257 17.0064L19.5032 18.1107H15.9984L13.9198 16.1689C13.6786 15.9437 13.3212 15.9437 13.0802 16.1689L11.0018 18.1107H7.49691L4.87437 17.0064C4.62562 16.9015 4.34287 16.9741 4.16442 17.1886C3.98597 17.403 3.94908 17.7143 4.07192 17.9704L5.82582 21.6261C5.93609 21.8558 6.15565 22 6.3953 22H11.9146C12.0619 22 12.2047 21.9452 12.319 21.8449L13.5 20.8087L14.681 21.845C14.7953 21.9453 14.9382 22 15.0855 22H20.6047C20.8443 22 21.0639 21.8557 21.1742 21.6261L22.9281 17.9704C23.0509 17.7143 23.014 17.4029 22.8356 17.1886ZM20.2145 20.6147H15.313L13.9043 19.3786C13.6686 19.1719 13.331 19.1718 13.0954 19.3787L11.6867 20.6147H6.78517L5.99343 18.9645L7.14316 19.4486C7.21743 19.4799 7.29646 19.496 7.37619 19.496H11.2406C11.3948 19.496 11.5437 19.4361 11.6603 19.3271L13.4999 17.6085L15.3396 19.3271C15.4561 19.4361 15.605 19.496 15.7591 19.496H19.6235C19.7033 19.496 19.7823 19.48 19.8566 19.4486L21.0062 18.9645L20.2145 20.6147Z" fill="#575757"/>
<path d="M15.873 24.299C15.7452 24.1114 15.5388 24 15.3189 24H11.6811C11.4612 24 11.2548 24.1114 11.127 24.299C10.9991 24.4867 10.9655 24.7275 11.0367 24.9457L12.8556 30.5171C12.95 30.806 13.2089 31 13.5 31C13.7911 31 14.05 30.8059 14.1444 30.5171L15.9633 24.9457C16.0345 24.7275 16.0009 24.4867 15.873 24.299ZM13.5 28.0807L12.6341 25.4286H14.3658L13.5 28.0807Z" fill="#575757"/>
<path d="M12.6813 6.96927L9.04845 5.08796C8.89688 5.00942 8.7135 4.98217 8.53743 5.01149L4.55075 5.67863C4.17749 5.74112 3.9373 6.03701 4.0144 6.33956C4.09149 6.64211 4.45661 6.8368 4.8298 6.77431L8.54177 6.15315L11.9383 7.91194C12.0534 7.97152 12.182 8 12.3091 8C12.5368 8 12.7597 7.90875 12.8914 7.74176C13.0966 7.48139 13.0025 7.13554 12.6813 6.96927Z" fill="#575757"/>
<path d="M22.4492 5.67861L18.4626 5.01146C18.2866 4.98221 18.103 5.00939 17.9515 5.08794L14.3187 6.96921C13.9975 7.13554 13.9034 7.48139 14.1086 7.74176C14.2402 7.90881 14.4631 8 14.6909 8C14.818 8 14.9467 7.97152 15.0617 7.91194L18.4582 6.15314L22.1702 6.7743C22.5427 6.83656 22.9084 6.64221 22.9856 6.33955C23.0627 6.037 22.8226 5.7411 22.4492 5.67861Z" fill="#575757"/>
<path d="M23.7113 11.0522L20.0681 9.09308C19.8186 8.95896 19.4839 8.97077 19.2515 9.12212L16.2398 11.0813C16.0234 11.222 15.944 11.4524 16.0406 11.6578C16.1374 11.8633 16.3899 12 16.6726 12H23.3274C23.6214 12 23.8812 11.8522 23.9691 11.6352C24.0571 11.4181 23.9526 11.182 23.7113 11.0522ZM18.5177 10.9592L19.723 10.1751L21.1813 10.9592H18.5177Z" fill="#575757"/>
<path d="M10.7602 11.0813L7.74857 9.12212C7.51611 8.97077 7.18136 8.95896 6.93195 9.09308L3.28877 11.0522C3.04737 11.182 2.94292 11.4181 3.03083 11.6352C3.11874 11.8523 3.37857 12 3.67256 12H10.3274C10.61 12 10.8625 11.8633 10.9593 11.6578C11.0561 11.4524 10.9765 11.222 10.7602 11.0813ZM5.81885 10.9591L7.277 10.175L8.48238 10.9591H5.81885Z" fill="#575757"/>
</svg>
