<svg width="31" height="28" viewBox="0 0 31 28" fill="none" xmlns="http://www.w3.org/2000/svg">
<path d="M26.4449 22.087C25.602 21.6434 24.7134 21.2902 23.7954 21.0135C24.5959 19.4207 24.991 17.8761 25.0999 16.2239C26.4382 16.054 27.7744 15.838 29.1106 15.5656C29.0743 15.9997 29.016 16.4289 28.9303 16.8499C28.5212 18.8585 27.6466 20.6218 26.4449 22.087ZM19.4744 26.4138C21.1047 25.2237 22.3326 23.6505 23.3588 21.8314C24.2091 22.0785 25.0352 22.3939 25.8226 22.792C24.1252 24.5636 21.9101 25.8107 19.4744 26.4138ZM1.69773 19C1.28314 18.0906 1.02933 17.1489 0.909434 16.1967C2.69348 16.5555 4.49888 16.7694 6.31373 16.8865C6.56023 18.5684 7.17616 20.1614 8.0691 21.587C6.95102 21.9976 5.8845 22.4958 4.90736 23.0797C3.55438 21.9747 2.43539 20.6178 1.69773 19ZM3.52479 7.10508C4.61755 8.05049 5.80945 8.77869 7.07213 9.34612C6.3238 11.4374 6.06723 13.5664 6.21245 15.9347C6.21336 15.946 6.21489 15.957 6.2155 15.9682C4.40644 15.8465 2.60775 15.6238 0.833167 15.2492C0.739816 12.3864 1.81457 9.48675 3.52479 7.10508ZM6.86194 3.71607C8.73293 2.35546 10.7924 1.54246 13.0005 1.14648C10.9343 2.64437 9.31957 4.79052 8.12035 7.00745C7.85402 7.50014 7.61912 7.9907 7.41015 8.48216C6.22801 7.95775 5.11115 7.28019 4.08032 6.37719C4.90706 5.35704 5.84972 4.4522 6.86194 3.71607ZM26.4547 6.38085C25.6344 7.04956 24.7487 7.65146 23.8097 8.16703C22.6142 5.18437 20.5998 2.64589 17.7413 1.06594C19.4994 1.39785 21.1596 2.13124 22.7698 3.03149C24.2103 3.83718 25.4556 5.00346 26.4547 6.38085ZM17.5933 15.9036C17.5098 14.3261 17.3871 12.751 17.2276 11.1796C19.3161 10.9807 21.3936 10.3641 23.3082 9.44007C23.7795 10.8632 24.0669 12.3706 24.1703 13.9017C24.2057 14.4222 24.221 14.9234 24.2149 15.4124C22.0175 15.6647 19.8136 15.8053 17.5933 15.9036ZM17.7254 20.1212C17.7145 19.0186 17.6852 17.917 17.6373 16.8163C19.8289 16.7181 22.0046 16.5793 24.1737 16.3349C24.0547 17.8591 23.6743 19.281 22.8967 20.7658C21.2112 20.3521 19.4524 20.1694 17.7254 20.1212ZM17.7297 21.0351C19.3042 21.0785 20.9006 21.2368 22.4388 21.5925C21.2273 23.6752 19.7429 25.3799 17.5787 26.5099C17.68 24.685 17.7306 22.8591 17.7297 21.0351ZM13.8068 26.6783C10.9828 26.3262 8.06147 25.3409 5.6981 23.6779C6.59897 23.1703 7.57885 22.7365 8.60022 22.3744C9.941 24.2094 11.7537 25.7085 13.8068 26.6783ZM15.9814 21.0284C16.2578 21.0232 16.536 21.0217 16.8154 21.022C16.8163 22.9141 16.762 24.8076 16.6531 26.7012C13.819 26.0468 11.2806 24.3543 9.53343 22.0663C11.6628 21.4168 13.9176 21.069 15.9814 21.0284ZM15.1049 16.9152C15.6455 16.8966 16.1852 16.8767 16.7236 16.8548C16.7706 17.9381 16.7993 19.022 16.8102 20.1068C16.5323 20.1065 16.2559 20.108 15.9814 20.1132C13.722 20.1578 11.2738 20.5449 8.97851 21.2774C8.13072 19.968 7.53278 18.4982 7.2628 16.9393C9.87541 17.0613 12.5017 17.0052 15.1049 16.9152ZM15.6772 1.11688C19.2569 2.44515 21.6752 5.22952 22.9995 8.58619C21.1559 9.48035 19.1532 10.0569 17.1293 10.2445C16.7892 7.18501 16.3041 4.1395 15.6772 1.11688ZM16.2172 10.3019C15.2132 10.3351 14.2092 10.2747 13.222 10.099C11.4959 9.79121 9.82477 9.42238 8.25336 8.82933C8.44647 8.37813 8.66368 7.92571 8.91078 7.46933C10.2799 4.93756 12.1851 2.51776 14.7467 1.12481C15.3846 4.16422 15.8743 7.22619 16.2172 10.3019ZM7.1066 15.4505C7.03308 13.3666 7.26921 11.5225 7.91504 9.69816C9.80494 10.4291 11.8303 10.848 13.9011 11.1296C14.6976 11.2379 15.5061 11.2684 16.3163 11.2391C16.4756 12.8038 16.5976 14.3715 16.6803 15.9417C16.1562 15.9628 15.6311 15.9817 15.1049 16C12.4642 16.0912 9.79548 16.1534 7.14291 16.0222C7.12613 15.8328 7.11332 15.6421 7.1066 15.4505ZM29.1512 14.625C27.8119 14.9066 26.4727 15.1263 25.1319 15.3005C25.1347 14.7333 25.1099 14.1519 25.0587 13.5487C24.9263 11.9883 24.6151 10.4618 24.1252 9.02183C25.1365 8.47362 26.091 7.8409 26.9663 7.13925C28.3711 9.37693 29.1628 12.0545 29.1512 14.625ZM25.1746 3.56323C20.6062 -0.510351 13.6378 -1.04666 8.31468 1.72611C2.85486 4.56996 -0.748615 10.6088 0.132424 16.8127C1.14037 23.9129 9.29913 27.5779 15.694 27.7366C18.6885 27.8217 21.3433 27.0816 23.904 25.5428C26.4553 24.0102 28.0923 21.8637 29.2018 19.1034C31.3157 13.8431 29.3724 7.30582 25.1746 3.56323Z" fill="#575757"/>
</svg>

