<svg width="44" height="44" viewBox="0 0 44 44" fill="none" xmlns="http://www.w3.org/2000/svg">
<path fill-rule="evenodd" clip-rule="evenodd" d="M21.9653 1.4502C26.469 1.4502 30.7648 1.86602 34.7142 2.55901C38.1786 3.18269 40.8115 5.74679 41.4351 9.21175C42.128 13.2311 42.5437 17.5277 42.5437 21.9628C42.5437 26.4673 42.128 30.7639 41.4351 34.714C40.8115 38.1789 38.1786 40.8123 34.7142 41.436C30.7648 42.129 26.469 42.5448 21.9653 42.5448C17.5309 42.5448 13.2351 42.129 9.21638 41.436C5.75201 40.8123 3.18836 38.1789 2.56477 34.714C1.8719 30.7639 1.45616 26.4673 1.45616 21.9628C1.45616 17.5277 1.87189 13.2311 2.56477 9.21175C3.18836 5.7468 5.75201 3.18269 9.21638 2.55901C13.2351 1.86601 17.5309 1.4502 21.9653 1.4502Z" fill="#F6F7F7"/>
<path d="M42.3363 18.2899C41.5318 18.2899 40.8802 17.6381 40.8802 16.8347V16.2808C40.8802 15.4775 41.5318 14.8257 42.3363 14.8257C43.1407 14.8257 43.7923 15.4775 43.7923 16.2808V16.8347C43.7923 17.6381 43.1407 18.2899 42.3363 18.2899Z" fill="#444B54"/>
<path fill-rule="evenodd" clip-rule="evenodd" d="M21.9653 35.199C29.2405 35.199 35.1992 29.2392 35.1992 21.9628C35.1992 14.6864 29.2405 8.7959 21.9653 8.7959C14.6901 8.7959 8.80064 14.6864 8.80064 21.9628C8.80065 29.2392 14.6901 35.199 21.9653 35.199Z" fill="#F8C9DC"/>
<path d="M21.9654 36.6538C20.3064 36.6538 18.6952 36.384 17.3059 35.8719C16.5516 35.5949 16.1649 34.7581 16.4418 34.0037C16.7211 33.2493 17.5589 32.8625 18.3085 33.1406C19.3826 33.5346 20.6454 33.7435 21.9654 33.7435C28.4605 33.7435 33.7429 28.4589 33.7429 21.9627C33.7429 15.5047 28.4605 10.2511 21.9654 10.2511C15.5085 10.2511 10.257 15.5047 10.257 21.9627C10.257 25.3481 11.6463 28.5413 14.0715 30.7222C14.6683 31.2593 14.716 32.1797 14.1789 32.7766C13.6442 33.3734 12.7252 33.4247 12.1237 32.8852C9.0874 30.154 7.34486 26.1729 7.34486 21.9627C7.34486 13.9003 13.9044 7.34082 21.9654 7.34082C30.0645 7.34082 36.6551 13.9003 36.6551 21.9627C36.6551 30.0632 30.0645 36.6538 21.9654 36.6538Z" fill="#ED74A5"/>
<path d="M10.0446 22.0441C9.64835 22.0441 9.24734 22.0393 8.84154 22.0321C8.0395 22.0166 7.39978 21.3529 7.41649 20.5495C7.43081 19.7462 8.07053 19.129 8.89883 19.1218C19.3158 19.3057 26.5079 16.8788 30.2985 11.8676C30.7854 11.2254 31.6973 11.1001 32.337 11.5859C32.9767 12.0706 33.1033 12.9838 32.6187 13.6248C28.3913 19.2138 20.7981 22.0441 10.0446 22.0441Z" fill="#ED74A5"/>
<path d="M13.0952 33.2589C12.8446 33.2589 12.5916 33.1944 12.3576 33.0571C11.6654 32.6489 11.4362 31.7572 11.8444 31.0648C16.9622 22.3829 24.911 19.2243 35.4568 21.6536C36.2398 21.835 36.7291 22.6157 36.5477 23.3988C36.3687 24.1842 35.5738 24.6701 34.8028 24.4898C25.4934 22.3447 18.8097 24.9769 14.3508 32.5426C14.0787 33.0034 13.5941 33.2589 13.0952 33.2589Z" fill="#ED74A5"/>
<path d="M27.9902 35.1988C27.2837 35.1988 26.663 34.6819 26.5533 33.9609C25.2953 25.6061 21.7601 17.749 16.048 10.607C15.5467 9.97912 15.6469 9.06354 16.2747 8.56098C16.9025 8.06082 17.8191 8.1587 18.3204 8.78779C24.3572 16.3357 28.0953 24.6594 29.432 33.5264C29.5513 34.3214 29.0047 35.0627 28.2098 35.1833C28.1358 35.194 28.0618 35.1988 27.9902 35.1988Z" fill="#ED74A5"/>
<path d="M21.9654 44C17.6878 44 13.3148 43.6204 8.96804 42.8696C4.93875 42.145 1.86666 39.0461 1.13145 34.9731C0.38192 30.6889 0 26.3139 0 21.9628C0 17.6857 0.38192 13.3131 1.12907 8.96439C1.86904 4.86278 4.86953 1.86416 8.95851 1.12645C17.7619 -0.389573 26.4793 -0.360929 34.9651 1.12525C39.0445 1.86058 42.1429 4.93321 42.8662 8.95365L43.2911 11.9869C43.4056 12.7819 42.8519 13.5196 42.057 13.633C41.2764 13.7452 40.5245 13.1937 40.4123 12.3975L39.9946 9.4204C39.4885 6.61397 37.3641 4.51541 34.4567 3.99137C26.3074 2.56368 17.9194 2.53862 9.46216 3.99256C6.61206 4.50705 4.51148 6.6068 3.99588 9.47054C3.27738 13.6438 2.91217 17.8516 2.91217 21.9628C2.91217 26.1468 3.27738 30.3522 3.99588 34.4634C4.52103 37.3641 6.61922 39.4901 9.4741 40.0034C17.8931 41.455 26.3122 41.4335 34.4638 40.0022C37.3116 39.4901 39.4885 37.3128 40.0017 34.4562C40.7226 30.357 41.0878 26.1515 41.0878 21.9628V20.9231C41.0878 20.1197 41.7395 19.4679 42.5439 19.4679C43.3483 19.4679 44 20.1197 44 20.9231V21.9628C44 26.3199 43.6181 30.6948 42.8662 34.966C42.1357 39.0377 39.0374 42.1366 34.9723 42.8684C30.6923 43.6192 26.3169 44 21.9654 44Z" fill="#444B54"/>
</svg>

