<svg width="550" height="540" viewBox="0 0 550 540" fill="none" xmlns="http://www.w3.org/2000/svg">
<path d="M442.405 482.31C442.405 371.795 354.545 279.335 244.03 278.185C243.225 278.185 242.305 278.185 241.5 278.185C108.1 278.185 0 386.285 0 519.685C0 526.47 0.46 533.14 1.035 539.81H442.405V482.31Z" fill="#F2C6DD"/>
<path d="M136.735 32.775V77.855H88.4351V32.775C88.4351 19.435 99.245 8.625 112.585 8.625C119.37 8.625 125.35 11.385 129.72 15.755C134.09 20.01 136.735 26.105 136.735 32.775Z" fill="#FEBECC"/>
<path d="M463.68 32.775V77.855H415.265V32.775C415.265 19.435 426.075 8.625 439.415 8.625C446.2 8.625 452.18 11.385 456.55 15.755C460.92 20.01 463.68 26.105 463.68 32.775Z" fill="#FEBECC"/>
<path d="M11.5 165.026V493.351C11.5 507.496 22.885 518.996 37.145 518.996H514.97C529 518.996 540.615 507.611 540.615 493.351V165.026H11.5Z" fill="#FF9D9C"/>
<path d="M62.6751 165.139V467.819H415.495L489.325 394.104V165.139H62.6751Z" fill="white"/>
<path d="M253.46 202.283H202.515V253.228H253.46V202.283Z" fill="#9BEAF9"/>
<path d="M346.61 202.283H295.665V253.228H346.61V202.283Z" fill="#9BEAF9"/>
<path d="M445.395 202.283H394.45V253.228H445.395V202.283Z" fill="#9BEAF9"/>
<path d="M157.435 290.948H106.49V341.893H157.435V290.948Z" fill="#9BEAF9"/>
<path d="M253.46 290.948H202.515V341.893H253.46V290.948Z" fill="#9BEAF9"/>
<path d="M346.61 290.948H295.665V341.893H346.61V290.948Z" fill="#9BEAF9"/>
<path d="M445.395 290.948H394.45V341.893H445.395V290.948Z" fill="#9BEAF9"/>
<path d="M157.435 379.613H106.49V430.558H157.435V379.613Z" fill="#9BEAF9"/>
<path d="M253.46 379.613H202.515V430.558H253.46V379.613Z" fill="#9BEAF9"/>
<path d="M346.61 379.613H295.665V430.558H346.61V379.613Z" fill="#9BEAF9"/>
<path d="M415.61 394.105H489.325L415.61 467.82V394.105Z" fill="#FEBECC"/>
<path d="M540.5 103.5C540.5 89.3555 529 77.8555 514.855 77.8555H37.145C23 77.8555 11.5 89.2405 11.5 103.5V165.14H540.5V103.5Z" fill="#E9F4BC"/>
<path d="M514.97 69.345H472.305V32.775C472.305 24.035 468.855 15.755 462.645 9.545C456.32 3.335 448.155 0 439.415 0C421.36 0 406.64 14.72 406.64 32.775V69.345H145.475V32.775C145.475 24.035 142.025 15.755 135.815 9.545C129.49 3.335 121.325 0 112.585 0C94.5301 0 79.8101 14.72 79.8101 32.775V69.345H37.1451C27.4851 69.345 18.2851 73.37 11.7301 80.5C6.09511 86.825 2.99011 94.99 2.99011 103.5V164.91C2.99011 165.025 2.99011 165.025 2.99011 165.14C2.99011 165.255 2.99011 165.255 2.99011 165.37V493.58C2.99011 512.44 18.2851 527.735 37.1451 527.85H335.685C340.4 527.85 344.31 523.94 344.31 519.11C344.31 514.395 340.4 510.6 335.685 510.6H37.1451C27.8301 510.6 20.2401 502.895 20.2401 493.58V173.88H54.1651V468.05C54.1651 472.765 58.0751 476.675 62.7901 476.675H415.61C417.795 476.675 420.095 475.755 421.705 474.145L495.305 400.545C495.535 400.315 495.65 400.085 495.88 399.855C496.34 399.28 496.8 398.705 497.145 398.015C497.26 397.67 497.375 397.325 497.49 396.98C497.72 396.29 497.835 395.6 497.95 394.91C497.95 394.68 498.065 394.565 498.065 394.335V173.65H532.105V493.35C532.105 502.665 524.4 510.255 515.085 510.37H381.685C376.855 510.37 373.06 514.165 373.06 518.88C373.06 523.71 376.855 527.62 381.685 527.62H514.97C533.83 527.505 549.125 512.21 549.24 493.35V103.5C549.125 84.64 533.83 69.345 514.97 69.345ZM423.89 32.775C423.89 24.265 430.905 17.25 439.415 17.25C444.705 17.25 448.385 19.78 450.455 21.85C453.445 24.84 455.055 28.635 455.055 32.775V69.23H423.89V32.775ZM97.0601 32.775C97.0601 24.265 104.075 17.25 112.585 17.25C117.875 17.25 121.555 19.78 123.625 21.85C126.615 24.84 128.225 28.635 128.225 32.775V69.23H97.0601V32.775ZM71.3001 173.765H480.7V385.48H415.61C410.895 385.48 406.985 389.39 406.985 394.105V459.195H71.3001V173.765ZM424.235 447.005V402.73H468.51L424.235 447.005ZM20.2401 156.4V103.385C20.2401 99.13 21.7351 95.105 24.6101 92C27.8301 88.435 32.3151 86.365 37.1451 86.365H514.97C524.285 86.48 531.99 94.07 531.99 103.385V156.4H20.2401Z" fill="#505050"/>
<path d="M358.685 510.486C353.855 510.486 350.06 514.281 350.06 518.996C350.06 523.826 353.855 527.736 358.685 527.736C363.4 527.736 367.195 523.826 367.195 518.996C367.195 514.281 363.4 510.486 358.685 510.486Z" fill="#505050"/>
<path d="M253.575 193.658H202.515C197.8 193.658 193.89 197.568 193.89 202.283V253.343C193.89 258.058 197.8 261.968 202.515 261.968H253.575C258.29 261.968 262.2 258.058 262.2 253.343V202.283C262.2 197.568 258.29 193.658 253.575 193.658ZM244.95 244.718H211.14V210.908H244.95V244.718Z" fill="#505050"/>
<path d="M346.725 193.658H295.78C291.065 193.658 287.155 197.568 287.155 202.283V253.343C287.155 258.058 291.065 261.968 295.78 261.968H346.725C351.44 261.968 355.35 258.058 355.35 253.343V202.283C355.35 197.568 351.44 193.658 346.725 193.658ZM338.1 244.718H304.405V210.908H338.1V244.718Z" fill="#505050"/>
<path d="M394.45 261.968H445.51C450.225 261.968 454.135 258.058 454.135 253.343V202.283C454.135 197.568 450.225 193.658 445.51 193.658H394.45C389.735 193.658 385.825 197.568 385.825 202.283V253.343C385.825 258.058 389.735 261.968 394.45 261.968ZM403.075 210.908H436.885V244.718H403.075V210.908Z" fill="#505050"/>
<path d="M157.55 282.323H106.49C101.775 282.323 97.8651 286.233 97.8651 290.948V342.008C97.8651 346.723 101.775 350.633 106.49 350.633H157.55C162.265 350.633 166.175 346.723 166.175 342.008V290.948C166.175 286.233 162.265 282.323 157.55 282.323ZM148.925 333.268H115.115V299.458H148.925V333.268Z" fill="#505050"/>
<path d="M253.575 282.323H202.515C197.8 282.323 193.89 286.233 193.89 290.948V342.008C193.89 346.723 197.8 350.633 202.515 350.633H253.575C258.29 350.633 262.2 346.723 262.2 342.008V290.948C262.2 286.233 258.29 282.323 253.575 282.323ZM244.95 333.268H211.14V299.458H244.95V333.268Z" fill="#505050"/>
<path d="M346.725 282.323H295.78C291.065 282.323 287.155 286.233 287.155 290.948V342.008C287.155 346.723 291.065 350.633 295.78 350.633H346.725C351.44 350.633 355.35 346.723 355.35 342.008V290.948C355.35 286.233 351.44 282.323 346.725 282.323ZM338.1 333.268H304.405V299.458H338.1V333.268Z" fill="#505050"/>
<path d="M445.51 350.52C450.225 350.52 454.135 346.61 454.135 341.895V290.835C454.135 286.12 450.225 282.21 445.51 282.21H394.45C389.735 282.21 385.825 286.12 385.825 290.835V341.895C385.825 346.61 389.735 350.52 394.45 350.52H445.51ZM403.075 299.575H436.885V333.385H403.075V299.575Z" fill="#505050"/>
<path d="M157.55 370.988H106.49C101.775 370.988 97.8651 374.898 97.8651 379.613V430.558C97.8651 435.273 101.775 439.183 106.49 439.183H157.55C162.265 439.183 166.175 435.273 166.175 430.558V379.613C166.175 374.783 162.265 370.988 157.55 370.988ZM148.925 421.933H115.115V388.238H148.925V421.933Z" fill="#505050"/>
<path d="M253.575 370.988H202.515C197.8 370.988 193.89 374.898 193.89 379.613V430.558C193.89 435.273 197.8 439.183 202.515 439.183H253.575C258.29 439.183 262.2 435.273 262.2 430.558V379.613C262.2 374.783 258.29 370.988 253.575 370.988ZM244.95 421.933H211.14V388.238H244.95V421.933Z" fill="#505050"/>
<path d="M346.725 370.988H295.78C291.065 370.988 287.155 374.898 287.155 379.613V430.558C287.155 435.273 291.065 439.183 295.78 439.183H346.725C351.44 439.183 355.35 435.273 355.35 430.558V379.613C355.35 374.783 351.44 370.988 346.725 370.988ZM338.1 421.933H304.405V388.238H338.1V421.933Z" fill="#505050"/>
</svg>

