<svg width="44" height="44" viewBox="0 0 44 44" fill="none" xmlns="http://www.w3.org/2000/svg">
<path fill-rule="evenodd" clip-rule="evenodd" d="M21.9999 1.45166C26.4417 1.45166 30.7446 1.86743 34.77 2.56041C38.2401 3.18411 40.8774 5.8174 41.502 9.28229C42.196 13.2322 42.543 17.5287 42.543 22.033C42.543 26.468 42.196 30.7645 41.502 34.7144C40.8774 38.2486 38.2401 40.8126 34.77 41.4363C30.7446 42.1293 26.4417 42.5451 21.9999 42.5451C17.5582 42.5451 13.2552 42.1293 9.22986 41.4363C5.75974 40.8126 3.19186 38.2486 2.56723 34.7144C1.80381 30.7645 1.45679 26.468 1.45679 22.033C1.45679 17.5287 1.8038 13.2322 2.56723 9.28229C3.19186 5.8174 5.75974 3.18411 9.22986 2.56041C13.2552 1.86743 17.5582 1.45166 21.9999 1.45166Z" fill="#659EC9"/>
<path fill-rule="evenodd" clip-rule="evenodd" d="M28.4543 42.2682C26.5111 42.4067 24.4984 42.5453 22.4857 42.5453V26.8841H17.5582V21.5482H22.4857V16.5588C22.4857 12.8861 25.47 9.90625 29.1484 9.90625H34.3536V15.3115H30.467C29.3566 15.3115 28.4543 16.2123 28.4543 17.2518V21.5482H34.2147L33.3819 26.8841H28.4543V42.2682H28.4543Z" fill="white"/>
<path d="M21.9994 44C17.7148 44 13.3345 43.6204 8.98291 42.8696C4.86803 42.1307 1.86377 39.1035 1.13093 34.9674C0.382554 31.0868 0 26.7274 0 22.0327C0 17.2926 0.382554 12.9106 1.13572 9.00723C1.86736 4.95229 4.94455 1.8523 8.97215 1.12773C17.7148 -0.37631 26.2984 -0.375113 35.0171 1.12654C39.0997 1.86065 42.2044 4.96064 42.936 9.02513L43.3616 11.9878C43.4752 12.7828 42.9217 13.5205 42.1243 13.6339C41.34 13.7425 40.5893 13.1946 40.4757 12.3985L40.0585 9.49065C39.5528 6.68431 37.3722 4.50703 34.5114 3.99256C26.1406 2.55299 17.8702 2.55179 9.47785 3.99376C6.629 4.50705 4.52613 6.633 4.00131 9.5408C3.27923 13.2806 2.9146 17.4776 2.9146 22.0327C2.9146 26.5436 3.27923 30.7167 3.99772 34.4386C4.51537 37.3643 6.61823 39.4879 9.4886 40.0036C17.8451 41.4431 26.1442 41.4443 34.5222 40.0024C37.4272 39.4807 39.5552 37.3572 40.0656 34.4613C40.7423 30.6164 41.0854 26.4338 41.0854 22.0327V20.9237C41.0854 20.1204 41.7381 19.4686 42.5427 19.4686C43.3473 19.4686 44 20.1204 44 20.9238V22.0327C44 26.6021 43.6425 30.9543 42.9372 34.9662C42.2187 39.0331 39.114 42.1343 35.0278 42.8684C30.6655 43.6204 26.2852 44 21.9994 44Z" fill="#444B54"/>
<path d="M42.4016 18.2904C41.6784 18.2904 41.0495 17.752 40.9575 17.0155L40.8881 16.4617C40.7889 15.6643 41.3556 14.9373 42.1542 14.8371C42.9372 14.7451 43.6808 15.3026 43.7812 16.1012L43.8505 16.655C43.9498 17.4524 43.3831 18.1794 42.5845 18.2796C42.5236 18.2868 42.4626 18.2904 42.4016 18.2904Z" fill="#444B54"/>
<path d="M28.4538 43.7233C27.6493 43.7233 26.9965 43.0715 26.9965 42.2682V26.884C26.9965 26.0807 27.6493 25.4289 28.4538 25.4289H32.1336L32.5125 23.0033H28.4539C27.6493 23.0033 26.9965 22.3516 26.9965 21.5482V17.2522C26.9965 15.3793 28.5531 13.8562 30.4671 13.8562H32.8963V11.3614H29.1484C26.2781 11.3614 23.9433 13.6926 23.9433 16.5587V21.5482C23.9433 22.3516 23.2905 23.0033 22.486 23.0033H19.0155V25.4289H22.486C23.2905 25.4289 23.9433 26.0807 23.9433 26.884V37.9721C23.9433 38.7755 23.2905 39.4272 22.486 39.4272C21.6814 39.4272 21.0287 38.7755 21.0287 37.9721V28.3391H17.5582C16.7536 28.3391 16.1009 27.6873 16.1009 26.884V21.5482C16.1009 20.7449 16.7536 20.0932 17.5582 20.0932H21.0287V16.5587C21.0287 12.0883 24.6713 8.45117 29.1484 8.45117H34.3536C35.1582 8.45117 35.8109 9.10292 35.8109 9.90627V15.3113C35.8109 16.1146 35.1582 16.7664 34.3536 16.7664H30.4671C30.1538 16.7664 29.9112 17.0278 29.9112 17.2522V20.0932H34.2149C34.6405 20.0932 35.0446 20.2794 35.3219 20.6017C35.5993 20.9252 35.72 21.3525 35.6555 21.7727L34.8222 27.1084C34.7111 27.8163 34.1002 28.3391 33.3817 28.3391H29.9112V42.2682C29.9112 43.0715 29.2584 43.7233 28.4538 43.7233Z" fill="#444B54"/>
</svg>

