<svg width="45" height="45" viewBox="0 0 45 45" fill="none" xmlns="http://www.w3.org/2000/svg">
<path d="M22.375 43.6417C34.1203 43.6417 43.6417 34.1203 43.6417 22.3751C43.6417 10.6298 34.1203 1.1084 22.375 1.1084C10.6297 1.1084 1.10834 10.6298 1.10834 22.3751C1.10834 34.1203 10.6297 43.6417 22.375 43.6417Z" fill="white"/>
<path d="M43.6417 22.3748C43.6417 20.4109 43.3542 18.516 42.8555 16.7105C39.7257 8.86237 32.0726 3.30811 23.1083 3.30811C11.3633 3.30811 1.84167 12.8297 1.84167 24.5748C1.84167 26.5386 2.12914 28.4336 2.62781 30.239C5.75768 38.0872 13.4107 43.6414 22.375 43.6414C34.1201 43.6414 43.6417 34.1198 43.6417 22.3748Z" fill="#80D8FF"/>
<path d="M29.635 42.3424C28.6758 42.69 27.6565 41.9758 27.6594 40.955C27.6668 39.1554 27.6741 37.0287 27.6741 35.543C27.6741 33.5512 26.9936 32.2488 26.2309 31.5888C30.9682 31.0608 35.9402 29.2554 35.9402 21.0538C35.9402 18.7218 35.1174 16.8166 33.7534 15.3235C33.9734 14.7823 34.7024 12.6131 33.5422 9.67242C33.5422 9.67242 31.7602 9.09896 27.7005 11.8607C26.0021 11.387 24.182 11.1508 22.3765 11.142C20.5681 11.1508 18.7494 11.387 17.0525 11.8607C12.9898 9.10042 11.2034 9.67389 11.2034 9.67389C10.0477 12.6131 10.7766 14.7838 10.9966 15.325C9.63555 16.818 8.80689 18.7232 8.80689 21.0552C8.80689 29.2363 13.7716 31.0682 18.4942 31.6064C17.8856 32.1403 17.3356 33.0819 17.1434 34.4606C15.9305 35.0076 12.852 35.9507 10.9526 32.6874C10.9526 32.6874 9.82915 30.6384 7.69662 30.4874C7.69662 30.4874 5.61835 30.461 7.54995 31.7854C7.54995 31.7854 8.94475 32.4424 9.90982 34.9079C9.90982 34.9079 11.158 39.0615 17.0745 37.7708C17.0789 38.5364 17.0848 39.7626 17.0906 40.952C17.095 41.9699 16.0816 42.6959 15.1253 42.3483C13.0206 41.5842 11.07 40.4988 9.33342 39.151C12.937 41.9552 17.4558 43.6419 22.375 43.6419C27.1842 43.6419 31.6062 42.0256 35.1702 39.3328C33.4982 40.5927 31.6385 41.615 29.635 42.3424Z" fill="white"/>
<path d="M15.6179 43.1661C15.3671 43.1661 15.1163 43.1236 14.8757 43.0356C5.79415 39.7414 -0.024122 31.0441 0.396811 21.392C0.414411 20.9886 0.737078 20.6806 1.16094 20.6909C1.56574 20.7085 1.87961 21.0517 1.86201 21.455C1.46894 30.4633 6.90001 38.5813 15.3759 41.654C15.5973 41.7361 15.8423 41.7024 16.0403 41.5616C16.2441 41.4178 16.36 41.1949 16.3585 40.95L16.3468 38.6429C10.5872 39.4657 9.22321 35.1596 9.20854 35.1141C8.39894 33.0534 7.24028 32.4448 7.22854 32.4389C6.72694 32.103 5.76774 31.4474 6.04054 30.588C6.28548 29.8136 7.29014 29.7622 7.70668 29.749C10.2528 29.928 11.5435 32.2321 11.5963 32.3304C12.9984 34.7401 15.1368 34.4512 16.4876 33.9349C16.6196 33.272 16.8381 32.6692 17.1315 32.1514C12.9192 31.4386 8.07334 29.2577 8.07334 21.0517C8.07334 18.8062 8.77588 16.8277 10.1619 15.1616C9.85681 14.173 9.47548 12.064 10.5197 9.4049C10.6004 9.19957 10.7691 9.04264 10.9788 8.97517C11.19 8.90624 13.1392 8.3973 17.1828 11.0666C18.824 10.6398 20.5693 10.4184 22.3733 10.4096C24.1832 10.4184 25.9271 10.6398 27.5697 11.0666C31.6119 8.3973 33.5537 8.90624 33.7679 8.97517C33.9776 9.04264 34.1448 9.19957 34.2255 9.40344C35.2741 12.0625 34.8943 14.1716 34.5877 15.163C35.9723 16.8248 36.6733 18.8033 36.6733 21.0532C36.6733 29.2592 31.8216 31.4342 27.602 32.1397C28.1212 33.0534 28.4072 34.2312 28.4072 35.5424C28.4072 37.0281 28.3999 39.1577 28.3925 40.9573C28.3925 41.2008 28.5055 41.4193 28.7064 41.5616C28.9073 41.7024 29.1552 41.7361 29.3855 41.654C37.4741 38.7148 42.9081 30.9664 42.9081 22.3746C42.9081 16.7089 40.6495 11.4333 36.5501 7.51877C32.4523 3.60717 27.0725 1.59784 21.3907 1.86477C20.9873 1.89557 20.6441 1.56997 20.6236 1.16664C20.6045 0.761836 20.9169 0.418636 21.3217 0.39957C27.4113 0.120903 33.1724 2.2681 37.5621 6.45837C41.9563 10.6516 44.3748 16.3041 44.3748 22.3746C44.3748 31.5809 38.5521 39.8822 29.8871 43.0312C29.208 43.2761 28.4527 43.1764 27.8631 42.7598C27.2749 42.3448 26.9244 41.6686 26.9273 40.9514C26.9347 39.1533 26.942 37.0266 26.942 35.5424C26.942 33.4025 26.1104 32.4521 25.7525 32.1441C25.5325 31.9534 25.4445 31.6498 25.5311 31.3726C25.6176 31.094 25.8611 30.893 26.15 30.8608C30.6292 30.3621 35.2081 28.806 35.2081 21.0546C35.2081 19.0306 34.5364 17.2677 33.2135 15.8201C33.0228 15.6104 32.9685 15.3112 33.0756 15.0486C33.2795 14.55 33.8441 12.7944 33.014 10.3582C32.3936 10.3758 30.8096 10.6354 28.1153 12.4702C27.9364 12.592 27.7135 12.6301 27.5052 12.57C25.9153 12.127 24.1421 11.888 22.3733 11.8777C20.5869 11.8865 18.8607 12.1197 17.2488 12.57C17.042 12.6316 16.8191 12.592 16.6387 12.4702C13.9547 10.6442 12.3707 10.3773 11.7312 10.3612C10.9055 12.7973 11.4716 14.5485 11.674 15.0486C11.7796 15.3112 11.7268 15.6104 11.5361 15.8186C10.2103 17.2721 9.53854 19.0336 9.53854 21.0546C9.53854 28.8016 14.1072 30.368 18.5761 30.8769C18.8636 30.9092 19.1056 31.1086 19.1921 31.3858C19.2787 31.6616 19.1936 31.9652 18.9765 32.1558C18.648 32.4448 18.0657 33.1414 17.8677 34.5612C17.834 34.8105 17.6727 35.0246 17.4424 35.1273C16.3424 35.623 12.5789 36.9416 10.3173 33.0549C10.3012 33.027 9.54734 31.7041 8.19948 31.3154C8.67761 31.6352 9.77908 32.565 10.5916 34.6374C10.6547 34.8325 11.7767 38.1706 16.9173 37.0516C17.1344 37.0061 17.3588 37.056 17.5319 37.1953C17.7049 37.3332 17.8061 37.5429 17.8076 37.7629L17.8237 40.9456C17.8267 41.6657 17.4761 42.3462 16.8836 42.7628C16.5081 43.0282 16.0652 43.1661 15.6179 43.1661Z" fill="#455A64"/>
<path d="M21.9893 44.375C9.8702 44.375 0.375 34.7111 0.375 22.375C0.375 17.0525 2.19073 11.9455 5.48633 7.9958C5.74447 7.68487 6.2094 7.64233 6.51887 7.9034C6.8298 8.163 6.87233 8.625 6.61273 8.93593C3.53567 12.6217 1.84167 17.3942 1.84167 22.375C1.84167 33.8898 10.6915 42.9083 21.9893 42.9083C33.5246 42.9083 42.9083 33.6977 42.9083 22.375C42.9083 11.0523 33.5246 1.84167 21.9893 1.84167C18.4091 1.84167 14.9317 2.751 11.9309 4.46993C11.5818 4.66793 11.1315 4.54767 10.9306 4.19713C10.7297 3.84513 10.8514 3.3978 11.2019 3.1954C14.4242 1.35033 18.1554 0.375 21.9893 0.375C34.3327 0.375 44.375 10.2442 44.375 22.375C44.375 34.5058 34.3327 44.375 21.9893 44.375Z" fill="#455A64"/>
<path d="M9.97143 5.58441C9.97143 5.98774 9.64143 6.31774 9.23809 6.31774C8.83476 6.31774 8.50476 5.98774 8.50476 5.58441C8.50476 5.18107 8.83476 4.85107 9.23809 4.85107C9.64143 4.85107 9.97143 5.17961 9.97143 5.58441Z" fill="#455A64"/>
</svg>

