<svg width="43" height="44" viewBox="0 0 43 44" fill="none" xmlns="http://www.w3.org/2000/svg">
<path fill-rule="evenodd" clip-rule="evenodd" d="M21.5005 1.45898C25.841 1.45898 30.0458 1.80597 33.9794 2.56933C37.3703 3.1245 39.8797 5.76157 40.49 9.23143C41.236 13.2564 41.5751 17.559 41.5751 22.0004C41.5751 26.4418 41.236 30.7444 40.49 34.7694C39.8797 38.2393 37.3703 40.8069 33.9794 41.4315C30.0458 42.1949 25.841 42.5419 21.5005 42.5419C17.1601 42.5419 12.9553 42.1949 9.02174 41.4315C5.63077 40.8069 3.12145 38.2393 2.51106 34.7694C1.76505 30.7444 1.42596 26.4418 1.42596 22.0004C1.42596 17.559 1.76506 13.2564 2.51106 9.23143C3.12144 5.76158 5.63077 3.1245 9.02174 2.56933C12.9553 1.80596 17.1601 1.45898 21.5005 1.45898Z" fill="#FF697B"/>
<path d="M21.5 44C16.9276 44 12.6402 43.6175 8.75701 42.8644C4.76402 42.1256 1.82944 39.1228 1.10981 35.0274C0.373833 31.0706 0 26.6812 0 22C0 17.3188 0.373833 12.9294 1.11215 8.95827C1.83411 4.85568 4.85047 1.77635 8.79673 1.13084C12.6355 0.382527 16.9252 0 21.5 0C26.0771 0 30.3668 0.382527 34.2453 1.13802C38.1472 1.77636 41.1659 4.8533 41.8925 8.97262C42.0935 9.93611 42.236 10.9426 42.3762 12.0209C42.4813 12.8194 41.9322 13.5534 41.1542 13.6586C40.3551 13.7661 39.6565 13.2067 39.5537 12.4082C39.4229 11.4064 39.2944 10.4716 39.0981 9.53446C38.5794 6.60814 36.486 4.45643 33.7547 4.00935C30.0093 3.28016 25.8995 2.91676 21.5 2.91676C17.1028 2.91676 12.993 3.28016 9.28738 4.00218C6.51402 4.45643 4.42056 6.60813 3.91355 9.48903C3.20561 13.2952 2.85047 17.5005 2.85047 22C2.85047 26.4995 3.20561 30.7048 3.91122 34.4966C4.41823 37.3775 6.47196 39.4814 9.27337 39.9978C12.9953 40.7198 17.1051 41.0832 21.5 41.0832C25.8972 41.0832 30.0047 40.7198 33.7126 40.0002C36.528 39.4814 38.5841 37.3775 39.0888 34.511C39.7944 30.7025 40.1495 26.4971 40.1495 22V20.8907C40.1495 20.085 40.7874 19.4323 41.5748 19.4323C42.3622 19.4323 43 20.085 43 20.8907V22C43 26.6788 42.6262 31.0659 41.8902 35.0393C41.1706 39.1252 38.2336 42.128 34.2313 42.8668C30.3621 43.6175 26.0748 44 21.5 44Z" fill="#444B54"/>
<path d="M41.4369 18.323C40.7289 18.323 40.1168 17.7827 40.0257 17.0463L39.9579 16.4917C39.8598 15.6931 40.4135 14.9639 41.1939 14.8635C41.986 14.7631 42.6869 15.3321 42.785 16.1283L42.8528 16.6829C42.9509 17.4815 42.3972 18.2106 41.6168 18.3111C41.5561 18.3182 41.4953 18.323 41.4369 18.323Z" fill="#444B54"/>
<path d="M16.0748 31.3693C11.0257 31.3693 6.91821 27.1663 6.91821 21.9999C6.91821 16.8334 11.0257 12.6304 16.0748 12.6304C18.3972 12.6304 20.6402 13.5293 22.3902 15.1622C22.9719 15.7049 23.014 16.6278 22.486 17.2207C21.9509 17.8184 21.0514 17.8566 20.4743 17.3187C19.2477 16.1759 17.6846 15.5471 16.0748 15.5471C12.5981 15.5471 9.76867 18.4424 9.76867 21.9999C9.76867 25.5573 12.5981 28.4526 16.0748 28.4526C19.5514 28.4526 22.3808 25.5573 22.3808 21.9999C22.3808 21.1942 23.0187 20.5415 23.8061 20.5415C24.5934 20.5415 25.2313 21.1942 25.2313 21.9999C25.2313 27.1663 21.1238 31.3693 16.0748 31.3693Z" fill="white"/>
<path d="M23.8061 23.4583H17.7032C16.9159 23.4583 16.278 22.8056 16.278 21.9999C16.278 21.1942 16.9159 20.5415 17.7032 20.5415H23.8061C24.5934 20.5415 25.2313 21.1942 25.2313 21.9999C25.2313 22.8056 24.5934 23.4583 23.8061 23.4583Z" fill="white"/>
<path d="M31.5374 26.6503C30.75 26.6503 30.1121 25.9976 30.1121 25.1919V18.8085C30.1121 18.0028 30.75 17.3501 31.5374 17.3501C32.3247 17.3501 32.9626 18.0028 32.9626 18.8085V25.1919C32.9626 25.9976 32.3247 26.6503 31.5374 26.6503Z" fill="white"/>
<path d="M34.6565 23.4583H28.4182C27.6308 23.4583 26.993 22.8056 26.993 21.9999C26.993 21.1942 27.6308 20.5415 28.4182 20.5415H34.6565C35.4439 20.5415 36.0818 21.1942 36.0818 21.9999C36.0818 22.8056 35.4439 23.4583 34.6565 23.4583Z" fill="white"/>
</svg>

