<svg width="461" height="548" viewBox="0 0 461 548" fill="none" xmlns="http://www.w3.org/2000/svg" xmlns:xlink="http://www.w3.org/1999/xlink">
<rect x="56.5995" y="56.4964" width="346.475" height="439.012" fill="url(#pattern0)"/>
<path d="M452.912 0H8.08772C3.61925 0 0 3.63947 0 8.08772L0 539.088C0 543.556 3.63947 547.175 8.08772 547.175H452.912C457.381 547.175 461 543.536 461 539.088V8.08772C461 3.61925 457.381 0 452.912 0ZM444.825 531H16.1754V16.1754H444.825V531Z" fill="#314E55"/>
<path d="M323.509 64.7016H396.298V136.662C396.298 141.131 399.938 144.73 404.386 144.73C408.834 144.73 412.474 141.11 412.474 136.642V56.6139C412.474 52.1657 408.834 48.5262 404.386 48.5262H323.509C319.04 48.5262 315.421 52.1657 315.421 56.6139C315.421 61.0622 319.04 64.7016 323.509 64.7016Z" fill="#314E55"/>
<path d="M56.6139 502.183H137.491C141.96 502.183 145.579 498.584 145.579 494.136C145.579 489.688 141.939 486.048 137.491 486.048H64.7017V414.088C64.7017 409.619 61.0622 406 56.6139 406C52.1657 406 48.5262 409.639 48.5262 414.088V494.136C48.5262 498.584 52.1657 502.183 56.6139 502.183Z" fill="#314E55"/>
<path d="M56.6139 144.73C61.0824 144.73 64.7017 141.11 64.7017 136.662V64.7016H137.491C141.96 64.7016 145.579 61.0824 145.579 56.6341C145.579 52.1859 141.96 48.5262 137.491 48.5262H56.6139C52.1657 48.5262 48.5262 52.1657 48.5262 56.6139V136.642C48.5262 141.11 52.1657 144.73 56.6139 144.73Z" fill="#314E55"/>
<path d="M323.509 502.183H404.386C408.855 502.183 412.474 498.584 412.474 494.136V414.088C412.474 409.619 408.834 406 404.386 406C399.938 406 396.298 409.639 396.298 414.088V486.048H323.509C319.04 486.048 315.421 489.688 315.421 494.136C315.421 498.584 319.04 502.183 323.509 502.183Z" fill="#314E55"/>
<defs>
<pattern id="pattern0" patternContentUnits="objectBoundingBox" width="1" height="1">
<use xlink:href="#image0" transform="translate(-0.628744) scale(0.000551144 0.000434972)"/>
</pattern>
<image id="image0" width="4096" height="2299" href="./my_image.png"/>
</defs>
</svg>
