<svg width="44" height="44" viewBox="0 0 44 44" fill="none" xmlns="http://www.w3.org/2000/svg">
<path fill-rule="evenodd" clip-rule="evenodd" d="M21.9657 1.44971C26.4694 1.44971 30.7653 1.86549 34.7146 2.55848C38.179 3.1822 40.8119 5.81556 41.4355 9.28055C42.1284 13.2306 42.5441 17.5272 42.5441 22.0316C42.5441 26.4668 42.1284 30.7633 41.4355 34.7134C40.8119 38.2477 38.179 40.8117 34.7146 41.4354C30.7653 42.1284 26.4694 42.5442 21.9657 42.5442C17.5313 42.5442 13.2355 42.1284 9.28611 41.4354C5.75244 40.8117 3.1888 38.2477 2.56521 34.7134C1.87234 30.7633 1.4566 26.4668 1.4566 22.0316C1.4566 17.5272 1.87233 13.2306 2.56521 9.28055C3.1888 5.81557 5.75245 3.1822 9.28611 2.55848C13.2355 1.86549 17.5313 1.44971 21.9657 1.44971Z" fill="#ED74A5"/>
<path d="M21.9654 44C17.6664 44 13.3148 43.6192 9.03488 42.8696C4.891 42.1366 1.86426 39.1094 1.13384 34.9672C0.38192 30.6949 0 26.3438 0 22.0321C0 17.675 0.38192 13.3001 1.13384 9.02896C1.86666 4.94289 4.9674 1.84281 9.03249 1.12538C17.6282 -0.383472 26.4697 -0.366761 34.9651 1.12538C39.035 1.85713 42.1333 4.9572 42.8686 9.0218C42.9378 9.50645 43.0142 9.93738 43.0905 10.3743C43.1884 10.9258 43.2863 11.4856 43.3627 12.0682C43.4701 12.8644 42.9091 13.5973 42.1119 13.7024C41.3265 13.8098 40.5842 13.2499 40.4791 12.4525C40.4075 11.9118 40.3144 11.3901 40.2237 10.8768C40.1426 10.4089 40.0614 9.94812 39.997 9.48616C39.4885 6.68213 37.3116 4.50479 34.4567 3.99149C26.3002 2.55904 17.8048 2.54113 9.53616 3.99269C6.64309 4.5024 4.52103 6.62841 3.99827 9.53868C3.27739 13.6379 2.91217 17.8434 2.91217 22.0321C2.91217 26.1743 3.27739 30.357 3.99827 34.4622C4.51864 37.4107 6.59057 39.4818 9.53855 40.0023C17.8144 41.4502 26.2787 41.4347 34.4638 40.0023C37.3665 39.4794 39.4909 37.3558 40.0041 34.4598C40.7226 30.3523 41.0878 26.1695 41.0878 22.0321V20.9231C41.0878 20.1198 41.7395 19.468 42.5439 19.468C43.3483 19.468 44 20.1198 44 20.9231V22.0321C44 26.3378 43.6181 30.6889 42.8686 34.9648C42.1501 39.0318 39.0493 42.133 34.9723 42.8684C30.6876 43.6192 26.3122 44 21.9654 44Z" fill="#444B54"/>
<path d="M42.3362 18.2896C41.5318 18.2896 40.8802 17.6378 40.8802 16.8344V16.2794C40.8802 15.476 41.5318 14.8242 42.3362 14.8242C43.1407 14.8242 43.7923 15.476 43.7923 16.2794V16.8344C43.7923 17.6378 43.1407 18.2896 42.3362 18.2896Z" fill="#444B54"/>
<path d="M28.4796 36.3075H15.5228C11.2047 36.3075 7.69101 32.7944 7.69101 28.4767V15.5178C7.69101 11.2001 11.2047 7.68701 15.5228 7.68701H28.4796C32.7953 7.68701 36.309 11.2001 36.309 15.5178V28.4767C36.309 32.7944 32.7953 36.3075 28.4796 36.3075ZM15.5228 10.5973C12.8088 10.5973 10.6032 12.8045 10.6032 15.5178V28.4767C10.6032 31.19 12.8088 33.3972 15.5228 33.3972H28.4796C31.1912 33.3972 33.3969 31.19 33.3969 28.4767V15.5178C33.3969 12.8045 31.1913 10.5973 28.4796 10.5973H15.5228V10.5973Z" fill="white"/>
<path d="M21.9654 29.4462C17.917 29.4462 14.6205 26.1205 14.6205 22.032C14.6205 17.9436 17.917 14.6167 21.9654 14.6167C26.1212 14.6167 29.3795 17.8743 29.3795 22.032C29.3795 26.1205 26.052 29.4462 21.9654 29.4462ZM21.9654 17.527C19.4781 17.527 17.5327 19.5062 17.5327 22.032C17.5327 24.515 19.5211 26.5359 21.9654 26.5359C24.4479 26.5359 26.4673 24.515 26.4673 22.032C26.4673 19.5061 24.4908 17.527 21.9654 17.527Z" fill="white"/>
<path fill-rule="evenodd" clip-rule="evenodd" d="M29.5874 16.072C30.4881 16.072 31.2503 15.3097 31.2503 14.4088C31.2503 13.5079 30.4881 12.7456 29.5874 12.7456C28.6866 12.7456 27.9938 13.5079 27.9938 14.4088C27.9938 15.3097 28.6866 16.072 29.5874 16.072Z" fill="white"/>
</svg>
