<svg width="44" height="44" viewBox="0 0 44 44" fill="none" xmlns="http://www.w3.org/2000/svg">
<path fill-rule="evenodd" clip-rule="evenodd" d="M22.0006 1.45508C26.442 1.45508 30.7446 1.80155 34.7696 2.56376C38.2394 3.18737 40.8071 5.75113 41.4317 9.21571C42.195 13.2346 42.542 17.5307 42.542 21.9653C42.542 26.4693 42.195 30.696 41.4317 34.7149C40.8071 38.1795 38.2394 40.8126 34.7696 41.4362C30.7446 42.1291 26.442 42.5448 22.0006 42.5448C17.5592 42.5448 13.2566 42.1291 9.23156 41.4362C5.76173 40.8126 3.19405 38.1795 2.56947 34.7149C1.80612 30.696 1.45914 26.4693 1.45914 21.9653C1.45914 17.5307 1.80612 13.2346 2.56947 9.21571C3.19404 5.75113 5.76173 3.18737 9.23156 2.56376C13.2566 1.80155 17.5592 1.45508 22.0006 1.45508Z" fill="#387FB5"/>
<path d="M22 44C17.7229 44 13.343 43.6204 8.98457 42.8697C4.94415 42.144 1.8696 39.0443 1.13562 34.973C0.372962 30.9661 0 26.7075 0 21.9654C0 17.289 0.382527 12.9085 1.13802 8.94347C1.87199 4.86621 4.87481 1.86795 8.97262 1.13151C12.9318 0.381946 17.3188 0 22 0C26.6835 0 31.0706 0.381946 35.0417 1.1339C39.1228 1.86675 42.1256 4.86502 42.8668 8.9566C43.0485 9.80523 43.1847 10.7565 43.3138 11.6624L43.3593 11.9895C43.474 12.7844 42.9194 13.522 42.1232 13.6354C41.3462 13.7524 40.5907 13.1974 40.476 12.4001L40.4282 12.0706C40.3086 11.2304 40.1843 10.3495 40.0074 9.51996C39.4814 6.61002 37.3775 4.51053 34.511 3.99609C30.7048 3.27398 26.4995 2.90994 22 2.90994C17.5029 2.90994 13.2975 3.27518 9.50337 3.9937C6.62248 4.51053 4.52097 6.61002 4.00456 9.47342C3.28016 13.2726 2.91676 17.4716 2.91676 21.9654C2.91676 26.5225 3.2706 30.6045 4.00218 34.443C4.52815 37.3637 6.62965 39.4895 9.48903 40.0039C17.8639 41.4434 26.1361 41.4446 34.5205 40.0027C37.3704 39.4895 39.4719 37.3649 39.9978 34.4562C40.7294 30.6009 41.0832 26.5189 41.0832 21.9654V20.9258C41.0832 20.1225 41.7359 19.4708 42.5416 19.4708C43.3473 19.4708 44 20.1225 44 20.9258V21.9654C44 26.7027 43.627 30.9626 42.8644 34.9861C42.1304 39.0455 39.0535 42.144 35.0274 42.8685C30.6594 43.6204 26.2795 44 22 44Z" fill="#444B54"/>
<path d="M42.4006 18.2929C41.6762 18.2929 41.0498 17.7546 40.9565 17.0182L40.8872 16.4632C40.7868 15.6658 41.3534 14.939 42.1543 14.8387C42.9313 14.7432 43.6796 15.3054 43.78 16.1027L43.8494 16.6577C43.9498 17.455 43.3832 18.1819 42.5823 18.2822C42.5225 18.2893 42.4603 18.2929 42.4006 18.2929Z" fill="#444B54"/>
<path d="M19.5016 33.3293C18.6959 33.3293 18.0432 32.6776 18.0432 31.8744V18.9169C18.0432 18.1136 18.6959 17.4619 19.5016 17.4619C20.3073 17.4619 20.96 18.1136 20.96 18.9169V31.8743C20.96 32.6776 20.3073 33.3293 19.5016 33.3293Z" fill="white"/>
<path d="M31.9935 33.3988C31.1878 33.3988 30.5351 32.7471 30.5351 31.9438V24.4601C30.5351 22.2818 28.7611 20.5105 26.5807 20.5105C24.2306 20.5105 20.96 22.5014 20.96 24.4601C20.96 25.2634 20.3073 25.915 19.5016 25.915C18.6959 25.915 18.0432 25.2633 18.0432 24.4601C18.0432 20.6597 22.7148 17.6006 26.5807 17.6006C30.3677 17.6006 33.4519 20.6776 33.4519 24.4601V31.9438C33.4519 32.7471 32.7992 33.3988 31.9935 33.3988Z" fill="white"/>
<path d="M13.6036 33.3293C12.7979 33.3293 12.1452 32.6776 12.1452 31.8744V18.9169C12.1452 18.1136 12.7979 17.4619 13.6036 17.4619C14.4093 17.4619 15.0619 18.1136 15.0619 18.9169V31.8743C15.0619 32.6776 14.4093 33.3293 13.6036 33.3293Z" fill="white"/>
<path fill-rule="evenodd" clip-rule="evenodd" d="M13.6036 15.3133C14.5057 15.3133 15.2691 14.5511 15.2691 13.6503C15.2691 12.7495 14.5057 11.9873 13.6036 11.9873C12.7014 11.9873 12.0075 12.7495 12.0075 13.6503C12.0075 14.5511 12.7014 15.3133 13.6036 15.3133Z" fill="white"/>
</svg>
