<svg width="44" height="44" viewBox="0 0 44 44" fill="none" xmlns="http://www.w3.org/2000/svg">
<path d="M43.9871 0H0.0128906C0.00577133 0 0 0.00577133 0 0.0128906V43.9871C0 43.9942 0.00577133 44 0.0128906 44H43.9871C43.9942 44 44 43.9942 44 43.9871V0.0128906C44 0.00577133 43.9942 0 43.9871 0Z" fill="#052D49"/>
<path d="M26.6406 28.875C32.0038 28.875 36.3516 24.5273 36.3516 19.1641C36.3516 13.8009 32.0038 9.45312 26.6406 9.45312C21.2774 9.45312 16.9297 13.8009 16.9297 19.1641C16.9297 24.5273 21.2774 28.875 26.6406 28.875Z" fill="white"/>
<path d="M14.1797 35.2344V9.45312H9.36719V35.2344" fill="#F96854"/>
</svg>

