<svg width="44" height="44" viewBox="0 0 44 44" fill="none" xmlns="http://www.w3.org/2000/svg">
<path fill-rule="evenodd" clip-rule="evenodd" d="M22.0347 1.4502C26.4694 1.4502 30.7656 1.86597 34.7153 2.55894C38.2493 3.18261 40.8131 5.81594 41.4368 9.28079C42.1297 13.2307 42.5455 17.5272 42.5455 22.0315C42.5455 26.4666 42.1297 30.763 41.4368 34.7822C40.8131 38.2471 38.2493 40.8111 34.7153 41.4348C30.7656 42.1278 26.4694 42.5436 22.0347 42.5436C17.5306 42.5436 13.2344 42.1278 9.28472 41.4348C5.82006 40.8111 3.18692 38.2471 2.56328 34.7822C1.87035 30.763 1.45459 26.4665 1.45459 22.0315C1.45459 17.5272 1.87035 13.2307 2.56328 9.28079C3.18692 5.81594 5.82007 3.18261 9.28472 2.55894C13.2344 1.86597 17.5306 1.4502 22.0347 1.4502Z" fill="#387FB5"/>
<path d="M22.0352 44C17.6785 44 13.304 43.618 9.03323 42.866C4.95466 42.1331 1.85486 39.0606 1.13154 35.0402C0.37957 30.6833 0 26.3096 0 22.0315C0 17.6769 0.380758 13.3009 1.13035 9.02991C1.86204 4.95946 4.96184 1.86065 9.02607 1.12535C17.5461 -0.36675 26.368 -0.383461 34.9656 1.12535C39.0334 1.84395 42.1344 4.94513 42.8697 9.02275C43.0761 9.98246 43.2206 10.9899 43.3638 12.0666C43.47 12.864 42.9114 13.5969 42.1141 13.702C41.3204 13.8166 40.5851 13.2508 40.4801 12.4534C40.3464 11.4531 40.2139 10.5172 40.0145 9.58616C39.481 6.62822 37.3564 4.50347 34.4619 3.99018C26.1985 2.54583 17.7108 2.56016 9.53575 3.99018C6.68659 4.50585 4.50945 6.68313 3.9962 9.53842C3.27646 13.6399 2.91002 17.844 2.91002 22.0315C2.91002 26.1449 3.27646 30.3514 3.9974 34.5341C4.50945 37.3798 6.63528 39.4783 9.5429 40.0012C17.6953 41.4336 26.2069 41.4527 34.4631 40.0012C37.3647 39.4879 39.4882 37.3894 40.005 34.5246C40.7247 30.3491 41.09 26.1425 41.09 22.0315V20.9214C41.09 20.1168 41.7417 19.4651 42.545 19.4651C43.3483 19.4651 44 20.1168 44 20.9214V22.0315C44 26.3073 43.6204 30.6809 42.8708 35.0283C42.1308 39.1393 39.1026 42.1379 34.968 42.866C30.696 43.618 26.3453 44 22.0352 44Z" fill="#444B54"/>
<path d="M42.3371 18.2897C41.5338 18.2897 40.8821 17.6379 40.8821 16.8334V16.2795C40.8821 15.475 41.5338 14.8232 42.3371 14.8232C43.1404 14.8232 43.7921 15.475 43.7921 16.2795V16.8334C43.7921 17.6379 43.1404 18.2897 42.3371 18.2897Z" fill="#444B54"/>
<path d="M16.0062 30.0703H10.6015C10.1432 30.0703 9.71108 29.853 9.43654 29.4854C9.16201 29.1201 9.07607 28.645 9.20498 28.2058L14.7481 9.28829C14.9295 8.66757 15.4989 8.24023 16.1446 8.24023H26.4001C27.9876 8.24023 29.3889 8.9087 30.2423 10.0737C31.1364 11.2913 31.3524 12.929 30.8368 14.5691L29.6706 18.6849C28.7109 21.7455 25.5753 24.1114 22.5197 24.1114H18.8875L17.3991 29.0342C17.2129 29.6501 16.6471 30.0703 16.0062 30.0703ZM12.5447 27.1577H14.926L16.4144 22.235C16.6006 21.619 17.1664 21.1988 17.8073 21.1988H22.5197C24.3149 21.1988 26.313 19.6662 26.8823 17.8518L28.0485 13.7359C28.298 12.9386 28.2407 12.2629 27.8957 11.795C27.5878 11.3748 27.0697 11.1528 26.4001 11.1528H17.2344L12.5447 27.1577Z" fill="white"/>
<path d="M19.8175 35.7549H14.3436C13.8852 35.7549 13.4543 35.5377 13.1786 35.1724C12.9041 34.8047 12.8181 34.3297 12.947 33.8904L14.6097 28.2061C14.8365 27.4326 15.6482 26.9885 16.4145 27.2177C17.1867 27.4421 17.6284 28.2514 17.4028 29.0225L16.2856 32.8423H18.7289L20.1529 27.996C20.3355 27.3777 20.9036 26.9503 21.5494 26.9503H26.331C28.0987 26.9503 30.0992 25.3723 30.6137 23.5746L31.8658 19.3967C32.077 18.659 32.0078 17.9929 31.6652 17.5369C31.3513 17.1239 30.8249 16.9043 30.1422 16.9043H29.1026C28.2993 16.9043 27.6475 16.2525 27.6475 15.448C27.6475 14.6435 28.2993 13.9917 29.1026 13.9917H30.1422C31.7512 13.9917 33.1167 14.6291 33.988 15.7846C34.8808 16.9687 35.1255 18.5826 34.6588 20.2156L33.4067 24.391C32.533 27.4516 29.4224 29.8629 26.331 29.8629H22.638L21.214 34.7092C21.0314 35.3276 20.4632 35.7549 19.8175 35.7549ZM19.1932 19.3299C19.0488 19.3299 18.902 19.3084 18.7563 19.2606C17.9901 19.0195 17.5639 18.203 17.805 17.4367L18.5678 15.0111C18.7587 14.4047 19.3209 13.9917 19.9559 13.9917H24.5298C25.3331 13.9917 25.9848 14.6435 25.9848 15.448C25.9848 16.2526 25.3331 16.9043 24.5298 16.9043H21.0242L20.5814 18.3105C20.3856 18.9312 19.8127 19.3299 19.1932 19.3299Z" fill="white"/>
</svg>

