<svg width="44" height="44" viewBox="0 0 44 44" fill="none" xmlns="http://www.w3.org/2000/svg">
<path fill-rule="evenodd" clip-rule="evenodd" d="M21.9655 1.44873C26.4694 1.44873 30.7655 1.86454 34.7151 2.55756C38.1796 3.1813 40.8127 5.8148 41.4363 9.27994C42.1292 13.2302 42.545 17.527 42.545 22.0316C42.545 26.467 42.1292 30.7637 41.4363 34.714C40.8127 38.2484 38.1796 40.8126 34.7151 41.4363C30.7655 42.1294 26.4694 42.5452 21.9655 42.5452C17.5308 42.5452 13.2347 42.1294 9.28514 41.4363C5.75128 40.8126 3.1875 38.2484 2.56387 34.714C1.87096 30.7637 1.45522 26.467 1.45522 22.0316C1.45522 17.5269 1.87096 13.2302 2.56387 9.27994C3.1875 5.8148 5.75128 3.1813 9.28514 2.55756C13.2347 1.86453 17.5308 1.44873 21.9655 1.44873Z" fill="#FF697B"/>
<path d="M21.9654 44C17.6602 44 13.3096 43.6204 9.03419 42.8707C4.89009 42.1377 1.86198 39.1103 1.13032 34.9667C0.38075 30.6835 0 26.3322 0 22.0322C0 17.6845 0.38075 13.3105 1.13032 9.02969C1.86675 4.94222 4.96766 1.842 9.03179 1.12454C17.6267 -0.383191 26.4676 -0.366479 34.967 1.12454C39.0383 1.85752 42.1368 4.95654 42.8685 9.02252L43.026 10.0122C43.1406 10.7034 43.254 11.3957 43.303 12.0869C43.3602 12.8892 42.7563 13.5851 41.9554 13.6424C41.1247 13.6997 40.4587 13.0969 40.4002 12.2947C40.3572 11.693 40.2546 11.0913 40.1543 10.4909L39.9956 9.48571C39.4907 6.68155 37.3136 4.50411 34.4574 3.99079C26.3017 2.55946 17.7986 2.54394 9.53668 3.99198C6.64345 4.50172 4.52008 6.62782 3.9961 9.53823C3.27637 13.6472 2.90994 17.8528 2.90994 22.0322C2.90994 26.1651 3.27637 30.3468 3.99729 34.463C4.51768 37.4104 6.58973 39.4828 9.53787 40.0032C17.801 41.4525 26.2897 41.4358 34.4645 40.0032C37.3673 39.4804 39.4931 37.3555 40.0027 34.4606C40.7236 30.354 41.0901 26.1722 41.0901 22.0322V20.9232C41.0901 20.1198 41.7418 19.468 42.545 19.468C43.3483 19.468 44 20.1198 44 20.9232V22.0322C44 26.3405 43.6193 30.6918 42.8697 34.9655C42.1523 39.0315 39.0526 42.1341 34.973 42.8695C30.6904 43.6204 26.316 44 21.9654 44Z" fill="#444B54"/>
<path d="M42.3373 18.2897C41.5341 18.2897 40.8824 17.6379 40.8824 16.8345V16.2794C40.8824 15.476 41.5341 14.8242 42.3373 14.8242C43.1406 14.8242 43.7923 15.476 43.7923 16.2794V16.8345C43.7923 17.6379 43.1406 18.2897 42.3373 18.2897Z" fill="#444B54"/>
<path d="M18.7105 26.0516C18.6031 26.0516 18.4933 26.0397 18.3835 26.0146C17.6005 25.8355 17.1111 25.0548 17.2913 24.2705L19.2309 15.815C19.4111 15.0331 20.1846 14.546 20.9747 14.7227C21.7577 14.9018 22.2471 15.6825 22.0668 16.4668L20.1273 24.9223C19.9733 25.5956 19.3741 26.0516 18.7105 26.0516Z" fill="white"/>
<path d="M23.7689 28.5885C20.0401 28.5885 17.5086 26.2201 16.5812 23.6093C15.5786 20.7885 16.2243 16.9935 19.9267 14.8781C20.625 14.4782 21.513 14.7205 21.9117 15.4189C22.3115 16.1172 22.0692 17.0054 21.371 17.4041C18.9743 18.7746 18.7702 21.0785 19.324 22.6352C19.922 24.3184 21.7279 26.0983 24.8455 25.585C29.4026 24.8437 29.9898 20.755 30.0614 19.5195C30.2476 16.3142 28.579 12.333 24.4767 11.1655C21.3041 10.2272 17.604 11.4937 15.4795 14.2418C13.4731 16.8406 13.4122 20.139 15.3124 23.2894C15.7277 23.9782 15.5057 24.8723 14.8182 25.2878C14.1331 25.7032 13.2367 25.48 12.8202 24.7935C10.3041 20.6201 10.4366 16.011 13.1771 12.4631C16.0166 8.78509 20.9974 7.09829 25.2871 8.36965C30.9172 9.97169 33.2184 15.3604 32.9678 19.6878C32.6992 24.3017 29.6962 27.7445 25.3169 28.4572C24.7798 28.5456 24.263 28.5874 23.7689 28.5885Z" fill="white"/>
<path d="M16.4236 36.0305C16.3198 36.0305 16.2135 36.0198 16.1073 35.9959C15.3219 35.8216 14.8278 35.0445 15.0021 34.2602L16.1109 29.269C16.2852 28.4859 17.0598 27.9905 17.8464 28.1648C18.6317 28.3391 19.1259 29.1162 18.9516 29.9005L17.8428 34.8917C17.6924 35.5697 17.0908 36.0305 16.4236 36.0305Z" fill="white"/>
</svg>

