<svg width="499" height="499" viewBox="0 0 499 499" fill="none" xmlns="http://www.w3.org/2000/svg">
<path d="M57.5769 469.059H11.5154C8.44461 469.059 5.37384 471.362 5.37384 475.201C5.37384 479.039 7.67692 481.342 11.5154 481.342H57.5769C60.6477 481.342 63.7185 479.039 63.7185 475.201C63.7185 471.362 60.6477 469.059 57.5769 469.059Z" fill="#1C1F20"/>
<path d="M88.2846 469.059H80.6077C77.5369 469.059 74.4662 471.362 74.4662 475.201C74.4662 479.039 76.7692 481.342 80.6077 481.342H88.2846C91.3554 481.342 94.4262 479.039 94.4262 475.201C94.4262 471.362 91.3554 469.059 88.2846 469.059Z" fill="#1C1F20"/>
<path d="M487.485 31.4745H477.505V22.2621C477.505 19.1914 475.202 16.1206 471.363 16.1206C467.525 16.1206 465.222 18.4237 465.222 22.2621V32.2421H455.242C452.171 32.2421 449.1 34.5452 449.1 38.3837C449.1 42.2221 451.403 44.5252 455.242 44.5252H465.222V54.5052C465.222 57.576 467.525 60.6468 471.363 60.6468C475.202 60.6468 477.505 58.3437 477.505 54.5052V42.9898H487.485C490.555 42.9898 493.626 40.6868 493.626 36.8483C493.626 33.0098 490.555 31.4745 487.485 31.4745Z" fill="#1C1F20"/>
<path d="M42.223 403.805H380.008C399.968 403.805 416.857 387.684 416.857 366.956V36.0809C416.857 34.5455 416.089 33.0101 415.322 32.2424L389.988 7.67628C387.685 5.37321 383.846 5.37321 381.543 7.67628L360.815 28.404L340.088 7.67628C337.785 5.37321 333.946 5.37321 331.643 7.67628L310.915 28.404L290.188 7.67628C287.885 5.37321 284.046 5.37321 281.743 7.67628L261.015 28.404L240.288 7.67628C237.985 5.37321 234.146 5.37321 231.843 7.67628L211.115 28.404L190.388 7.67628C188.085 5.37321 184.246 5.37321 181.943 7.67628L161.215 28.404L140.488 7.67628C138.185 5.37321 134.346 5.37321 132.043 7.67628L111.315 28.404L90.5877 7.67628C88.2846 5.37321 84.4461 5.37321 82.1431 7.67628L61.4154 28.404L40.6877 7.67628C38.3846 5.37321 34.5461 5.37321 32.243 7.67628L7.67689 32.2424C6.14151 33.7778 6.14151 34.5455 6.14151 36.0809V366.956C6.14151 387.684 22.263 403.805 42.223 403.805ZM17.6569 39.1517L36.8492 19.9594L57.5769 40.687C59.88 42.9901 63.7184 42.9901 66.0215 40.687L86.7492 19.9594L107.477 40.687C109.78 42.9901 113.618 42.9901 115.922 40.687L136.649 19.9594L157.377 40.687C159.68 42.9901 163.518 42.9901 165.822 40.687L186.549 19.9594L207.277 40.687C209.58 42.9901 213.418 42.9901 215.722 40.687L236.449 19.9594L257.177 40.687C259.48 42.9901 263.318 42.9901 265.622 40.687L286.349 19.9594L307.077 40.687C309.38 42.9901 313.218 42.9901 315.522 40.687L336.249 19.9594L356.977 40.687C359.28 42.9901 363.118 42.9901 365.422 40.687L386.149 19.9594L405.342 39.1517V367.724C405.342 381.542 393.826 393.058 380.008 393.058H42.223C28.4046 393.058 16.8892 381.542 16.8892 367.724V39.1517H17.6569Z" fill="#1C1F20"/>
<path d="M42.2231 142.791H380.008C383.078 142.791 386.149 140.488 386.149 136.649V59.8801C386.149 56.8093 383.846 53.7385 380.008 53.7385H42.2231C39.1523 53.7385 36.0815 56.0416 36.0815 59.8801V136.649C36.8492 140.488 39.1523 142.791 42.2231 142.791ZM48.3646 66.0216H374.634V131.275H48.3646V66.0216Z" fill="#1C1F20"/>
<path d="M287.885 231.074C251.035 231.074 220.328 261.014 220.328 298.631C220.328 336.248 250.268 366.188 287.885 366.188C325.502 366.188 355.442 336.248 355.442 298.631C355.442 261.014 324.734 231.074 287.885 231.074ZM343.158 292.49H323.966C323.198 274.833 318.592 259.479 312.451 248.731C329.34 257.176 341.623 273.298 343.158 292.49ZM282.511 244.893V293.258H263.318C264.086 267.924 272.531 250.267 282.511 244.893ZM282.511 304.005V352.37C273.298 346.996 264.854 328.571 263.318 304.005H282.511ZM294.026 352.37V304.005H313.218C311.683 328.571 303.238 346.996 294.026 352.37ZM294.026 292.49V244.125C303.238 249.499 311.683 267.924 313.218 292.49H294.026ZM263.318 248.731C256.409 259.479 252.571 274.833 251.803 292.49H232.611C234.146 273.298 246.429 257.176 263.318 248.731ZM232.611 304.005H251.803C252.571 321.662 257.177 337.016 263.318 347.764C246.429 340.087 234.146 323.198 232.611 304.005ZM312.451 348.531C319.36 337.784 323.198 322.43 323.966 304.773H343.158C341.623 323.198 329.34 340.087 312.451 348.531Z" fill="#1C1F20"/>
<path d="M42.2231 181.175H380.008C383.078 181.175 386.149 178.872 386.149 175.034C386.149 171.195 383.846 168.892 380.008 168.892H42.2231C39.1523 168.892 36.0815 171.195 36.0815 175.034C36.0815 178.872 39.1523 181.175 42.2231 181.175Z" fill="#1C1F20"/>
<path d="M42.2231 211.883H380.008C383.078 211.883 386.149 209.58 386.149 205.742C386.149 201.903 383.846 199.6 380.008 199.6H42.2231C39.1523 199.6 36.0815 201.903 36.0815 205.742C36.0815 209.58 39.1523 211.883 42.2231 211.883Z" fill="#1C1F20"/>
<path d="M42.2231 242.591H195.762C198.832 242.591 201.903 240.288 201.903 236.449C201.903 232.611 199.6 230.308 195.762 230.308H42.2231C39.1523 230.308 36.0815 232.611 36.0815 236.449C36.0815 240.288 39.1523 242.591 42.2231 242.591Z" fill="#1C1F20"/>
<path d="M42.2231 273.298H195.762C198.832 273.298 201.903 270.995 201.903 267.157C201.903 263.318 199.6 261.015 195.762 261.015H42.2231C39.1523 261.015 36.0815 263.318 36.0815 267.157C36.0815 270.995 39.1523 273.298 42.2231 273.298Z" fill="#1C1F20"/>
<path d="M42.2231 304.006H195.762C198.832 304.006 201.903 301.703 201.903 297.865C201.903 294.026 199.6 291.723 195.762 291.723H42.2231C39.1523 291.723 36.0815 294.026 36.0815 297.865C36.0815 301.703 39.1523 304.006 42.2231 304.006Z" fill="#1C1F20"/>
<path d="M42.2231 334.714H195.762C198.832 334.714 201.903 332.411 201.903 328.572C201.903 324.734 199.6 322.431 195.762 322.431H42.2231C39.1523 322.431 36.0815 324.734 36.0815 328.572C36.0815 332.411 39.1523 334.714 42.2231 334.714Z" fill="#1C1F20"/>
<path d="M42.2231 365.422H195.762C198.832 365.422 201.903 363.118 201.903 359.28C201.903 355.442 199.6 353.138 195.762 353.138H42.2231C39.1523 353.138 36.0815 355.442 36.0815 359.28C36.0815 363.118 39.1523 365.422 42.2231 365.422Z" fill="#1C1F20"/>
<path d="M446.797 195.762C446.029 192.691 442.958 190.388 439.888 191.155C436.817 191.923 434.514 194.994 435.282 198.065L478.272 399.968C479.04 402.271 478.272 405.342 476.737 406.877C475.202 409.18 472.898 410.715 470.595 410.715L140.488 480.575C135.114 481.343 130.508 478.272 128.972 472.898L118.992 426.837C118.225 423.766 115.154 421.463 112.083 422.231C109.012 422.998 106.709 426.069 107.477 429.14L117.457 475.202C119.76 485.182 128.205 492.091 138.185 492.091C139.72 492.091 141.255 492.091 142.791 491.323L472.898 421.463C478.272 419.928 482.878 416.857 485.949 412.251C489.02 407.645 489.788 401.503 489.02 396.129L446.797 195.762Z" fill="#1C1F20"/>
</svg>

