<svg width="517" height="535" viewBox="0 0 517 535" fill="none" xmlns="http://www.w3.org/2000/svg">
<path d="M77.5689 314.373C77.5689 296.458 92.0917 281.935 110.006 281.935H508.989C514.671 281.935 517.607 291.407 513.541 295.376C503.372 305.298 492.673 320.73 492.673 341.732C492.673 363.41 504.075 379.481 514.52 389.656C518.542 393.574 515.671 402.642 510.054 402.642H110.006C92.0917 402.642 77.5689 388.119 77.5689 370.205V314.373Z" fill="black"/>
<path d="M304.778 86.6733C304.778 117.842 281.655 154.396 235.407 154.396C189.159 154.396 166.036 117.842 166.036 86.6733C166.036 53.0703 187.934 45.7767 211.67 46.4854C221.412 46.7763 235.407 54.1931 235.407 54.1931C235.407 54.1931 249.402 46.7763 259.144 46.4854C282.88 45.7767 304.778 52.8113 304.778 86.6733Z" fill="#9AD395" stroke="black" stroke-width="2" stroke-linecap="round" stroke-linejoin="round"/>
<path d="M255.93 134.163C263.156 131.368 278.938 120.404 284.256 98.8987" stroke="black" stroke-width="2" stroke-linecap="round" stroke-linejoin="round"/>
<path d="M237.198 51.9379C222.945 52.0725 209.909 42.4056 206.466 14.8289C220.046 20.1221 242.164 17.6417 237.198 51.9379Z" fill="white" stroke="black" stroke-width="2" stroke-linecap="round" stroke-linejoin="round"/>
<path d="M237.431 51.4958C243.79 43.547 253.328 18.9778 245.09 1.05713" stroke="black" stroke-width="2" stroke-linecap="round" stroke-linejoin="round"/>
<path d="M197.257 95.9178C194.289 90.3564 193.452 81.1831 196.482 74.1301" stroke="black" stroke-width="2" stroke-linecap="round" stroke-linejoin="round"/>
<path d="M39.0717 192.883C39.0717 174.968 53.5945 160.446 71.5092 160.446H458.21C458.21 160.446 428.264 179.774 425.147 216.301C422.029 252.829 458.21 271.903 458.21 271.903H71.5092C53.5945 271.903 39.0717 257.38 39.0717 239.465V192.883Z" fill="#C9C9C9"/>
<path fill-rule="evenodd" clip-rule="evenodd" d="M464.096 169.516C464.09 169.519 464.085 169.523 464.08 169.526L463.977 169.597C463.836 169.691 463.598 169.857 463.274 170.092C462.625 170.564 461.636 171.315 460.408 172.339C457.945 174.394 454.584 177.504 451.134 181.621C444.212 189.881 437.235 201.811 435.92 217.221C434.709 231.413 441.02 242.449 448.438 250.448C452.132 254.433 455.946 257.476 458.839 259.517C460.275 260.53 461.458 261.278 462.247 261.753C462.636 261.99 462.928 262.158 463.107 262.256C463.193 262.305 463.247 262.336 463.274 262.35L463.263 262.346L463.258 262.342C463.269 262.347 463.279 262.351 463.285 262.356C467.659 264.682 469.897 269.687 468.707 274.5C467.513 279.326 463.182 282.715 458.21 282.715H71.5091C47.6227 282.715 28.2591 263.352 28.2591 239.465V192.883C28.2591 168.997 47.6227 149.633 71.5091 149.633H458.21C463.004 149.633 467.226 152.79 468.583 157.389C469.935 161.975 468.113 166.902 464.107 169.507C464.101 169.511 464.101 169.513 464.096 169.516ZM443.759 261.09C451.287 268.254 458.21 271.903 458.21 271.903H71.5091C53.5944 271.903 39.0716 257.38 39.0716 239.465V192.883C39.0716 174.968 53.5944 160.446 71.5091 160.446H458.21C458.21 160.446 452.535 164.108 445.869 171.258C437.222 180.532 426.907 195.675 425.147 216.301C423.393 236.851 434.077 251.877 443.759 261.09Z" fill="black"/>
<path d="M11.3229 445.11C11.3229 427.196 25.8457 412.673 43.7604 412.673H430.461C430.461 412.673 403.302 429.653 398.791 467.69C394.281 505.734 430.461 524.131 430.461 524.131H43.7604C25.8457 524.131 11.3229 509.605 11.3229 491.694V445.11Z" fill="#C9C9C9"/>
<path fill-rule="evenodd" clip-rule="evenodd" d="M436.22 421.824C436.218 421.825 436.221 421.823 436.22 421.824C436.214 421.828 436.208 421.832 436.202 421.835C436.201 421.835 436.202 421.835 436.202 421.835L436.22 421.824ZM418.389 423.485C424.898 416.151 430.461 412.673 430.461 412.673H43.7604C25.8457 412.673 11.3229 427.196 11.3229 445.11V491.694C11.3229 509.605 25.8457 524.131 43.7604 524.131H430.461C430.461 524.131 423.443 520.563 415.974 513.319C406.485 504.112 396.267 488.98 398.791 467.69C401.26 446.869 410.516 432.356 418.389 423.485ZM435.37 514.497C435.38 514.503 435.391 514.508 435.402 514.514C435.406 514.514 435.405 514.514 435.402 514.514C439.833 516.79 442.138 521.801 440.975 526.651C439.81 531.511 435.462 534.944 430.461 534.944H43.7604C19.8739 534.944 0.510376 515.579 0.510376 491.694V445.11C0.510376 421.224 19.8739 401.86 43.7604 401.86H430.461C435.284 401.86 439.524 405.055 440.854 409.691C442.178 414.307 440.3 419.24 436.248 421.806C436.239 421.812 436.228 421.819 436.22 421.824L435.37 514.497ZM435.395 514.508C435.373 514.497 435.319 514.47 435.236 514.422C435.069 514.33 434.785 514.173 434.401 513.946C433.633 513.497 432.475 512.778 431.068 511.794C428.235 509.816 424.513 506.848 420.945 502.912C413.854 495.094 407.75 483.963 409.528 468.966C411.494 452.388 418.359 440.509 424.69 432.759C427.867 428.871 430.9 426.039 433.08 424.218C434.166 423.31 435.032 422.661 435.584 422.265C435.859 422.067 436.056 421.933 436.162 421.863L436.22 421.824L436.208 421.831L436.202 421.835L435.395 514.508ZM435.395 514.508H435.389L435.377 514.497" fill="black"/>
<path d="M109.961 314.605H362.01" stroke="#C9C9C9" stroke-width="2" stroke-linecap="round" stroke-linejoin="round"/>
<path d="M109.961 342.291H247.547" stroke="#C9C9C9" stroke-width="2" stroke-linecap="round" stroke-linejoin="round"/>
<path d="M335.996 156.736H380.796V223.019C380.796 227.836 374.973 230.248 371.567 226.842L362.219 217.493C360.108 215.382 356.684 215.382 354.573 217.493L345.225 226.842C341.819 230.248 335.996 227.836 335.996 223.019V156.736Z" fill="black"/>
<path d="M35.9641 440.718H288.014" stroke="black" stroke-width="2" stroke-linecap="round" stroke-linejoin="round"/>
<path d="M35.9641 468.404H173.551" stroke="black" stroke-width="2" stroke-linecap="round" stroke-linejoin="round"/>
<path d="M68.3378 189.354H279.921" stroke="black" stroke-width="2" stroke-linecap="round" stroke-linejoin="round"/>
</svg>

