<svg width="44" height="44" viewBox="0 0 44 44" fill="none" xmlns="http://www.w3.org/2000/svg">
<path fill-rule="evenodd" clip-rule="evenodd" d="M21.9998 1.45703C26.4416 1.45703 30.7446 1.80405 34.7699 2.56746C38.24 3.19208 40.8773 5.75989 41.4325 9.2299C42.196 13.2551 42.543 17.558 42.543 21.9996C42.543 26.5106 42.196 30.7441 41.4325 34.7693C40.8773 38.2394 38.24 40.8766 34.7699 41.5012C30.7446 42.1952 26.4416 42.5422 21.9998 42.5422C17.5581 42.5422 13.2551 42.1952 9.2298 41.5012C5.75968 40.8766 3.19179 38.2393 2.56717 34.7693C1.80374 30.7441 1.45673 26.5106 1.45673 21.9996C1.45673 17.558 1.80374 13.2551 2.56717 9.2299C3.19179 5.7599 5.75968 3.19209 9.2298 2.56746C13.2551 1.80405 17.5581 1.45703 21.9998 1.45703Z" fill="#FC913A"/>
<path d="M21.9994 44C17.4506 44 13.0703 43.6414 8.98291 42.9384C4.94454 42.2116 1.86735 39.1082 1.13213 35.0269C0.370603 31.0102 0 26.7448 0 21.9988C0 17.3198 0.381366 12.9325 1.13452 8.95875C1.87094 4.87387 4.87521 1.86969 8.97215 1.13329C12.9316 0.382545 17.3191 0 21.9994 0C26.6809 0 31.0684 0.382545 35.041 1.13568C39.1475 1.87448 42.2259 4.96235 42.8715 9.0006C43.0496 9.82068 43.1871 10.7758 43.315 11.6844L43.3616 12.0084C43.4752 12.8045 42.9217 13.5421 42.1243 13.6569C41.3448 13.7669 40.5905 13.2194 40.4757 12.4196L40.4291 12.0944C40.3107 11.2517 40.1864 10.3682 40.0071 9.53736C39.5456 6.66348 37.3937 4.52002 34.5114 4.00239C30.7038 3.27914 26.4992 2.91452 21.9994 2.91452C17.5008 2.91452 13.2962 3.27914 9.50176 4C6.62063 4.51763 4.51776 6.62044 4.00131 9.48834C3.27923 13.2971 2.9146 17.5015 2.9146 21.9988C2.9146 26.5607 3.26967 30.6491 3.99891 34.4961C4.52612 37.4226 6.6278 39.5529 9.4886 40.0669C17.3167 41.413 26.6726 41.4154 34.5222 40.0645C37.3877 39.5505 39.5384 37.3795 39.9927 34.5391C40.7303 30.6515 41.0854 26.563 41.0854 21.9988V20.9587C41.0854 20.153 41.7381 19.5003 42.5427 19.5003C43.3473 19.5003 44 20.153 44 20.9588V21.9988C44 26.7472 43.6282 31.0125 42.8643 35.0412C42.2187 39.0819 39.1403 42.1972 35.0279 42.936C30.9297 43.6414 26.5494 44 21.9994 44Z" fill="#444B54"/>
<path d="M42.4016 18.3218C41.6784 18.3218 41.0495 17.7814 40.9575 17.045L40.8881 16.4903C40.7889 15.6918 41.3556 14.9625 42.1542 14.8621C42.936 14.7593 43.6808 15.3283 43.7812 16.1269L43.8505 16.6816C43.9498 17.4802 43.3831 18.2094 42.5845 18.3098C42.5236 18.317 42.4626 18.3218 42.4016 18.3218Z" fill="#444B54"/>
<path d="M21.9994 37.2697C15.9048 37.2697 10.6028 34.6445 8.49156 30.5824C8.12096 29.8675 8.39832 28.9876 9.11322 28.617C9.82693 28.244 10.708 28.5262 11.0786 29.2387C12.6686 32.299 17.0572 34.3528 21.9994 34.3528C28.3522 34.3528 33.5203 30.9912 33.5203 26.8573C33.5203 26.6804 33.5191 26.6158 33.494 26.5178C33.3135 25.7957 33.7068 25.0522 34.405 24.7963C35.1988 24.5047 35.6722 23.8472 35.6722 23.0414C35.6722 22.0444 34.7959 21.1693 33.7977 21.1693C33.3314 21.1693 32.821 21.3893 32.5281 21.7192C32.0308 22.2835 31.1808 22.3743 30.5758 21.9249C28.3618 20.2967 25.2356 19.3642 21.9994 19.3642C18.8074 19.3642 15.7075 20.2967 13.4935 21.9249C12.9149 22.3552 12.1103 22.2907 11.5998 21.7814C11.3201 21.5017 10.8503 21.1693 10.2011 21.1693C9.20287 21.1693 8.32777 22.0444 8.32777 23.0414C8.32777 23.8495 8.80118 24.5047 9.59379 24.7963C10.3493 25.0737 10.7367 25.9129 10.4581 26.6684C10.1796 27.424 9.34154 27.8113 8.58718 27.5316C6.65886 26.8215 5.41315 25.0594 5.41315 23.0414C5.41315 20.4473 7.60568 18.2524 10.2011 18.2524C11.0798 18.2524 11.9334 18.4963 12.6877 18.9553C15.2987 17.3319 18.5612 16.4473 21.9994 16.4473C25.4173 16.4473 28.7635 17.3486 31.3637 18.9458C32.0917 18.5058 32.9525 18.2524 33.7977 18.2524C36.3943 18.2524 38.5868 20.4473 38.5868 23.0414C38.5868 24.6768 37.7691 26.1424 36.4337 27.0175C36.3178 32.7796 30.0199 37.2697 21.9994 37.2697Z" fill="white"/>
<path d="M21.9994 32.5905C19.9264 32.5905 17.8522 32.0764 15.961 31.0531C15.2533 30.6705 14.9903 29.7859 15.374 29.0782C15.7601 28.3729 16.6412 28.1099 17.3501 28.49C20.2624 30.068 23.7388 30.0656 26.6487 28.49C27.36 28.1099 28.2435 28.3729 28.6248 29.0782C29.0086 29.7859 28.7456 30.6682 28.0378 31.0531C26.1478 32.0764 24.0736 32.5905 21.9994 32.5905Z" fill="white"/>
<path d="M22.0006 19.3639C21.8811 19.3639 21.7603 19.3495 21.6396 19.3184C20.8601 19.12 20.3879 18.3262 20.5875 17.5468L22.5314 9.9114C22.7203 9.16543 23.4651 8.69323 24.2182 8.84027L31.4354 10.2282C32.2256 10.38 32.7433 11.1439 32.5914 11.9341C32.4384 12.7243 31.6769 13.2372 30.8855 13.0901L25.0168 11.9616L23.4113 18.2641C23.2439 18.924 22.6509 19.3639 22.0006 19.3639Z" fill="white"/>
<path d="M33.5897 16.0336C31.4462 16.0336 29.7031 14.2882 29.7031 12.1447C29.7031 9.96302 31.4462 8.18896 33.5897 8.18896C35.7714 8.18896 37.5456 9.96303 37.5456 12.1447C37.5456 14.3241 35.8085 16.0336 33.5897 16.0336ZM33.5897 11.1035C33.0625 11.1035 32.6177 11.5805 32.6177 12.1447C32.6177 12.7532 33.1115 13.1178 33.5897 13.1178C34.1934 13.1178 34.6309 12.709 34.6309 12.1447C34.6309 11.5613 34.1731 11.1035 33.5897 11.1035Z" fill="white"/>
<path fill-rule="evenodd" clip-rule="evenodd" d="M17.2805 26.025C18.1827 26.025 18.9461 25.2616 18.9461 24.3594C18.9461 23.4572 18.1827 22.7632 17.2805 22.7632C16.3783 22.7632 15.6148 23.4572 15.6148 24.3594C15.6148 25.2616 16.3782 26.025 17.2805 26.025Z" fill="white"/>
<path fill-rule="evenodd" clip-rule="evenodd" d="M26.7192 26.025C27.6214 26.025 28.3849 25.2616 28.3849 24.3594C28.3849 23.4572 27.6214 22.7632 26.7192 22.7632C25.817 22.7632 25.123 23.4572 25.123 24.3594C25.123 25.2616 25.817 26.025 26.7192 26.025Z" fill="white"/>
</svg>
