<svg width="45" height="45" viewBox="0 0 45 45" fill="none" xmlns="http://www.w3.org/2000/svg">
<path d="M13.443 25.7777C20.2553 25.7777 25.7777 20.2553 25.7777 13.4431C25.7777 6.63082 20.2553 1.1084 13.443 1.1084C6.63076 1.1084 1.10834 6.63082 1.10834 13.4431C1.10834 20.2553 6.63076 25.7777 13.443 25.7777Z" fill="#80D8FF"/>
<path d="M31.307 43.6415C38.1193 43.6415 43.6417 38.1191 43.6417 31.3068C43.6417 24.4946 38.1193 18.9722 31.307 18.9722C24.4948 18.9722 18.9724 24.4946 18.9724 31.3068C18.9724 38.1191 24.4948 43.6415 31.307 43.6415Z" fill="#80D8FF"/>
<path d="M13.443 25.7777C20.2553 25.7777 25.7777 20.2553 25.7777 13.4431C25.7777 6.63082 20.2553 1.1084 13.443 1.1084C6.63076 1.1084 1.10834 6.63082 1.10834 13.4431C1.10834 20.2553 6.63076 25.7777 13.443 25.7777Z" fill="#73C2E6"/>
<path d="M31.307 43.6415C38.1193 43.6415 43.6417 38.1191 43.6417 31.3068C43.6417 24.4946 38.1193 18.9722 31.307 18.9722C24.4948 18.9722 18.9724 24.4946 18.9724 31.3068C18.9724 38.1191 24.4948 43.6415 31.307 43.6415Z" fill="#73C2E6"/>
<path d="M22.375 42.1752C33.3102 42.1752 42.175 33.3104 42.175 22.3752C42.175 11.44 33.3102 2.5752 22.375 2.5752C11.4398 2.5752 2.57501 11.44 2.57501 22.3752C2.57501 33.3104 11.4398 42.1752 22.375 42.1752Z" fill="white"/>
<path d="M22.375 4.0415C11.6874 4.0415 3.0003 12.5159 2.61163 23.1082C3.0003 33.7004 11.6874 42.1748 22.375 42.1748C33.0626 42.1748 41.7496 33.7004 42.1383 23.1082C41.7496 12.5159 33.0626 4.0415 22.375 4.0415Z" fill="#80D8FF"/>
<path d="M17.0803 21.9877C16.2825 21.4612 15.6166 20.7586 15.1355 19.9329C14.6706 19.0617 14.4403 18.0834 14.4697 17.0949C14.4345 15.8424 14.8627 14.6192 15.6694 13.6614C16.5098 12.6993 17.5922 11.9762 18.8022 11.5685C20.1178 11.1036 21.5067 10.8689 22.903 10.8777C23.8167 10.8689 24.729 10.9393 25.631 11.0874C26.2749 11.1872 26.9099 11.35 27.523 11.5758C28.0862 11.7665 28.5922 12.0906 29.0029 12.5218C29.305 12.8768 29.4678 13.3285 29.4619 13.7934C29.4839 14.2818 29.3094 14.7585 28.9809 15.1193C28.6685 15.4522 28.2285 15.6356 27.7723 15.6224C27.4614 15.6209 27.1549 15.552 26.8733 15.4214C26.1781 15.1105 25.4638 14.8494 24.7334 14.6382C24.0617 14.4608 23.3665 14.3742 22.6727 14.3816C21.7663 14.3478 20.8702 14.5766 20.0899 15.0401C19.4197 15.4478 19.0237 16.187 19.0603 16.9702C19.0545 17.4748 19.2466 17.9617 19.5942 18.3269C20.0078 18.7552 20.4962 19.1057 21.0359 19.358C21.6402 19.6586 22.5407 20.0561 23.7405 20.5518C23.8739 20.5944 24.0045 20.6457 24.1291 20.7073C25.2995 21.1693 26.4215 21.7457 27.4775 22.4277C28.3121 22.9718 29.0175 23.6949 29.5397 24.5441C30.0545 25.4358 30.3111 26.4537 30.2833 27.4818C30.3273 28.7417 29.965 29.984 29.2537 31.0253C28.5277 32.0094 27.5215 32.756 26.3687 33.1652C24.9798 33.6609 23.5117 33.9 22.0362 33.8706C20.0078 33.941 17.9911 33.5612 16.1299 32.7545C15.6533 32.5418 15.2367 32.2177 14.9126 31.8085C14.6442 31.4345 14.5063 30.9828 14.5166 30.5222C14.4887 30.0309 14.6794 29.5513 15.0358 29.2125C15.4054 28.8884 15.885 28.7197 16.3763 28.7402C16.9234 28.7476 17.4587 28.8854 17.9413 29.1421C18.5411 29.4428 19.0134 29.6672 19.361 29.8168C19.757 29.9825 20.1662 30.113 20.5857 30.204C21.1019 30.3184 21.6299 30.3726 22.1579 30.3668C23.0937 30.4328 24.0235 30.1849 24.8023 29.6613C25.3919 29.1993 25.7249 28.4806 25.6926 27.7312C25.6941 27.2076 25.4946 26.7016 25.1353 26.3202C24.6601 25.8318 24.1042 25.427 23.4911 25.1264C22.7681 24.7436 21.7487 24.2786 20.4375 23.7301C19.2627 23.2637 18.1378 22.68 17.0803 21.9877Z" fill="white"/>
<path d="M21.5551 34.6139C19.5751 34.6139 17.6509 34.215 15.8366 33.4288C15.2485 33.1678 14.7307 32.7659 14.3347 32.2643C13.9549 31.7348 13.7657 31.1203 13.7818 30.5043C13.7437 29.8575 14.015 29.1711 14.5298 28.6812C15.0358 28.2383 15.6547 28.0051 16.2957 28.0051C17.0451 28.0154 17.7022 28.184 18.2859 28.495C18.8535 28.778 19.3126 28.998 19.6514 29.1432C19.9975 29.2884 20.3671 29.4058 20.7411 29.4879C21.1826 29.5847 21.6358 29.6346 22.0905 29.6346C22.2929 29.6419 22.3735 29.6448 22.4557 29.6448C23.1494 29.6448 23.8182 29.4395 24.3917 29.0538C24.7525 28.7678 24.9798 28.2735 24.9593 27.7616C24.9607 27.3906 24.8331 27.0679 24.6014 26.823C24.1922 26.4006 23.7067 26.0486 23.167 25.7846C22.4542 25.4076 21.4466 24.9471 20.153 24.4074C18.9503 23.9278 17.777 23.3191 16.6785 22.6004C15.7882 22.0123 15.0358 21.2188 14.5019 20.3022C13.9637 19.296 13.7041 18.1887 13.7363 17.074C13.6967 15.6822 14.1837 14.2874 15.1106 13.1888C16.0434 12.1196 17.2358 11.3232 18.5675 10.873C19.933 10.3904 21.3689 10.144 22.8282 10.144H23.0511C23.9517 10.144 24.8595 10.2174 25.7498 10.364C26.4377 10.4696 27.1211 10.6456 27.7767 10.8876C28.4294 11.1076 29.0439 11.5007 29.5338 12.0155C29.9797 12.5362 30.2041 13.161 30.1938 13.8048C30.2246 14.4472 29.9841 15.1058 29.5206 15.6132C29.0747 16.0884 28.4543 16.3568 27.8134 16.3568C27.3485 16.3539 26.9437 16.263 26.5623 16.087C25.9111 15.7951 25.2233 15.5428 24.5266 15.3434C23.959 15.1938 23.3562 15.1146 22.749 15.1146L22.4938 15.1116C21.7795 15.1116 21.0755 15.3052 20.461 15.6704C20.0239 15.9359 19.7643 16.4228 19.7878 16.9376C19.7849 17.294 19.9037 17.5932 20.1222 17.822C20.4713 18.1843 20.8849 18.4791 21.3439 18.6947C21.9511 18.9954 22.8443 19.3899 24.0177 19.8754C24.1277 19.9076 24.2934 19.9722 24.4503 20.0514C25.6061 20.506 26.7765 21.1074 27.8721 21.8128C28.7946 22.4156 29.5851 23.2267 30.1615 24.161C30.7541 25.1891 31.0459 26.339 31.0137 27.5035C31.0621 28.8631 30.6514 30.277 29.8565 31.44C29.0249 32.5679 27.9087 33.3966 26.6107 33.8571C25.2189 34.3543 23.7595 34.6066 22.2753 34.6066L22.0186 34.6051C21.8925 34.611 21.7238 34.6139 21.5551 34.6139ZM16.3558 29.4732C16.0038 29.4732 15.731 29.5774 15.5169 29.7636C15.3379 29.9352 15.2323 30.2051 15.2455 30.4808C15.2397 30.8387 15.3321 31.1379 15.5051 31.3814C15.7339 31.6688 16.0595 31.9211 16.4247 32.0839C18.1862 32.848 20.0709 33.1942 22.0083 33.1384L22.2767 33.1399C23.5909 33.1399 24.8845 32.917 26.1209 32.4755C27.1417 32.1118 28.0202 31.4606 28.6611 30.5908C29.2669 29.705 29.5866 28.6035 29.547 27.5094C29.5734 26.5692 29.349 25.6863 28.9017 24.9119C28.4499 24.1786 27.8149 23.5259 27.0742 23.0434C26.0637 22.3907 24.9783 21.8334 23.8578 21.3904C23.7097 21.3215 23.6143 21.2834 23.5175 21.2526C22.2577 20.7334 21.3322 20.3256 20.7089 20.0162C20.1017 19.7316 19.5429 19.3327 19.0662 18.837C18.5793 18.3266 18.3167 17.6622 18.3255 16.9626C18.2786 15.9535 18.8081 14.9606 19.7071 14.4135C20.5549 13.909 21.517 13.645 22.4953 13.645L22.6977 13.6494C22.7021 13.6494 22.705 13.6494 22.7094 13.6494C23.4911 13.6494 24.2171 13.7432 24.9197 13.9295C25.6955 14.1524 26.4479 14.4282 27.171 14.7523C27.369 14.8432 27.5685 14.8887 27.7767 14.8902H27.7782C28.0539 14.8902 28.2827 14.7904 28.4455 14.6174C28.6362 14.4091 28.7403 14.1172 28.7271 13.8254C28.7315 13.4954 28.6318 13.2167 28.4441 12.9967C28.1449 12.6843 27.7357 12.4218 27.2883 12.2707C26.7061 12.0566 26.1165 11.904 25.5195 11.8116C24.7011 11.6767 23.8739 11.6092 23.0511 11.6092H22.8986C22.8971 11.6092 22.8971 11.6092 22.8957 11.6092C21.5346 11.6092 20.263 11.8278 19.0471 12.2575C17.9501 12.6271 16.9777 13.2783 16.2223 14.1422C15.5359 14.9547 15.1707 15.999 15.203 17.0726C15.1766 17.9746 15.3775 18.8282 15.7838 19.585C16.1901 20.2846 16.7855 20.9108 17.4851 21.3728C18.4986 22.0358 19.5854 22.599 20.7089 23.0478C22.0729 23.6168 23.0907 24.0832 23.8343 24.4763C24.5046 24.8048 25.1265 25.2551 25.6618 25.8066C26.1605 26.3346 26.4274 27.0151 26.4259 27.7308C26.4655 28.6798 26.0285 29.6287 25.2541 30.2359C24.3931 30.8167 23.4413 31.1086 22.4557 31.1086C22.3398 31.1086 22.2225 31.1042 22.1066 31.0954C21.5566 31.1291 20.9714 31.0367 20.4273 30.9164C19.9667 30.8167 19.5121 30.6715 19.0765 30.4882C18.7142 30.3327 18.2287 30.101 17.6127 29.793C17.2167 29.5832 16.7914 29.4732 16.3646 29.4674C16.3617 29.4732 16.3587 29.4732 16.3558 29.4732Z" fill="#455A64"/>
<path d="M31.307 44.375C29.4502 44.375 27.6447 43.9819 25.9361 43.2075C24.6967 43.4202 23.5293 43.5243 22.375 43.5243C10.7135 43.5243 1.22567 34.0365 1.22567 22.375C1.22567 21.2237 1.32833 20.0577 1.54247 18.8139C0.768067 17.1053 0.375 15.2998 0.375 13.443C0.375 6.23727 6.23727 0.375 13.443 0.375C15.2998 0.375 17.1053 0.768067 18.8154 1.54247L18.8521 1.5366C19.2407 1.46327 19.6279 1.74047 19.6954 2.1394C19.7629 2.53833 19.4915 2.91673 19.0926 2.98273L18.8462 3.02527C18.6966 3.05313 18.5397 3.0326 18.4003 2.9666C16.8266 2.22007 15.1575 1.84167 13.443 1.84167C7.04687 1.84167 1.84167 7.0454 1.84167 13.443C1.84167 15.1575 2.22007 16.8266 2.96807 18.4003C3.0326 18.5382 3.0546 18.6951 3.02673 18.8447C2.80087 20.087 2.69233 21.2427 2.69233 22.375C2.69233 33.2283 11.5231 42.0577 22.375 42.0577C23.5117 42.0577 24.6674 41.9491 25.9038 41.7233C26.0534 41.6954 26.2103 41.7159 26.3482 41.7834C27.9234 42.5299 29.5925 42.9083 31.307 42.9083C37.7031 42.9083 42.9083 37.7046 42.9083 31.307C42.9083 29.591 42.5299 27.9234 41.7819 26.3497C41.7174 26.2118 41.6954 26.0563 41.7233 25.9053C41.9491 24.663 42.0577 23.5073 42.0577 22.375C42.0577 12.3269 34.5381 3.91847 24.5677 2.81407C24.1658 2.77007 23.8739 2.40633 23.9194 2.00447C23.9634 1.6026 24.3257 1.3122 24.729 1.3562C35.443 2.54273 43.5243 11.5789 43.5243 22.375C43.5243 23.5249 43.4217 24.6923 43.2075 25.9361C43.9819 27.6433 44.375 29.4502 44.375 31.307C44.375 38.5127 38.5127 44.375 31.307 44.375Z" fill="#455A64"/>
<path d="M21.6403 2.57507C22.0453 2.57507 22.3736 2.24674 22.3736 1.84173C22.3736 1.43672 22.0453 1.1084 21.6403 1.1084C21.2352 1.1084 20.9069 1.43672 20.9069 1.84173C20.9069 2.24674 21.2352 2.57507 21.6403 2.57507Z" fill="#455A64"/>
</svg>

