<svg width="44" height="44" viewBox="0 0 44 44" fill="none" xmlns="http://www.w3.org/2000/svg">
<path fill-rule="evenodd" clip-rule="evenodd" d="M21.9653 1.44971C26.469 1.44971 30.7648 1.8655 34.7142 2.5585C38.1786 3.18218 40.8115 5.81562 41.4351 9.28062C42.128 13.3 42.5437 17.5273 42.5437 22.0319C42.5437 26.4671 42.128 30.7637 41.4351 34.7831C40.8115 38.2481 38.1786 40.8122 34.7142 41.4359C30.7648 42.1982 26.469 42.5448 21.9653 42.5448C17.5309 42.5448 13.2351 42.1982 9.2164 41.4359C5.75202 40.8122 3.18838 38.2481 2.56478 34.7831C1.87192 30.7637 1.45618 26.4671 1.45618 22.0319C1.45618 17.5274 1.87191 13.3 2.56478 9.28062C3.18838 5.81563 5.75202 3.18219 9.2164 2.5585C13.2351 1.8655 17.5309 1.44971 21.9653 1.44971Z" fill="#FFEB6B"/>
<path d="M21.9654 44C17.2916 44 12.9114 43.618 8.94418 42.866C4.86953 42.1306 1.86904 39.132 1.13145 35.0423C0.38192 30.6816 0 26.3089 0 22.0318C0 17.695 0.369987 13.4429 1.12907 9.03327C1.86666 4.94834 4.93875 1.84941 8.9585 1.12601C17.7475 -0.390024 26.4936 -0.360184 34.9651 1.12482C39.0374 1.85777 42.1357 4.95669 42.8662 9.02253C43.0166 10.0468 43.155 11.0232 43.2934 12.0677C43.4009 12.864 42.8399 13.5957 42.045 13.702C41.2263 13.8106 40.515 13.2495 40.4099 12.4521C40.2715 11.4195 40.133 10.455 39.9946 9.48928C39.4885 6.68163 37.3116 4.50426 34.4567 3.99096C26.3193 2.56087 17.9003 2.5358 9.46456 3.99216C6.61923 4.50426 4.52104 6.6303 3.99589 9.53942C3.26546 13.7724 2.91218 17.8621 2.91218 22.0318C2.91218 26.143 3.27739 30.3509 3.99827 34.5361C4.51148 37.3879 6.61206 39.4877 9.47411 40.0034C13.2766 40.7244 17.4754 41.0897 21.9654 41.0897C26.5222 41.0897 30.7186 40.7256 34.4376 40.007C37.3641 39.4793 39.4885 37.3808 40.0017 34.5254C40.7226 30.3557 41.0878 26.149 41.0878 22.0318V20.9228C41.0878 20.1194 41.7395 19.4677 42.5439 19.4677C43.3483 19.4677 44 20.1194 44 20.9228V22.0318C44 26.3137 43.6181 30.6875 42.8685 35.0315C42.1429 39.0615 39.0445 42.1342 34.9723 42.8683C31.0886 43.618 26.706 44 21.9654 44Z" fill="#444B54"/>
<path d="M42.3362 18.2895C41.5318 18.2895 40.8802 17.6377 40.8802 16.8343V16.3497C40.8802 15.5463 41.5318 14.8945 42.3362 14.8945C43.1407 14.8945 43.7923 15.5463 43.7923 16.3497V16.8343C43.7923 17.6377 43.1407 18.2895 42.3362 18.2895Z" fill="#444B54"/>
<path fill-rule="evenodd" clip-rule="evenodd" d="M35.4764 29.1003C31.3191 27.1598 29.2405 23.1404 29.2405 16.7648C29.2405 12.7454 25.984 9.48828 21.9653 9.48828C18.0159 9.48828 14.7594 12.7454 14.7594 16.7648C14.7594 23.1404 12.6115 27.1598 8.45422 29.1003C10.2557 32.3574 13.5815 33.3276 18.5009 32.0109C20.441 33.8127 23.4896 33.8127 25.499 32.0109C30.4184 33.3276 33.7442 32.3574 35.4764 29.1003Z" fill="white"/>
<path d="M21.9749 34.8057C20.6239 34.8057 19.28 34.4034 18.1509 33.5976C11.6582 35.0946 8.6076 32.3884 7.18016 29.804C6.98443 29.447 6.94623 29.0256 7.07514 28.6401C7.20404 28.2533 7.48809 27.9394 7.85808 27.7722C9.02056 27.2482 9.96821 26.5558 10.7488 25.6533C11.2787 25.0422 12.1977 24.9813 12.8016 25.5065C13.4103 26.033 13.4747 26.9521 12.9496 27.5585C12.2574 28.3571 11.4768 29.0328 10.5888 29.5998C11.7561 30.8365 13.8614 31.7497 18.1247 30.6049C18.6045 30.4736 19.1248 30.6037 19.4924 30.9452C20.8721 32.2248 23.0873 32.2213 24.5267 30.9284C24.8919 30.5978 25.4051 30.4772 25.8753 30.6049C30.1672 31.7569 32.2463 30.8353 33.3778 29.5962C29.6659 27.1754 27.785 22.8684 27.785 16.7649C27.785 13.5549 25.1759 10.943 21.9654 10.943C18.793 10.943 16.2151 13.5549 16.2151 16.7649C16.2151 19.1093 15.9668 21.0611 15.4584 22.7323C15.2244 23.5035 14.4176 23.9368 13.6442 23.7004C12.8756 23.4665 12.4412 22.6535 12.6751 21.8848C13.0928 20.512 13.3029 18.7894 13.3029 16.7649C13.3029 11.9493 17.189 8.03271 21.9654 8.03271C26.78 8.03271 30.6971 11.9493 30.6971 16.7649C30.6971 22.4828 32.4611 26.0867 36.0918 27.7806C36.4522 27.9501 36.7291 28.2593 36.8556 28.6377C36.9822 29.0161 36.9487 29.4303 36.7602 29.7825C35.3781 32.3872 32.368 35.1005 25.8371 33.5952C24.6842 34.4022 23.326 34.8057 21.9749 34.8057Z" fill="#444B54"/>
<path d="M14.4821 21.8242C14.284 21.8242 14.0811 21.7836 13.8877 21.6977L10.6318 20.2425C9.899 19.9142 9.56959 19.0536 9.89661 18.3206C10.226 17.5853 11.083 17.2594 11.8206 17.5853L15.0765 19.0404C15.8093 19.3687 16.1387 20.2294 15.8117 20.9623C15.5682 21.5031 15.0383 21.8242 14.4821 21.8242Z" fill="#444B54"/>
<path d="M29.4487 21.8242C28.8925 21.8242 28.3626 21.5043 28.1191 20.9623C27.7921 20.2294 28.1215 19.3687 28.8543 19.0404L32.1102 17.5853C32.8478 17.2594 33.7048 17.5853 34.0342 18.3206C34.3612 19.0536 34.0318 19.9142 33.299 20.2425L30.0431 21.6977C29.8497 21.7836 29.6468 21.8242 29.4487 21.8242Z" fill="#444B54"/>
</svg>

