<svg width="52" height="52" viewBox="0 0 52 52" fill="none" xmlns="http://www.w3.org/2000/svg">
<path d="M48.9871 2H5.01289C5.00577 2 5 2.00577 5 2.01289V45.9871C5 45.9942 5.00577 46 5.01289 46H48.9871C48.9942 46 49 45.9942 49 45.9871V2.01289C49 2.00577 48.9942 2 48.9871 2Z" fill="#F58025"/>
<path d="M15.7422 27.5234V36.5469H36.4531V27.5234M30.1797 9.64844L37.9141 19.9609L30.1797 9.64844ZM25.625 13.9453L35.5078 22.2812L25.625 13.9453ZM22.1016 19.5312L33.7891 25.0312L22.1016 19.5312ZM20.125 25.4609L32.8438 28.125L20.125 25.4609ZM19.6094 31.3047H32.5H19.6094Z" stroke="white" stroke-width="30"/>
</svg>

