<svg width="45" height="45" viewBox="0 0 45 45" fill="none" xmlns="http://www.w3.org/2000/svg">
<path d="M17.1068 41.2178C15.8382 41.2178 16.0552 40.6497 15.6167 39.2235L11.8914 24.6966L40.5736 4.54102L17.1068 41.2178Z" fill="#ECEFF1"/>
<path d="M17.1068 41.2178C18.0851 41.2178 18.5178 40.6879 19.0619 40.0591L24.2774 34.0517L17.7712 29.4062L17.1068 41.2178Z" fill="#CFD8DC"/>
<path d="M17.7712 29.4099L33.5335 43.2036C35.3346 44.378 36.6297 43.77 37.0785 41.2249L43.4952 5.41152C44.1522 2.29142 42.492 0.877301 40.7701 1.80152L3.09417 19.0107C0.521627 20.232 0.539226 21.9328 2.62484 22.6885L12.2932 26.2637L34.6761 9.53749C35.7335 8.77831 36.703 9.18656 35.9081 10.0239L17.7712 29.4099Z" fill="white"/>
<path d="M35.1161 44.6489C34.5265 44.6489 33.8797 44.4196 33.1801 43.9627L17.3356 30.1064C17.1581 29.9518 17.0496 29.7103 17.0379 29.4497C17.0276 29.1891 17.1156 28.9372 17.2799 28.7618L36.0474 8.75737C36.3481 8.43598 36.8116 8.46377 37.0829 8.82164C37.3542 9.17778 37.3293 9.72675 37.0286 10.0481L18.9299 29.342L33.9692 42.5034C34.3666 42.7553 35.0384 43.075 35.5165 42.8127C36.0034 42.5486 36.244 41.706 36.3613 41.0459L42.778 5.22901C43.0273 4.04595 42.9071 3.09393 42.4627 2.65615C42.1239 2.3226 41.6193 2.29827 41.0737 2.59013L3.35674 19.8202C2.19953 20.3709 1.8358 20.9372 1.84166 21.1248C1.84606 21.2482 2.0954 21.5887 2.839 21.858L12.189 25.3151L22.4543 17.6434C22.7975 17.3898 23.2492 17.5096 23.4648 17.9144C23.6804 18.3192 23.5792 18.856 23.236 19.1114L12.6848 26.9967C12.5029 27.1322 12.2785 27.167 12.0746 27.0923L2.40633 23.517C0.690324 22.8951 0.396989 21.7972 0.376456 21.1978C0.347122 20.3761 0.747524 19.1878 2.8214 18.2045L40.5076 0.991863C41.5299 0.439418 42.6269 0.557551 43.4028 1.32368C44.3019 2.21141 44.5952 3.77841 44.208 5.62163L37.7972 41.4055C37.5273 42.9308 36.967 43.9367 36.1296 44.3918C35.8142 44.5638 35.4769 44.6489 35.1161 44.6489Z" fill="#455A64"/>
<path d="M35.1161 44.6489C34.5265 44.6489 33.8797 44.4196 33.1801 43.9627L23.324 35.3477C22.9984 35.0628 22.928 34.5173 23.17 34.1334C23.4106 33.7477 23.8711 33.6643 24.1952 33.9509L33.9692 42.5034C34.3666 42.7553 35.0384 43.075 35.5165 42.8127C36.0034 42.5486 36.244 41.706 36.3613 41.0459L42.778 5.22901C43.0273 4.04595 42.9071 3.09393 42.4627 2.65615C42.1239 2.3226 41.6193 2.29827 41.0737 2.59013L3.35674 19.8202C2.19953 20.3709 1.8358 20.9372 1.84166 21.1248C1.84606 21.2482 2.0954 21.5887 2.839 21.858L12.5103 25.4332C12.742 25.5183 12.9224 25.7355 12.9943 26.01L16.3192 38.9716C16.4087 39.2617 16.4776 39.5501 16.5377 39.8003C16.5847 39.9983 16.6433 40.245 16.6829 40.318C16.6771 40.3093 16.7944 40.351 17.1068 40.3527C17.7624 40.3527 18.0117 40.0626 18.5104 39.4876L20.9451 36.6836C21.2355 36.3466 21.699 36.357 21.982 36.701C22.2636 37.045 22.2578 37.5957 21.9674 37.9292L19.5738 40.6828C18.9841 41.3655 18.3593 42.0882 17.1068 42.0882C15.6695 42.0882 15.3791 41.3343 15.1253 40.2711C15.074 40.0556 15.0153 39.8072 14.9273 39.5206L11.7036 26.955L2.40633 23.517C0.690324 22.8951 0.396989 21.7972 0.376456 21.1978C0.347122 20.3761 0.747524 19.1878 2.8214 18.2045L40.5076 0.991863C41.5299 0.439418 42.6269 0.557551 43.4028 1.32368C44.3019 2.21141 44.5952 3.77841 44.208 5.62163L37.7972 41.4055C37.5273 42.9308 36.967 43.9367 36.1296 44.3918C35.8142 44.5638 35.4769 44.6489 35.1161 44.6489Z" fill="#455A64"/>
<path d="M26.0418 16.5698C26.0418 17.0475 25.7118 17.4384 25.3085 17.4384C24.9051 17.4384 24.5751 17.0475 24.5751 16.5698C24.5751 16.0921 24.9051 15.7012 25.3085 15.7012C25.7118 15.7012 26.0418 16.0921 26.0418 16.5698Z" fill="#455A64"/>
</svg>
