<svg width="44" height="44" viewBox="0 0 44 44" fill="none" xmlns="http://www.w3.org/2000/svg">
<rect x="9" y="5" width="25" height="34" fill="white"/>
<path d="M32.9651 0H11C4.95873 0 0 4.95873 0 11.0349V33C0 39.0413 4.95873 44 11 44H32.9651C39.0413 44 44 39.0413 44 32.9651V11.0349C44 4.95873 39.0413 0 32.9651 0ZM27.273 35.3746C26.3651 35.5841 25.3524 35.7238 24.3048 35.7238C23.1175 35.7238 22.3841 35.5492 21.4413 35.2349C20.5333 34.9206 19.7302 34.4667 19.0667 33.873C18.4032 33.2794 18.019 32.6508 17.7746 31.9873C17.5302 31.3238 17.4603 30.381 17.4603 29.1238V19.5556H13.619V15.6444C14.6667 15.2952 15.9238 14.8063 16.6571 14.1429C17.3905 13.4794 18.019 12.746 18.473 11.8381C18.927 10.9302 19.2762 9.77778 19.4159 8.38095H23.0476V14.6667H29.3333V19.5556H23.0476V26.5746C23.0476 28.181 23.0825 29.0889 23.2222 29.5429C23.3968 29.9968 23.8159 30.4508 24.2349 30.7302C24.8286 31.0794 25.5619 31.2889 26.2952 31.2889C27.6222 31.2889 28.9492 30.8349 30.346 29.927V34.2222H30.381C28.9841 34.781 28.181 35.1651 27.273 35.3746Z" fill="black"/>
</svg>

