<svg width="44" height="44" viewBox="0 0 44 44" fill="none" xmlns="http://www.w3.org/2000/svg">
<path fill-rule="evenodd" clip-rule="evenodd" d="M21.9653 1.45898C26.469 1.45898 30.7648 1.80599 34.7142 2.56935C38.1786 3.1939 40.8115 5.76157 41.4351 9.23142C42.128 13.2564 42.5437 17.559 42.5437 22.0004C42.5437 26.4418 42.128 30.7444 41.4351 34.7694C40.8115 38.2393 38.1786 40.807 34.7142 41.4315C30.7648 42.1949 26.469 42.5418 21.9653 42.5418C17.5309 42.5418 13.2351 42.1949 9.2164 41.4315C5.75202 40.807 3.18838 38.2393 2.56478 34.7694C1.87192 30.7444 1.45618 26.4418 1.45618 22.0004C1.45618 17.559 1.87191 13.2564 2.56478 9.23142C3.18838 5.76157 5.75202 3.1939 9.2164 2.56935C13.2351 1.80598 17.5309 1.45898 21.9653 1.45898Z" fill="#6F4BB3"/>
<path d="M21.9654 44C17.294 44 12.9138 43.6175 8.94656 42.8644C4.86953 42.128 1.86904 39.1228 1.13145 35.0274C0.38192 30.6618 0 26.2819 0 22C0 17.7181 0.38192 13.3382 1.12907 8.98457C1.87143 4.87481 4.86953 1.87199 8.95851 1.13562C12.909 0.382527 17.2916 0 21.9654 0C26.7084 0 31.091 0.384912 34.9914 1.1404C39.0445 1.86959 42.1429 4.94653 42.8662 8.97261C43.0166 10.0006 43.155 10.9761 43.2934 12.0209C43.4009 12.8194 42.8399 13.5534 42.045 13.6586C41.2263 13.7781 40.515 13.2043 40.4099 12.4082C40.2715 11.373 40.133 10.4071 39.9946 9.43881C39.4885 6.62964 37.3641 4.52814 34.4567 4.00455C30.721 3.28016 26.5222 2.91676 21.9654 2.91676C17.473 2.91676 13.2742 3.28016 9.48842 4.00218C6.61206 4.52097 4.51148 6.62248 3.99588 9.48902C3.27738 13.6705 2.91217 17.8831 2.91217 22C2.91217 26.1169 3.27738 30.3295 3.99826 34.5229C4.51147 37.3775 6.61206 39.4814 9.4741 39.9978C13.2766 40.7198 17.4754 41.0832 21.9654 41.0832C26.5198 41.0832 30.7162 40.7198 34.44 40.0002C37.3641 39.4719 39.4885 37.3703 40.0017 34.511C40.7226 30.3343 41.0878 26.1217 41.0878 22V20.8907C41.0878 20.085 41.7395 19.4323 42.5439 19.4323C43.3483 19.4323 44 20.085 44 20.8907V22C44 26.2867 43.6181 30.6666 42.8685 35.0178C42.1429 39.0535 39.0445 42.1304 34.9723 42.8668C31.0862 43.6175 26.7036 44 21.9654 44Z" fill="#444B54"/>
<path d="M42.3363 18.323C41.5318 18.323 40.8802 17.6703 40.8802 16.8646V16.3099C40.8802 15.5042 41.5318 14.8516 42.3363 14.8516C43.1407 14.8516 43.7924 15.5042 43.7924 16.3099V16.8646C43.7924 17.6703 43.1407 18.323 42.3363 18.323Z" fill="#444B54"/>
<path d="M16.7688 37.3371C16.3965 37.3371 16.0241 37.1936 15.74 36.9091C15.1719 36.3401 15.1719 35.4172 15.74 34.8482L20.0367 30.5472C20.3088 30.2747 20.6788 30.1193 21.0655 30.1193H27.0498L31.4562 25.7633V12.9104H12.5438V30.1193H14.8282C15.6326 30.1193 16.2843 30.772 16.2843 31.5776C16.2843 32.3833 15.6326 33.036 14.8282 33.036H11.0877C10.2833 33.036 9.63165 32.3833 9.63165 31.5776V11.452C9.63165 10.6463 10.2833 9.99365 11.0877 9.99365H32.9123C33.7167 9.99365 34.3684 10.6463 34.3684 11.452V26.3729C34.3684 26.7626 34.2108 27.1356 33.9339 27.4105L28.6682 32.6152C28.396 32.883 28.0284 33.036 27.6465 33.036H21.667L17.7976 36.9091C17.5136 37.1936 17.1412 37.3371 16.7688 37.3371Z" fill="white"/>
<path d="M20.9962 23.7358C20.1918 23.7358 19.5402 23.0831 19.5402 22.2774V17.6967C19.5402 16.891 20.1918 16.2383 20.9962 16.2383C21.8007 16.2383 22.4523 16.891 22.4523 17.6967V22.2774C22.4523 23.0831 21.8007 23.7358 20.9962 23.7358Z" fill="white"/>
<path d="M27.6465 23.7358C26.8421 23.7358 26.1904 23.0831 26.1904 22.2774V17.6967C26.1904 16.891 26.8421 16.2383 27.6465 16.2383C28.4509 16.2383 29.1026 16.891 29.1026 17.6967V22.2774C29.1026 23.0831 28.4509 23.7358 27.6465 23.7358Z" fill="white"/>
</svg>
