<svg width="25" height="25" viewBox="0 0 36 36" fill="none" xmlns="http://www.w3.org/2000/svg">
<path d="M35.5759 17.343C35.5759 26.921 27.8112 34.6857 18.2332 34.6857C8.65487 34.6857 0.890503 26.921 0.890503 17.343C0.890503 7.76471 8.65487 0 18.2332 0C27.8112 0 35.5759 7.76471 35.5759 17.343Z" fill="#FF0031"/>
<path d="M6.29543 21.7708C6.70665 18.8175 14.0287 14.9314 19.0286 15.4922C24.0282 16.0527 28.7012 19.3407 29.8973 21.7708C31.0937 24.2006 29.3365 32.9483 29.3365 32.9483H8.25283C8.25283 32.9483 5.58297 26.8868 6.29543 21.7708Z" fill="#161515"/>
<path d="M10.4586 15.3784C10.4586 15.3784 9.8602 14.294 11.2435 12.6119C12.6264 10.9298 19.2807 9.43451 22.7197 11.9763C26.1591 14.5184 26.5905 14.5741 26.3835 15.3784C26.1762 16.1824 21.0004 19.6396 20.6268 21.1536C20.2528 22.6677 18.4952 25.2447 18.3784 25.2471C18.2619 25.2501 16.8134 22.2565 15.6545 20.6867C14.4957 19.1167 10.4586 15.3784 10.4586 15.3784Z" fill="#161515"/>
<path d="M12.9631 11.341C12.8883 12.3503 13.8975 15.8269 14.9816 17.3222C16.0657 18.8175 17.6716 19.7519 18.6211 19.8271C19.5706 19.9012 21.0622 18.7912 22.0714 16.8102C23.0807 14.8289 23.8785 11.1542 23.8785 11.1542L12.9631 11.341Z" fill="#FFB18F"/>
<path d="M23.799 11.5046C23.7047 11.3807 23.5985 11.2649 23.4752 11.161L12.9631 11.341C12.9057 12.1163 13.4887 14.3483 14.2534 16.0192C15.4499 15.6203 16.6644 15.1957 17.3741 14.8771C18.047 14.5745 17.6436 13.9204 18.2567 13.808C18.8694 13.696 18.7574 14.8176 19.2806 14.9672C19.6533 15.0735 21.3046 15.6916 22.3938 16.1063C23.0667 14.4969 23.6029 12.3397 23.799 11.5046Z" fill="#DB826A"/>
<path d="M10.5764 14.9864C10.5764 14.9864 12.4399 12.8548 17.8414 12.8923C23.2437 12.9296 25.8896 15.0922 25.8896 15.0922C25.8896 15.0922 21.1316 13.2848 17.4845 13.4156C14.3802 13.5269 10.5764 14.9864 10.5764 14.9864Z" fill="#90CED6"/>
<path d="M9.82292 15.3408C9.69314 15.3053 12.1407 7.15399 15.3703 4.89876C17.2208 3.6067 20.6639 3.64017 22.3461 5.06066C24.55 6.9214 26.9815 15.2661 26.8695 15.5277C26.7571 15.7893 23.9745 13.3568 18.2567 13.2099C12.4252 13.0607 10.2338 15.4529 9.82292 15.3408Z" fill="#353535"/>
<path d="M9.823 15.3409C9.823 15.3409 10.0993 14.7832 10.407 14.9109C12.566 15.8081 17.2824 20.1796 18.0054 22.5509C18.9399 25.6163 18.5331 27.4152 18.5331 27.4152C18.5331 27.4152 17.0754 23.453 14.9069 20.6868C13.1773 18.4797 9.823 15.3409 9.823 15.3409Z" fill="#353535"/>
<path d="M26.8695 15.5277C26.8695 15.5277 26.476 14.7609 26.2342 14.8918C24.2198 15.983 19.4508 20.2048 18.7301 22.5694C17.7953 25.6347 18.5331 27.4152 18.5331 27.4152C18.5331 27.4152 19.6243 23.5954 21.7924 20.8292C23.522 18.6221 26.8695 15.5277 26.8695 15.5277Z" fill="#353535"/>
<path d="M17.4872 15.7214C17.4872 15.7214 17.9661 15.4259 18.2144 15.3665C18.3889 15.3245 19.1137 15.7941 19.0201 15.8515C18.9269 15.9082 17.4124 15.8522 17.4872 15.7214Z" fill="#DB826A"/>
<path d="M16.9152 17.4649C16.8749 17.3635 17.599 17.149 18.4057 17.1237C19.2114 17.0981 19.7302 17.1839 19.5987 17.2556C19.5167 17.3007 18.8842 17.2624 18.419 17.299C17.9535 17.3352 17.0316 17.7556 16.9152 17.4649Z" fill="#7C4639"/>
<path d="M16.8134 17.0698C16.9821 17.1682 16.4968 17.4445 16.701 17.6866C16.9531 17.9845 17.225 17.8174 17.225 17.8922C17.225 17.967 16.8431 18.1409 16.5146 17.6866C16.3182 17.4154 16.5894 16.939 16.8134 17.0698Z" fill="#DB826A"/>
<path d="M18.7202 4.73383C16.6993 4.73383 14.9478 11.3253 14.5277 13.4976C15.5612 13.295 16.7946 13.1724 18.2567 13.21C19.7954 13.2496 21.1195 13.4552 22.2385 13.7288C21.8873 11.4172 21.4321 4.73383 18.7202 4.73383Z" fill="#444444"/>
<path d="M18.377 27.0125C18.1792 25.2857 17.5002 22.6937 15.3553 20.35C14.0544 18.9281 12.9085 18.0234 11.9723 17.4448C12.971 18.4585 14.1107 19.671 14.9069 20.6867C16.6586 22.9215 17.9463 25.9363 18.377 27.0125Z" fill="#90CED6"/>
<path d="M7.67016 19.5467C5.13725 21.544 2.15966 29.1721 1.71121 31.6398C1.26241 34.1068 9.68254 34.9914 11.2151 34.1686C12.7479 33.3461 10.3462 23.0417 9.44893 21.8453C8.55203 20.6492 8.19204 19.1344 7.67016 19.5467Z" fill="#353535"/>
<path d="M21.7925 20.8292C22.5227 19.8971 23.5419 18.8076 24.4753 17.8584C23.6696 18.4305 22.7406 19.2308 21.7163 20.35C19.6428 22.6162 18.9388 25.1146 18.7165 26.838C19.1093 25.6675 20.1363 22.942 21.7925 20.8292Z" fill="#474747"/>
<path d="M8.4024 23.9762C8.4024 23.9762 7.46759 26.6304 6.86988 27.1912C6.27149 27.752 5.18743 27.3408 4.51458 27.8264C3.84174 28.3125 3.72937 29.7702 3.72937 29.7702C3.72937 29.7702 5.23012 28.6489 6.70389 29.2097C8.17801 29.7702 9.26241 28.6865 9.26241 28.6865L8.4024 23.9762Z" fill="#232323"/>
<path d="M8.55211 29.8747C8.55211 29.8747 6.41745 29.3217 5.54275 30.1073C4.91738 30.6677 4.93548 31.3416 4.93548 31.3416C4.93548 31.3416 5.45087 30.7374 6.10049 30.5137C7.07048 30.1797 9.24203 31.5172 8.36528 30.4061L8.55211 29.8747Z" fill="#2B2B2B"/>
<path d="M28.1405 19.5467C30.6727 21.544 33.6503 29.1721 34.0991 31.6398C34.5475 34.1068 26.1277 34.9914 24.5952 34.1686C23.062 33.3461 25.4638 23.0417 26.361 21.8453C27.2583 20.6492 27.6179 19.1344 28.1405 19.5467Z" fill="#353535"/>
<path d="M27.4077 23.9762C27.4077 23.9762 28.3419 26.6304 28.9403 27.1912C29.5383 27.752 30.6224 27.3408 31.2952 27.8264C31.9684 28.3125 32.0804 29.7702 32.0804 29.7702C32.0804 29.7702 30.58 28.6489 29.1059 29.2097C27.6318 29.7702 26.5477 28.6865 26.5477 28.6865L27.4077 23.9762Z" fill="#232323"/>
<path d="M27.2582 29.8747C27.2582 29.8747 29.3928 29.3217 30.2672 30.1073C30.8926 30.6677 30.8745 31.3416 30.8745 31.3416C30.8745 31.3416 30.3594 30.7374 29.7094 30.5137C28.7394 30.1797 26.5679 31.5172 27.4446 30.4061L27.2582 29.8747Z" fill="#2B2B2B"/>
<path d="M31.0394 27.0125C31.0394 27.0125 30.688 26.0511 30.0151 25.7891C29.342 25.5275 28.3798 24.8359 28.3798 24.8359C28.3798 24.8359 28.7367 26.5764 29.1059 26.7052C29.9871 27.0125 31.0394 27.0125 31.0394 27.0125Z" fill="#2B2B2B"/>
<path d="M8.1781 22.2565H29.2617V34.4808H8.1781V22.2565Z" fill="#AAAAAA"/>
<path d="M8.1781 34.4675H29.2617V35.0693H8.1781V34.4675Z" fill="#8C8C8C"/>
<path d="M11.9614 34.3042H14.204V34.5129H11.9614V34.3042Z" fill="#CECECE"/>
<path d="M23.2355 34.3042H25.4788V34.5129H23.2355V34.3042Z" fill="#CECECE"/>
<path d="M8.1781 22.2855H29.2617V22.5693H8.1781V22.2855Z" fill="#CECECE"/>
<path d="M4.77051 27.0125C4.77051 27.0125 5.1223 26.0511 5.7948 25.7891C6.46799 25.5275 7.43047 24.8359 7.43047 24.8359C7.43047 24.8359 7.07321 26.5764 6.704 26.7052C5.82315 27.0125 4.77051 27.0125 4.77051 27.0125Z" fill="#2B2B2B"/>
<path d="M18.312 26.7253H17.4022V27.5938H17.6699V26.9657H18.312V26.7253Z" fill="#474747"/>
<path d="M19.128 26.7253H20.0379V27.5938H19.7704V26.9657H19.128V26.7253Z" fill="#474747"/>
<path d="M19.128 29.1978H20.0379V28.3296H19.7704V28.9577H19.128V29.1978Z" fill="#474747"/>
<path d="M18.312 29.1978H17.4022V28.3296H17.6699V28.9577H18.312V29.1978Z" fill="#474747"/>
</svg>

