<svg width="45" height="45" viewBox="0 0 45 45" fill="none" xmlns="http://www.w3.org/2000/svg">
<path d="M16.2443 1.53564H29.2541C41.1357 1.53564 43.9627 4.36422 43.9627 16.2442V29.2556C43.9627 41.1356 41.1341 43.9642 29.2541 43.9642H16.2443C4.36271 43.9642 1.53571 41.1356 1.53571 29.2556V16.2442C1.53571 4.36422 4.36428 1.53564 16.2443 1.53564Z" fill="white"/>
<path d="M31.6129 3.89307H17.03C5.80845 3.89307 3.89288 5.80864 3.89288 17.0302V31.6131C3.89288 36.4939 4.38474 39.8285 5.77231 42.0851C8.02888 43.4726 11.3635 43.9645 16.2443 43.9645H29.2542C41.1357 43.9645 43.9627 41.1359 43.9627 29.2559V16.2445C43.9627 11.3636 43.4709 8.02907 42.0833 5.7725C39.8283 4.38492 36.4937 3.89307 31.6129 3.89307Z" fill="#80D8FF"/>
<path d="M29.2557 44.75H16.2443C3.93528 44.75 0.75 41.5647 0.75 29.2557V16.2443C0.75 3.93528 3.93528 0.75 16.2443 0.75H29.2541C41.5647 0.75 44.75 3.93528 44.75 16.2443V29.2557C44.75 41.5647 41.5647 44.75 29.2557 44.75ZM16.2443 2.32143C4.79328 2.32143 2.32143 4.79328 2.32143 16.2443V29.2557C2.32143 40.7067 4.79328 43.1786 16.2443 43.1786H29.2541C40.7051 43.1786 43.177 40.7067 43.177 29.2557V16.2443C43.1786 4.79328 40.7067 2.32143 29.2557 2.32143H16.2443Z" fill="#455A64"/>
<path d="M37.7854 15.3689C38.0038 14.6413 37.7854 14.1055 36.7451 14.1055H33.3068C32.4316 14.1055 32.0293 14.5675 31.8108 15.0782C31.8108 15.0782 30.0618 19.3399 27.5853 22.1088C26.7838 22.9102 26.4208 23.1648 25.9824 23.1648C25.764 23.1648 25.4466 22.9086 25.4466 22.181V15.3689C25.4466 14.4952 25.1936 14.1055 24.4644 14.1055H19.0618C18.515 14.1055 18.1866 14.5109 18.1866 14.8959C18.1866 15.724 19.4248 15.9158 19.5537 18.2478V23.3109C19.5537 24.4219 19.3526 24.623 18.9157 24.623C17.7513 24.623 14.9148 20.3409 13.2334 15.4428C12.9034 14.4905 12.5734 14.1055 11.695 14.1055H8.2567C7.27455 14.1055 7.07812 14.5675 7.07812 15.0782C7.07812 15.9896 8.24255 20.5059 12.5043 26.4805C15.347 30.5599 19.3478 32.7709 22.992 32.7709C25.1778 32.7709 25.4481 32.279 25.4481 31.4336V28.3505C25.4481 27.3683 25.6556 27.1719 26.347 27.1719C26.8577 27.1719 27.7314 27.4265 29.7727 29.3939C32.1031 31.7243 32.4881 32.7709 33.8003 32.7709H37.2386C38.2207 32.7709 38.7126 32.279 38.4297 31.3095C38.1201 30.343 37.006 28.9429 35.5288 27.2803C34.7274 26.3328 33.5268 25.3129 33.1607 24.8038C32.6516 24.1485 32.7977 23.8562 33.1607 23.2732C33.1591 23.2732 37.3486 17.3725 37.7854 15.3689Z" fill="white"/>
<path d="M37.237 33.5554H33.7987C32.5259 33.5554 31.8879 32.8436 30.8272 31.665C30.4092 31.2014 29.8969 30.631 29.2165 29.949C27.3402 28.1403 26.545 27.958 26.2527 27.958C26.2417 28.035 26.2323 28.1576 26.2323 28.3493V31.4324C26.2323 33.194 24.9375 33.5554 22.9905 33.5554C18.911 33.5554 14.7499 31.0773 11.8585 26.9271C7.69418 21.0893 6.29089 16.3436 6.29089 15.0754C6.29089 13.9581 7.00746 13.317 8.25518 13.317H11.6935C13.202 13.317 13.6625 14.2803 13.9752 15.1823C15.523 19.6939 17.8047 23.0551 18.7539 23.7261C18.7617 23.624 18.768 23.4889 18.768 23.3066V18.2434C18.7036 17.0979 18.3233 16.6264 17.987 16.2116C17.712 15.8721 17.4009 15.4871 17.4009 14.8931C17.4009 14.1357 18.0357 13.317 19.0619 13.317H24.4645C25.2722 13.317 26.2323 13.6721 26.2323 15.3661V22.1783C26.2323 22.2097 26.2339 22.238 26.2355 22.2647C26.413 22.1421 26.666 21.9111 27.029 21.5497C29.3532 18.949 31.066 14.8177 31.0833 14.7753C31.4935 13.8167 32.2603 13.3154 33.3069 13.3154H36.7452C37.4885 13.3154 38.0306 13.5386 38.3559 13.9754C38.5727 14.2661 38.7802 14.7831 38.5382 15.5909C38.095 17.6321 34.2372 23.107 33.7972 23.7246C33.7642 23.7796 33.6306 23.9964 33.6133 24.0703C33.618 24.0703 33.6463 24.1473 33.7767 24.317C33.9355 24.5354 34.3267 24.9189 34.7055 25.2913C35.1737 25.7501 35.7033 26.2703 36.1245 26.7684C37.9787 28.8537 38.8635 30.103 39.173 31.0647C39.4307 31.9541 39.2029 32.5136 38.964 32.8294C38.7205 33.1626 38.2207 33.5554 37.237 33.5554ZM26.347 26.385C27.0573 26.385 28.085 26.6757 30.3165 28.827C31.033 29.5436 31.5642 30.1329 31.9963 30.6137C33.024 31.7593 33.2739 31.984 33.7972 31.984H37.2355C37.5607 31.984 37.6927 31.9101 37.71 31.8897C37.71 31.8897 37.7493 31.7939 37.6723 31.5283C37.3832 30.6294 36.06 29.0627 34.9396 27.8009C34.5357 27.3231 34.0439 26.8423 33.607 26.4164C33.1215 25.9419 32.7396 25.5663 32.5212 25.2614C31.7386 24.2541 32.045 23.5769 32.4929 22.8571C33.6573 21.2134 36.687 16.7144 37.0186 15.2011C37.0642 15.0409 37.0752 14.9529 37.0752 14.9104C37.0469 14.9136 36.9416 14.89 36.7452 14.89H33.3069C32.837 14.89 32.6673 15.0723 32.5337 15.385C32.4646 15.5531 30.7077 19.7944 28.1715 22.6309C27.3637 23.4401 26.7933 23.9493 25.9825 23.9493C25.346 23.9493 24.6609 23.3946 24.6609 22.1799V15.3677C24.6609 15.066 24.6247 14.9387 24.6075 14.8947C24.5902 14.901 24.5477 14.8916 24.4645 14.89H19.0619C18.9849 14.9497 19.12 15.1163 19.2096 15.2263C19.6229 15.737 20.2452 16.5086 20.3395 18.2026L20.341 23.3097C20.341 23.9367 20.341 25.4076 18.9173 25.4076C16.9012 25.4076 13.8903 19.7677 12.4918 15.6977C12.212 14.8916 12.0816 14.8916 11.695 14.8916H8.25675C7.94875 14.8916 7.85918 14.9513 7.85761 14.9513C7.86389 15.6286 8.83818 19.9861 13.1439 26.0236C15.7462 29.7589 19.4249 31.9856 22.992 31.9856C24.6625 31.9856 24.6625 31.7546 24.6625 31.434V28.3509C24.6625 27.3781 24.862 26.385 26.347 26.385Z" fill="#455A64"/>
</svg>

