<svg width="44" height="44" viewBox="0 0 44 44" fill="none" xmlns="http://www.w3.org/2000/svg">
<path fill-rule="evenodd" clip-rule="evenodd" d="M21.9999 1.45166C26.4417 1.45166 30.7446 1.86747 34.77 2.56044C38.2401 3.18411 40.8774 5.74813 41.502 9.28229C42.196 13.2323 42.543 17.5287 42.543 21.9637C42.543 26.4681 42.196 30.7645 41.502 34.7145C40.8774 38.1793 38.2401 40.8126 34.77 41.4363C30.7446 42.1293 26.4417 42.545 21.9999 42.545C17.5582 42.545 13.2552 42.1293 9.22986 41.4363C5.75974 40.8126 3.19186 38.1793 2.56723 34.7145C1.80381 30.7645 1.45679 26.4681 1.45679 21.9637C1.45679 17.5287 1.8038 13.2323 2.56723 9.28229C3.19186 5.74813 5.75974 3.18411 9.22986 2.56044C13.2552 1.86748 17.5582 1.45166 21.9999 1.45166Z" fill="#41CEB3"/>
<path d="M21.9994 44C17.7148 44 13.3345 43.6204 8.98291 42.8696C4.94454 42.145 1.86735 39.0462 1.13213 34.9722C0.382554 31.0868 0 26.7047 0 21.9634C0 17.2687 0.382554 12.9094 1.13572 9.00603C1.86377 4.8938 4.86804 1.86662 8.97215 1.12773C17.7148 -0.37631 26.2984 -0.375113 35.0171 1.12654C39.114 1.86303 42.2187 4.96423 42.9372 9.02871L43.3616 11.9878C43.4752 12.7828 42.9217 13.5205 42.1243 13.6339C41.34 13.739 40.5893 13.1935 40.4757 12.3985L40.0585 9.48948C39.5552 6.64016 37.426 4.5166 34.5114 3.99257C26.1406 2.55298 17.8702 2.55178 9.47785 3.99375C6.61823 4.50824 4.51537 6.63299 4.0025 9.53482C3.27923 13.2794 2.91461 17.4525 2.91461 21.9634C2.91461 26.5197 3.27924 30.7167 3.99773 34.4386C4.52613 37.3643 6.629 39.4903 9.48861 40.0035C17.8451 41.4431 26.1442 41.4443 34.5222 40.0023C37.3722 39.4903 39.5528 37.313 40.0668 34.4565C40.7423 30.6164 41.0854 26.4111 41.0854 21.9634V20.9237C41.0854 20.1204 41.7381 19.4686 42.5427 19.4686C43.3473 19.4686 44 20.1204 44 20.9237V21.9634C44 26.5794 43.6425 30.9543 42.9372 34.9662C42.2032 39.0379 39.0997 42.1367 35.0278 42.8684C30.6655 43.6204 26.2852 44 21.9994 44Z" fill="#444B54"/>
<path d="M42.4016 18.2904C41.6783 18.2904 41.0495 17.752 40.9574 17.0155L40.8881 16.4616C40.7889 15.6643 41.3555 14.9373 42.1541 14.837C42.9372 14.7427 43.6808 15.3014 43.7812 16.1011L43.8505 16.655C43.9497 17.4524 43.3831 18.1793 42.5845 18.2796C42.5235 18.2868 42.4626 18.2904 42.4016 18.2904Z" fill="#444B54"/>
<path d="M9.29971 36.1001C8.91716 36.1001 8.54416 35.9497 8.26801 35.6728C7.91414 35.3182 7.76709 34.8073 7.87947 34.3203L9.40611 27.6679C9.58544 26.8849 10.3733 26.3931 11.1515 26.5745C11.937 26.7536 12.4271 27.5342 12.2466 28.3173L11.2376 32.7136L15.7087 31.7014C16.0614 31.6226 16.4296 31.6763 16.744 31.8506C18.2288 32.6814 20.046 33.1207 21.9994 33.1207C28.1992 33.1207 33.243 28.0845 33.243 21.8941C33.243 15.7037 28.1992 10.6675 21.9994 10.6675C15.8008 10.6675 10.757 15.7037 10.757 21.8941C10.757 22.5387 10.824 23.1809 10.8885 23.8255C10.9686 24.6252 10.384 25.3379 9.58304 25.4178C8.7988 25.4859 8.06716 24.9141 7.98826 24.1143C7.91414 23.3743 7.84241 22.6342 7.84241 21.8941C7.84241 14.0994 14.1929 7.75732 21.9994 7.75732C29.806 7.75732 36.1576 14.0994 36.1576 21.8941C36.1576 29.6888 29.8059 36.0309 21.9994 36.0309C19.7614 36.0309 17.6406 35.5582 15.8283 34.6593L9.62249 36.0643C9.5149 36.0882 9.4073 36.1001 9.29971 36.1001Z" fill="white"/>
<path d="M26.8937 29.3907C23.5739 29.3907 20.4058 28.1123 18.1236 25.8335C15.6322 23.2659 14.3459 19.8556 14.5778 16.4595C14.6208 15.8197 15.0787 15.285 15.704 15.1405C17.5211 14.7215 18.5002 14.5115 18.5002 14.5115C19.288 14.3527 20.0567 14.8385 20.2301 15.6192C20.731 17.8741 21.11 18.4017 21.1135 18.4064C21.5834 19.0391 21.4853 19.9594 20.8661 20.4452C20.2456 20.9347 19.3753 20.869 18.8672 20.2614C18.5899 19.9296 18.1942 19.3065 17.7351 17.6628C17.6526 17.6819 17.5677 17.701 17.4793 17.7213C17.6 19.9356 18.5612 22.1021 20.2014 23.7923C22.0233 25.6115 24.6271 26.6094 27.348 26.4698C28.1526 26.4304 28.834 27.0547 28.8699 27.858C28.9057 28.6602 28.2841 29.3406 27.4795 29.3776C27.2847 29.3859 27.0886 29.3907 26.8937 29.3907Z" fill="white"/>
<path d="M27.415 29.3788C27.311 29.3788 27.2046 29.3681 27.0982 29.3442C26.3128 29.1699 25.8166 28.3929 25.9912 27.6086C26.1155 27.0488 26.2147 26.5785 26.2912 26.1965C25.0396 25.8312 24.2422 25.5292 23.7221 25.1592C23.0658 24.6924 22.9128 23.7841 23.3802 23.1299C23.8489 22.4758 24.7586 22.323 25.4126 22.7885C25.7927 23.0583 27.7163 23.5763 28.3475 23.747C29.0648 23.9404 29.5215 24.6411 29.4091 25.3728C29.4091 25.3728 29.2668 26.3039 28.8364 28.2389C28.6858 28.9169 28.0833 29.3788 27.415 29.3788Z" fill="white"/>
</svg>

