<svg width="44" height="44" viewBox="0 0 44 44" fill="none" xmlns="http://www.w3.org/2000/svg">
<path fill-rule="evenodd" clip-rule="evenodd" d="M21.9654 1.45703C26.4694 1.45703 30.7654 1.80402 34.7151 2.56742C38.1796 3.19205 40.8127 5.75985 41.4363 9.2299C42.1292 13.2551 42.545 17.5579 42.545 21.9996C42.545 26.4412 42.1292 30.7441 41.4363 34.7693C40.8127 38.2393 38.1796 40.8071 34.7151 41.4317C30.7654 42.1951 26.4694 42.5421 21.9654 42.5421C17.5308 42.5421 13.2347 42.1951 9.28513 41.4317C5.75127 40.8071 3.1875 38.2393 2.56387 34.7693C1.87096 30.7441 1.45521 26.4412 1.45521 21.9996C1.45521 17.5579 1.87096 13.2551 2.56387 9.2299C3.18749 5.75985 5.75127 3.19205 9.28513 2.56742C13.2347 1.80401 17.5308 1.45703 21.9654 1.45703Z" fill="#FF697B"/>
<path fill-rule="evenodd" clip-rule="evenodd" d="M18.8473 15.7538L27.8552 20.9588C28.271 21.167 28.4788 21.5835 28.4788 21.9999C28.4788 22.4163 28.271 22.8326 27.8552 23.0409L18.8473 28.2459C18.5009 28.4541 18.0851 28.4541 17.6694 28.2459C17.3229 28.0377 17.1151 27.6907 17.1151 27.2743V16.7254C17.1151 16.309 17.3229 15.962 17.6694 15.7538C18.0851 15.5456 18.5009 15.5456 18.8473 15.7538Z" fill="white"/>
<path d="M21.9654 44C17.2746 44 12.9157 43.6175 9.00911 42.8631C4.89724 42.1351 1.87033 39.1321 1.13151 35.0281C0.379562 30.6575 0 26.2785 0 22C0 17.7215 0.379562 13.3425 1.13032 8.98266C1.87033 4.8667 4.89724 1.86252 9.03179 1.13209C12.9097 0.382545 17.2687 0 21.9654 0C26.7075 0 31.0903 0.382545 34.9909 1.13688C39.0455 1.86731 42.1452 4.94441 42.8685 8.97191L43.0177 9.91632C43.1358 10.6312 43.2528 11.3568 43.303 12.1172C43.3567 12.9205 42.7503 13.6151 41.9482 13.6677C41.1127 13.7215 40.4515 13.113 40.4002 12.3108C40.356 11.6473 40.2486 11.0149 40.1459 10.3921L39.9956 9.43574C39.4907 6.62761 37.3649 4.526 34.4574 4.00238C30.7203 3.27913 26.5225 2.91452 21.9654 2.91452C17.4537 2.91452 13.2797 3.27913 9.56055 3.9988C6.63628 4.51524 4.51172 6.61805 3.9961 9.48834C3.27636 13.6736 2.90994 17.8876 2.90994 22C2.90994 26.1124 3.27637 30.3264 3.99729 34.5224C4.51172 37.382 6.63628 39.4836 9.53787 39.9964C13.2857 40.7209 17.4596 41.0855 21.9654 41.0855C26.5177 41.0855 30.7143 40.7209 34.4395 40.0012C37.3649 39.4728 39.4907 37.3712 40.0039 34.5117C40.7236 30.3335 41.0901 26.1195 41.0901 22V20.9588C41.0901 20.1542 41.7418 19.5015 42.545 19.5015C43.3483 19.5015 44 20.1542 44 20.9588V22C44 26.2857 43.6204 30.6659 42.8697 35.0173C42.1452 39.0544 39.0467 42.1315 34.973 42.8667C31.0843 43.6175 26.7015 44 21.9654 44Z" fill="#444B54"/>
<path d="M42.3373 18.3215C41.5341 18.3215 40.8824 17.6688 40.8824 16.8642V16.3083C40.8824 15.5038 41.5341 14.8511 42.3373 14.8511C43.1406 14.8511 43.7923 15.5038 43.7923 16.3083V16.8642C43.7923 17.6688 43.1406 18.3215 42.3373 18.3215Z" fill="#444B54"/>
<path d="M18.2916 29.8613C17.869 29.8613 17.4346 29.7585 17.0192 29.5493C16.1312 29.0197 15.6597 28.19 15.6597 27.2743V21.236C15.6597 20.4315 16.3114 19.7788 17.1147 19.7788C17.918 19.7788 18.5697 20.4315 18.5697 21.236V26.7244L26.748 21.9988L18.4825 17.2253C18.2784 17.7836 17.7437 18.1829 17.1147 18.1829C16.3114 18.1829 15.6597 17.5301 15.6597 16.7256C15.6597 15.8075 16.1324 14.9766 16.9225 14.5032C17.8774 14.0167 18.8155 14.0346 19.5949 14.5032L28.5826 19.6963C29.387 20.0956 29.9337 20.9946 29.9337 21.9999C29.9337 23.0029 29.3882 23.9007 28.5098 24.343L19.5746 29.5086C19.1843 29.7429 18.7439 29.8613 18.2916 29.8613Z" fill="#444B54"/>
</svg>

